<?xml version="1.0" standalone="no"?>
<!DOCTYPE svg PUBLIC "-//W3C//DTD SVG 1.1//EN" "http://www.w3.org/Graphics/SVG/1.1/DTD/svg11.dtd" >
<svg>
<metadata>
Created by FontForge 20090622 at Mon Jun 11 07:01:57 2018
 By deploy user
Copyright &#194;&#169; 2015 by Wei Huang. All rights reserved.
</metadata>
<defs>
<font id="WorkSans-Bold" horiz-adv-x="604" >
  <font-face 
    font-family="Work Sans"
    font-weight="700"
    font-stretch="normal"
    units-per-em="1000"
    panose-1="0 0 8 0 0 0 0 0 0 0"
    ascent="800"
    descent="-200"
    x-height="500"
    cap-height="660"
    bbox="-349 -341 1325 920"
    underline-thickness="50"
    underline-position="-50"
    unicode-range="U+0020-U+FB02"
  />
<missing-glyph horiz-adv-x="500" 
d="M50 660h400v-660h-400v660zM370 80v500h-240v-500h240z" />
    <glyph glyph-name="fi" unicode="fi" horiz-adv-x="706" 
d="M255 500h152v-121h-142v-379h-170v379h-80v121h80v46q0 90 56 135t146 45q78 0 115 -29l-17 -106q-22 16 -57 16q-83 0 -83 -72v-35zM485.5 577.5q-23.5 19.5 -23.5 61.5q0 43 23.5 62.5t75.5 19.5t75.5 -19.5t23.5 -62.5q0 -42 -23.5 -61.5t-75.5 -19.5t-75.5 19.5z
M646 0h-170v500h170v-500z" />
    <glyph glyph-name="fl" unicode="fl" horiz-adv-x="742" 
d="M255 500h152v-121h-142v-379h-170v379h-80v121h80v46q0 90 56 135t146 45q78 0 115 -29l-17 -106q-22 16 -57 16q-83 0 -83 -72v-35zM644 173q0 -34 10 -48t36 -14q24 0 51 9l-11 -105q-18 -11 -47 -18t-57 -7q-80 0 -116 37.5t-36 120.5v564h170v-539z" />
    <glyph glyph-name="f_t.liga" unicode="ft" horiz-adv-x="791" 
d="M780 28q-24 -17 -63 -27.5t-78 -10.5q-89 0 -136 38t-48 122v229h-190v-379h-170v379h-80v121h80v46q0 90 54.5 135.5t138.5 45.5q34 0 60.5 -7.5t43.5 -20.5l-12 -105q-23 13 -52 13q-34 0 -53.5 -17.5t-19.5 -54.5v-35h200v112l170 47v-159h150v-121h-150v-201
q0 -67 66 -67q41 0 72 22z" />
    <glyph glyph-name="g_j.liga" unicode="gj" horiz-adv-x="862" 
d="M642 578q-24 20 -24 61q0 42 24 62t75 20t75 -20t24 -62t-24 -61.5t-75 -19.5t-75 20zM487 73q48 -38 48 -112q0 -85 -70.5 -130.5t-193.5 -45.5q-122 0 -187 31.5t-65 86.5q0 34 21.5 59.5t66.5 37.5q-33 15 -52.5 40.5t-19.5 61.5q0 35 22.5 62t59.5 40q-80 45 -80 136
q0 82 63.5 126t181.5 44q56 0 102 -11q7 59 43 97.5t97 38.5l16 -1l19 -113q-18 2 -26 2q-33 0 -55.5 -13t-30.5 -35q72 -43 72 -135q0 -82 -59.5 -125.5t-177.5 -43.5q-53 0 -96 9q-34 -8 -34 -34q0 -35 65 -35h133q89 0 137 -38zM632 500h170v-534q0 -102 -52 -141.5
t-136 -39.5q-45 0 -81 14l24 121q14 -11 38 -11q19 0 28 15t9 51v525zM222 393q-20 -19 -20 -53q0 -33 20 -52t56 -19t56 19t20 52q0 34 -20 53t-56 19t-56 -19zM369 -91.5q32 13.5 32 35.5q0 16 -14.5 24t-48.5 8h-112q-41 0 -59.5 -9t-18.5 -27q0 -45 129 -45
q60 0 92 13.5z" />
    <glyph glyph-name="j_j.liga" unicode="jj" horiz-adv-x="580" 
d="M220.5 701q24.5 -20 24.5 -62q0 -41 -24 -61t-76 -20q-51 0 -74.5 20t-23.5 61q0 42 23.5 62t74.5 20t75.5 -20zM510.5 701q24.5 -20 24.5 -62q0 -41 -24 -61t-76 -20q-51 0 -74.5 20t-23.5 61q0 42 23.5 62t74.5 20t75.5 -20zM231 -28q0 -98 -50 -142.5t-144 -44.5
q-79 0 -131 32l24 110q23 -20 63 -20q33 0 50.5 18.5t17.5 61.5v513h170v-528zM521 -34q0 -181 -197 -181q-52 0 -93 22l24 121q19 -19 50 -19q46 0 46 66v525h170v-534z" />
    <glyph glyph-name="t_t.liga" unicode="tt" horiz-adv-x="814" 
d="M804 28q-25 -17 -63.5 -27.5t-77.5 -10.5q-89 0 -136.5 38t-47.5 122v229h-210v-201q0 -36 13 -51.5t44 -15.5q22 0 37 5.5t30 17.5l19 -106q-23 -17 -60.5 -27.5t-75.5 -10.5q-85 0 -130.5 38t-46.5 122v229h-86v121h86v112l170 47v-159h210v112l170 47v-159h149v-121
h-149v-201q0 -67 66 -67q41 0 72 22z" />
    <glyph glyph-name=".notdef" horiz-adv-x="500" 
d="M50 660h400v-660h-400v660zM370 80v500h-240v-500h240z" />
    <glyph glyph-name="space" unicode=" " horiz-adv-x="286" 
 />
    <glyph glyph-name="A" unicode="A" horiz-adv-x="677" 
d="M451 149h-228l-46 -149h-173l232 660h206l231 -660h-177zM415 266l-48 158l-29 104h-2l-27 -103l-50 -159h156z" />
    <glyph glyph-name="Aacute" unicode="&#xc1;" horiz-adv-x="677" 
d="M391 723h-124l55 159h161zM451 149h-228l-46 -149h-173l232 660h206l231 -660h-177zM415 266l-48 158l-29 104h-2l-27 -103l-50 -159h156z" />
    <glyph glyph-name="Abreve" unicode="&#x102;" horiz-adv-x="677" 
d="M451 149h-228l-46 -149h-173l232 660h206l231 -660h-177zM415 266l-48 158l-29 104h-2l-27 -103l-50 -159h156zM462 758.5q-45 -43.5 -124 -43.5t-124 43.5t-45 119.5h110q0 -31 16 -49.5t43 -18.5t43 18.5t16 49.5h110q0 -76 -45 -119.5z" />
    <glyph glyph-name="Acircumflex" unicode="&#xc2;" horiz-adv-x="677" 
d="M271 719h-126l111 167h164l111 -167h-126l-67 88zM451 149h-228l-46 -149h-173l232 660h206l231 -660h-177zM415 266l-48 158l-29 104h-2l-27 -103l-50 -159h156z" />
    <glyph glyph-name="Adieresis" unicode="&#xc4;" horiz-adv-x="677" 
d="M451 149h-228l-46 -149h-173l232 660h206l231 -660h-177zM415 266l-48 158l-29 104h-2l-27 -103l-50 -159h156zM290 849.5q23 -20.5 23 -56.5t-23 -56.5t-63 -20.5q-39 0 -61.5 20.5t-22.5 56.5t22.5 56.5t61.5 20.5q40 0 63 -20.5zM510 849.5q23 -20.5 23 -56.5
t-23 -56.5t-63 -20.5q-39 0 -61.5 20.5t-22.5 56.5t22.5 56.5t61.5 20.5q40 0 63 -20.5z" />
    <glyph glyph-name="Agrave" unicode="&#xc0;" horiz-adv-x="677" 
d="M270 723l-92 159h161l55 -159h-124zM451 149h-228l-46 -149h-173l232 660h206l231 -660h-177zM415 266l-48 158l-29 104h-2l-27 -103l-50 -159h156z" />
    <glyph glyph-name="Amacron" unicode="&#x100;" horiz-adv-x="677" 
d="M451 149h-228l-46 -149h-173l232 660h206l231 -660h-177zM415 266l-48 158l-29 104h-2l-27 -103l-50 -159h156zM524 729h-372v105h372v-105z" />
    <glyph glyph-name="Aogonek" unicode="&#x104;" horiz-adv-x="677" 
d="M680 -192q-37 -23 -104 -23q-62 0 -100 29t-38 84q0 67 63 102h-5l-45 149h-228l-46 -149h-173l232 660h206l231 -660q-65 -11 -91 -30t-26 -46q0 -21 14.5 -32.5t40.5 -11.5q31 0 46 10zM415 266l-48 158l-29 104h-2l-27 -103l-50 -159h156z" />
    <glyph glyph-name="Aring" unicode="&#xc5;" horiz-adv-x="677" 
d="M451 149h-228l-46 -149h-173l230 638q-45 33 -45 94q0 58 40.5 93.5t109.5 35.5q70 0 110 -35.5t40 -93.5q0 -61 -46 -94l230 -638h-177zM296.5 767q-15.5 -15 -15.5 -41t15.5 -41t42.5 -15t42.5 15t15.5 41t-15.5 41t-42.5 15t-42.5 -15zM415 266l-48 158l-28 104h-4
l-26 -103l-50 -159h156z" />
    <glyph glyph-name="Atilde" unicode="&#xc3;" horiz-adv-x="677" 
d="M451 149h-228l-46 -149h-173l232 660h206l231 -660h-177zM415 266l-48 158l-29 104h-2l-27 -103l-50 -159h156zM404 719q-30 0 -48.5 9t-39.5 26q-13 11 -22.5 16.5t-20.5 5.5q-16 0 -25 -14t-12 -42h-96q6 159 132 159q30 0 48.5 -9.5t40.5 -26.5q15 -12 22.5 -16.5
t18.5 -4.5q17 0 26 14t12 42h96q-6 -159 -132 -159z" />
    <glyph glyph-name="AE" unicode="&#xc6;" horiz-adv-x="924" 
d="M894 127v-127h-473v196h-178l-74 -196h-173l283 660h601v-127h-299v-142h229v-120h-229v-144h313zM421 308v230h-48l-87 -230h135z" />
    <glyph glyph-name="B" unicode="B" horiz-adv-x="684" 
d="M73 660h321q238 -1 238 -178q0 -58 -34 -98t-100 -50v-1q74 -10 112.5 -51.5t38.5 -103.5q0 -86 -61 -132t-179 -46h-336v660zM363 390q93 0 93 72t-93 72h-124v-144h124zM380 121q46 0 69.5 19t23.5 55q0 35 -23.5 53.5t-69.5 18.5h-141v-146h141z" />
    <glyph glyph-name="C" unicode="C" horiz-adv-x="681" 
d="M554 39.5q-76 -49.5 -185 -49.5q-100 0 -173 40.5t-112 117t-39 182.5q0 105 39 182t112 117.5t172 40.5q108 0 183 -45.5t99 -136.5l-151 -61q-14 60 -43 84t-82 24q-73 0 -113 -52.5t-40 -152.5t38.5 -152.5t111.5 -52.5q55 0 87 26t44 82l156 -44
q-28 -100 -104 -149.5z" />
    <glyph glyph-name="Cacute" unicode="&#x106;" horiz-adv-x="681" 
d="M507 882l-92 -159h-124l55 159h161zM554 39.5q-76 -49.5 -185 -49.5q-100 0 -173 40.5t-112 117t-39 182.5q0 105 39 182t112 117.5t172 40.5q108 0 183 -45.5t99 -136.5l-151 -61q-14 60 -43 84t-82 24q-73 0 -113 -52.5t-40 -152.5t38.5 -152.5t111.5 -52.5q55 0 87 26
t44 82l156 -44q-28 -100 -104 -149.5z" />
    <glyph glyph-name="Ccaron" unicode="&#x10c;" horiz-adv-x="681" 
d="M441 721h-164l-111 167h126l67 -88l67 88h126zM554 39.5q-76 -49.5 -185 -49.5q-100 0 -173 40.5t-112 117t-39 182.5q0 105 39 182t112 117.5t172 40.5q108 0 183 -45.5t99 -136.5l-151 -61q-14 60 -43 84t-82 24q-73 0 -113 -52.5t-40 -152.5t38.5 -152.5t111.5 -52.5
q55 0 87 26t44 82l156 -44q-28 -100 -104 -149.5z" />
    <glyph glyph-name="Ccedilla" unicode="&#xc7;" horiz-adv-x="681" 
d="M580.5 59.5q-54.5 -47.5 -134.5 -62.5q53 -38 53 -94q0 -57 -39 -87.5t-104 -30.5q-81 0 -124 40l39 79q28 -28 72 -28q25 0 40 13t15 36q0 22 -15.5 38t-55.5 29q-133 12 -207.5 101t-74.5 237q0 105 39 182t112 117.5t172 40.5q108 0 183 -45.5t99 -136.5l-151 -61
q-14 60 -43 84t-82 24q-73 0 -113 -52.5t-40 -152.5t38.5 -152.5t111.5 -52.5q55 0 87 26t44 82l156 -44q-23 -82 -77.5 -129.5z" />
    <glyph glyph-name="D" unicode="D" horiz-adv-x="718" 
d="M590.5 574.5q82.5 -85.5 82.5 -244.5t-82.5 -244.5t-237.5 -85.5h-280v660h280q155 0 237.5 -85.5zM458 180q39 50 39 150t-39 150t-122 50h-91v-400h91q83 0 122 50z" />
    <glyph glyph-name="Eth" unicode="&#xd0;" horiz-adv-x="741" 
d="M614 574.5q83 -85.5 83 -244.5t-83 -244.5t-238 -85.5h-280v273h-83v114h83v273h280q155 0 238 -85.5zM481 180q39 50 39 150t-39 150t-122 50h-91v-143h131v-114h-131v-143h91q83 0 122 50z" />
    <glyph glyph-name="Dcaron" unicode="&#x10e;" horiz-adv-x="718" 
d="M243 721l-111 167h126l67 -88l67 88h126l-111 -167h-164zM590.5 574.5q82.5 -85.5 82.5 -244.5t-82.5 -244.5t-237.5 -85.5h-280v660h280q155 0 237.5 -85.5zM458 180q39 50 39 150t-39 150t-122 50h-91v-400h91q83 0 122 50z" />
    <glyph glyph-name="Dcroat" unicode="&#x110;" horiz-adv-x="741" 
d="M614 574.5q83 -85.5 83 -244.5t-83 -244.5t-238 -85.5h-280v273h-83v114h83v273h280q155 0 238 -85.5zM481 180q39 50 39 150t-39 150t-122 50h-91v-143h131v-114h-131v-143h91q83 0 122 50z" />
    <glyph glyph-name="E" unicode="E" horiz-adv-x="631" 
d="M600 133v-133h-527v660h514v-133h-342v-134h272v-125h-272v-135h355z" />
    <glyph glyph-name="Eacute" unicode="&#xc9;" horiz-adv-x="631" 
d="M376 723h-124l55 159h161zM600 133v-133h-527v660h514v-133h-342v-134h272v-125h-272v-135h355z" />
    <glyph glyph-name="Ecaron" unicode="&#x11a;" horiz-adv-x="631" 
d="M238 721l-111 167h126l67 -88l67 88h126l-111 -167h-164zM600 133v-133h-527v660h514v-133h-342v-134h272v-125h-272v-135h355z" />
    <glyph glyph-name="Ecircumflex" unicode="&#xca;" horiz-adv-x="631" 
d="M256 719h-126l111 167h164l111 -167h-126l-67 88zM600 133v-133h-527v660h514v-133h-342v-134h272v-125h-272v-135h355z" />
    <glyph glyph-name="Edieresis" unicode="&#xcb;" horiz-adv-x="631" 
d="M600 133v-133h-527v660h514v-133h-342v-134h272v-125h-272v-135h355zM275 849.5q23 -20.5 23 -56.5t-23 -56.5t-63 -20.5q-39 0 -61.5 20.5t-22.5 56.5t22.5 56.5t61.5 20.5q40 0 63 -20.5zM495 849.5q23 -20.5 23 -56.5t-23 -56.5t-63 -20.5q-39 0 -61.5 20.5
t-22.5 56.5t22.5 56.5t61.5 20.5q40 0 63 -20.5z" />
    <glyph glyph-name="Edotaccent" unicode="&#x116;" horiz-adv-x="631" 
d="M600 133v-133h-527v660h514v-133h-342v-134h272v-125h-272v-135h355zM392.5 861.5q23.5 -20.5 23.5 -59.5q0 -40 -23.5 -60.5t-69.5 -20.5q-44 0 -67.5 20.5t-23.5 60.5q0 39 23.5 59.5t67.5 20.5q46 0 69.5 -20.5z" />
    <glyph glyph-name="Egrave" unicode="&#xc8;" horiz-adv-x="631" 
d="M280 723l-92 159h161l55 -159h-124zM600 133v-133h-527v660h514v-133h-342v-134h272v-125h-272v-135h355z" />
    <glyph glyph-name="Emacron" unicode="&#x112;" horiz-adv-x="631" 
d="M600 133v-133h-527v660h514v-133h-342v-134h272v-125h-272v-135h355zM509 729h-372v105h372v-105z" />
    <glyph glyph-name="Eogonek" unicode="&#x118;" horiz-adv-x="631" 
d="M608 -192q-37 -23 -104 -23q-62 0 -100.5 28.5t-38.5 82.5q0 69 79 104h-371v660h514v-133h-342v-134h272v-125h-272v-135h355v-133h1q-65 -12 -91 -30.5t-26 -45.5q0 -21 14.5 -32.5t40.5 -11.5q31 0 46 10z" />
    <glyph glyph-name="F" unicode="F" horiz-adv-x="612" 
d="M245 527v-140h272v-133h-272v-254h-172v660h513v-133h-341z" />
    <glyph glyph-name="G" unicode="G" horiz-adv-x="723" 
d="M665 357v-357h-120l-5 78q-57 -88 -189 -88q-90 0 -159.5 39.5t-108.5 116t-39 183.5q0 106 40 182.5t114 117.5t175 41q113 0 182 -40t109 -129l-159 -63q-12 49 -45 73t-82 24q-76 0 -116.5 -52t-40.5 -153q0 -208 162 -208q61 0 98.5 28t37.5 81v10h-164v116h310z" />
    <glyph glyph-name="Gbreve" unicode="&#x11e;" horiz-adv-x="723" 
d="M665 357v-357h-120l-5 78q-57 -88 -189 -88q-90 0 -159.5 39.5t-108.5 116t-39 183.5q0 106 40 182.5t114 117.5t175 41q113 0 182 -40t109 -129l-159 -63q-12 49 -45 73t-82 24q-76 0 -116.5 -52t-40.5 -153q0 -208 162 -208q61 0 98.5 28t37.5 81v10h-164v116h310z
M491 758.5q-45 -43.5 -124 -43.5t-124 43.5t-45 119.5h110q0 -31 16 -49.5t43 -18.5t43 18.5t16 49.5h110q0 -76 -45 -119.5z" />
    <glyph glyph-name="H" unicode="H" horiz-adv-x="742" 
d="M669 660v-660h-172v266h-252v-266h-172v660h172v-261h252v261h172z" />
    <glyph glyph-name="I" unicode="I" horiz-adv-x="318" 
d="M245 0h-172v660h172v-660z" />
    <glyph glyph-name="IJ" unicode="&#x132;" horiz-adv-x="939" 
d="M245 0h-172v660h172v-660zM877 254q0 -125 -72.5 -194.5t-205.5 -69.5q-124 0 -187.5 56t-63.5 153q0 29 6 62l170 30q-5 -38 -5 -62q0 -55 21.5 -79.5t66.5 -24.5q53 0 75.5 35t22.5 112v388h172v-406z" />
    <glyph glyph-name="Iacute" unicode="&#xcd;" horiz-adv-x="318" 
d="M303 882l-92 -159h-124l55 159h161zM245 0h-172v660h172v-660z" />
    <glyph glyph-name="Icircumflex" unicode="&#xce;" horiz-adv-x="318" 
d="M226 719l-67 88l-67 -88h-126l111 167h164l111 -167h-126zM245 0h-172v660h172v-660z" />
    <glyph glyph-name="Idieresis" unicode="&#xcf;" horiz-adv-x="318" 
d="M117.5 849.5q22.5 -20.5 22.5 -56.5t-22.5 -56.5t-61.5 -20.5q-38 0 -60 20.5t-22 56.5t22 56.5t60 20.5q39 0 61.5 -20.5zM321.5 849.5q22.5 -20.5 22.5 -56.5t-22.5 -56.5t-61.5 -20.5q-38 0 -60 20.5t-22 56.5t22 56.5t60 20.5q39 0 61.5 -20.5zM245 0h-172v660h172
v-660z" />
    <glyph glyph-name="Idotaccent" unicode="&#x130;" horiz-adv-x="318" 
d="M245 0h-172v660h172v-660zM228.5 861.5q23.5 -20.5 23.5 -59.5q0 -40 -23.5 -60.5t-69.5 -20.5q-44 0 -67.5 20.5t-23.5 60.5q0 39 23.5 59.5t67.5 20.5q46 0 69.5 -20.5z" />
    <glyph glyph-name="Igrave" unicode="&#xcc;" horiz-adv-x="318" 
d="M215 723h-124l-92 159h161zM245 0h-172v660h172v-660z" />
    <glyph glyph-name="Imacron" unicode="&#x12a;" horiz-adv-x="318" 
d="M300 729h-283v105h283v-105zM245 0h-172v660h172v-660z" />
    <glyph glyph-name="Iogonek" unicode="&#x12e;" horiz-adv-x="318" 
d="M259 -191q-20 -13 -45 -18.5t-60 -5.5q-61 0 -99.5 28.5t-38.5 82.5q0 66 68 104h-11v660h172v-660q-61 -13 -86 -32t-25 -43q0 -21 14 -32.5t39 -11.5q30 0 48 11z" />
    <glyph glyph-name="J" unicode="J" horiz-adv-x="621" 
d="M559 254q0 -125 -72.5 -194.5t-205.5 -69.5q-124 0 -187.5 56t-63.5 153q0 29 6 62l170 30q-5 -38 -5 -62q0 -55 21.5 -79.5t66.5 -24.5q53 0 75.5 35t22.5 112v388h172v-406z" />
    <glyph glyph-name="K" unicode="K" horiz-adv-x="693" 
d="M325 283l-80 -97v-186h-172v660h172v-293l236 293h191l-224 -268l236 -392h-195z" />
    <glyph glyph-name="L" unicode="L" horiz-adv-x="602" 
d="M576 133v-133h-503v660h172v-527h331z" />
    <glyph glyph-name="Lacute" unicode="&#x139;" horiz-adv-x="602" 
d="M211 723h-124l55 159h161zM576 133v-133h-503v660h172v-527h331z" />
    <glyph glyph-name="Lcaron" unicode="&#x13d;" horiz-adv-x="602" 
d="M438 462h-109l24 239h145zM576 133v-133h-503v660h172v-527h331z" />
    <glyph glyph-name="Ldot" unicode="&#x13f;" horiz-adv-x="644" 
d="M576 133v-133h-503v660h172v-527h331zM601.5 422q26.5 -24 26.5 -67q0 -42 -26.5 -66t-73.5 -24t-73.5 24t-26.5 66q0 43 26.5 67t73.5 24t73.5 -24z" />
    <glyph glyph-name="Lslash" unicode="&#x141;" horiz-adv-x="644" 
d="M618 133v-133h-503v219l-110 -53v125l110 53v316h172v-234l170 81v-125l-170 -81v-168h331z" />
    <glyph glyph-name="M" unicode="M" horiz-adv-x="910" 
d="M837 0h-152v303l5 203h-2l-163 -506h-139l-163 506h-2l5 -203v-303h-153v660h245l104 -336l37 -140h2l38 139l103 337h235v-660z" />
    <glyph glyph-name="N" unicode="N" horiz-adv-x="741" 
d="M668 0h-191l-205 357l-50 100h-1l4 -124v-333h-152v660h191l205 -357l50 -100h1l-4 124v333h152v-660z" />
    <glyph glyph-name="Nacute" unicode="&#x143;" horiz-adv-x="741" 
d="M516 882l-92 -159h-124l55 159h161zM668 0h-191l-205 357l-50 100h-1l4 -124v-333h-152v660h191l205 -357l50 -100h1l-4 124v333h152v-660z" />
    <glyph glyph-name="Ncaron" unicode="&#x147;" horiz-adv-x="741" 
d="M451 721h-164l-111 167h126l67 -88l67 88h126zM668 0h-191l-205 357l-50 100h-1l4 -124v-333h-152v660h191l205 -357l50 -100h1l-4 124v333h152v-660z" />
    <glyph glyph-name="Ntilde" unicode="&#xd1;" horiz-adv-x="741" 
d="M668 0h-191l-205 357l-50 100h-1l4 -124v-333h-152v660h191l205 -357l50 -100h1l-4 124v333h152v-660zM438 719q-30 0 -48.5 9t-39.5 26q-13 11 -22.5 16.5t-20.5 5.5q-16 0 -25 -14t-12 -42h-96q6 159 132 159q30 0 48.5 -9.5t40.5 -26.5q15 -12 22.5 -16.5t18.5 -4.5
q17 0 26 14t12 42h96q-6 -159 -132 -159z" />
    <glyph glyph-name="O" unicode="O" horiz-adv-x="737" 
d="M541.5 629.5q72.5 -40.5 111.5 -117t39 -182.5t-39 -182.5t-111.5 -117t-172.5 -40.5t-173 40.5t-112 117t-39 182.5t39 182.5t112 117t173 40.5t172.5 -40.5zM259 483q-38 -52 -38 -153t38 -153t110 -52t109.5 52t37.5 153t-37.5 153t-109.5 52t-110 -52z" />
    <glyph glyph-name="Oacute" unicode="&#xd3;" horiz-adv-x="737" 
d="M513 882l-92 -159h-124l55 159h161zM541.5 629.5q72.5 -40.5 111.5 -117t39 -182.5t-39 -182.5t-111.5 -117t-172.5 -40.5t-173 40.5t-112 117t-39 182.5t39 182.5t112 117t173 40.5t172.5 -40.5zM259 483q-38 -52 -38 -153t38 -153t110 -52t109.5 52t37.5 153t-37.5 153
t-109.5 52t-110 -52z" />
    <glyph glyph-name="Ocircumflex" unicode="&#xd4;" horiz-adv-x="737" 
d="M436 719l-67 88l-67 -88h-126l111 167h164l111 -167h-126zM541.5 629.5q72.5 -40.5 111.5 -117t39 -182.5t-39 -182.5t-111.5 -117t-172.5 -40.5t-173 40.5t-112 117t-39 182.5t39 182.5t112 117t173 40.5t172.5 -40.5zM259 483q-38 -52 -38 -153t38 -153t110 -52
t109.5 52t37.5 153t-37.5 153t-109.5 52t-110 -52z" />
    <glyph glyph-name="Odieresis" unicode="&#xd6;" horiz-adv-x="737" 
d="M541.5 629.5q72.5 -40.5 111.5 -117t39 -182.5t-39 -182.5t-111.5 -117t-172.5 -40.5t-173 40.5t-112 117t-39 182.5t39 182.5t112 117t173 40.5t172.5 -40.5zM259 483q-38 -52 -38 -153t38 -153t110 -52t109.5 52t37.5 153t-37.5 153t-109.5 52t-110 -52zM320 849.5
q23 -20.5 23 -56.5t-23 -56.5t-63 -20.5q-39 0 -61.5 20.5t-22.5 56.5t22.5 56.5t61.5 20.5q40 0 63 -20.5zM540 849.5q23 -20.5 23 -56.5t-23 -56.5t-63 -20.5q-39 0 -61.5 20.5t-22.5 56.5t22.5 56.5t61.5 20.5q40 0 63 -20.5z" />
    <glyph glyph-name="Ograve" unicode="&#xd2;" horiz-adv-x="737" 
d="M425 723h-124l-92 159h161zM541.5 629.5q72.5 -40.5 111.5 -117t39 -182.5t-39 -182.5t-111.5 -117t-172.5 -40.5t-173 40.5t-112 117t-39 182.5t39 182.5t112 117t173 40.5t172.5 -40.5zM259 483q-38 -52 -38 -153t38 -153t110 -52t109.5 52t37.5 153t-37.5 153
t-109.5 52t-110 -52z" />
    <glyph glyph-name="Ohungarumlaut" unicode="&#x150;" horiz-adv-x="737" 
d="M406 882l-92 -159h-124l55 159h161zM630 882l-92 -159h-124l55 159h161zM541.5 629.5q72.5 -40.5 111.5 -117t39 -182.5t-39 -182.5t-111.5 -117t-172.5 -40.5t-173 40.5t-112 117t-39 182.5t39 182.5t112 117t173 40.5t172.5 -40.5zM259 483q-38 -52 -38 -153t38 -153
t110 -52t109.5 52t37.5 153t-37.5 153t-109.5 52t-110 -52z" />
    <glyph glyph-name="Omacron" unicode="&#x14c;" horiz-adv-x="737" 
d="M541.5 629.5q72.5 -40.5 111.5 -117t39 -182.5t-39 -182.5t-111.5 -117t-172.5 -40.5t-173 40.5t-112 117t-39 182.5t39 182.5t112 117t173 40.5t172.5 -40.5zM259 483q-38 -52 -38 -153t38 -153t110 -52t109.5 52t37.5 153t-37.5 153t-109.5 52t-110 -52zM555 729h-372
v105h372v-105z" />
    <glyph glyph-name="Oslash" unicode="&#xd8;" horiz-adv-x="737" 
d="M668.5 475.5q23.5 -64.5 23.5 -145.5q0 -106 -39 -182.5t-111.5 -117t-172.5 -40.5q-101 0 -176 42l-43 -59h-86l73 101q-45 45 -68.5 109.5t-23.5 146.5q0 106 39 182.5t112 117t173 40.5q104 0 178 -44l39 55h86l-71 -97q44 -44 67.5 -108.5zM259 483q-38 -52 -38 -153
q0 -75 21 -123l212 301q-33 27 -85 27q-72 0 -110 -52zM478.5 177q37.5 52 37.5 153q0 70 -18 116l-210 -298q32 -23 81 -23q72 0 109.5 52z" />
    <glyph glyph-name="Otilde" unicode="&#xd5;" horiz-adv-x="737" 
d="M541.5 629.5q72.5 -40.5 111.5 -117t39 -182.5t-39 -182.5t-111.5 -117t-172.5 -40.5t-173 40.5t-112 117t-39 182.5t39 182.5t112 117t173 40.5t172.5 -40.5zM259 483q-38 -52 -38 -153t38 -153t110 -52t109.5 52t37.5 153t-37.5 153t-109.5 52t-110 -52zM434 719
q-30 0 -48.5 9t-39.5 26q-13 11 -22.5 16.5t-20.5 5.5q-16 0 -25 -14t-12 -42h-96q6 159 132 159q30 0 48.5 -9.5t40.5 -26.5q15 -12 22.5 -16.5t18.5 -4.5q17 0 26 14t12 42h96q-6 -159 -132 -159z" />
    <glyph glyph-name="OE" unicode="&#x152;" horiz-adv-x="1048" 
d="M1018 133v-133h-458v77q-79 -87 -206 -87q-94 0 -164 40.5t-107.5 117.5t-37.5 182q0 106 37.5 182.5t107.5 117t166 40.5q124 0 204 -86v76h445v-133h-330v-134h259v-125h-259v-135h343zM469 177.5q37 52.5 37 152.5t-37 152.5t-106 52.5q-71 0 -108 -52t-37 -153
t37 -153t108 -52q69 0 106 52.5z" />
    <glyph glyph-name="P" unicode="P" horiz-adv-x="668" 
d="M565 603.5q66 -56.5 66 -162.5q0 -101 -66 -156.5t-189 -55.5h-131v-229h-172v660h303q123 0 189 -56.5zM431.5 376.5q26.5 21.5 26.5 66.5q0 44 -26.5 65.5t-82.5 21.5h-104v-175h104q56 0 82.5 21.5z" />
    <glyph glyph-name="Thorn" unicode="&#xde;" horiz-adv-x="666" 
d="M560.5 502.5q67.5 -56.5 66.5 -165.5q1 -108 -66.5 -165t-194.5 -57h-121v-115h-172v660h172v-101h121q127 0 194.5 -56.5zM427 266q27 23 27 71q0 93 -108 93h-101v-187h101q54 0 81 23z" />
    <glyph glyph-name="Q" unicode="Q" horiz-adv-x="737" 
d="M646 -31l41 -125q-26 -23 -70 -35.5t-100 -12.5q-99 0 -153 47.5t-54 130.5l1 20q-125 17 -195.5 105t-70.5 231q0 106 39 182.5t112 117t173 40.5t172.5 -40.5t111.5 -117t39 -182.5q0 -145 -71.5 -233t-198.5 -104q4 -35 29.5 -49t71.5 -14q81 0 123 39zM259 177
q38 -52 110 -52t109.5 52t37.5 153t-37.5 153t-109.5 52t-110 -52t-38 -153t38 -153z" />
    <glyph glyph-name="R" unicode="R" horiz-adv-x="689" 
d="M345 241h-103v-241h-169v660h315q120 0 184.5 -54t64.5 -156q0 -72 -33 -120t-96 -71l168 -259h-190zM242 363h117q55 0 80 20t25 64q0 43 -25 63t-80 20h-117v-167z" />
    <glyph glyph-name="Racute" unicode="&#x154;" horiz-adv-x="689" 
d="M381 723h-124l55 159h161zM345 241h-103v-241h-169v660h315q120 0 184.5 -54t64.5 -156q0 -72 -33 -120t-96 -71l168 -259h-190zM242 363h117q55 0 80 20t25 64q0 43 -25 63t-80 20h-117v-167z" />
    <glyph glyph-name="Rcaron" unicode="&#x158;" horiz-adv-x="689" 
d="M244 721l-111 167h126l67 -88l67 88h126l-111 -167h-164zM345 241h-103v-241h-169v660h315q120 0 184.5 -54t64.5 -156q0 -72 -33 -120t-96 -71l168 -259h-190zM242 363h117q55 0 80 20t25 64q0 43 -25 63t-80 20h-117v-167z" />
    <glyph glyph-name="S" unicode="S" horiz-adv-x="644" 
d="M491.5 642q66.5 -28 123.5 -91l-97 -112q-33 50 -77.5 73.5t-106.5 23.5q-52 0 -80 -18t-28 -48q0 -25 29.5 -40.5t100.5 -28.5q137 -25 195.5 -73t58.5 -135q0 -63 -36 -109t-99.5 -70t-143.5 -24q-112 0 -182 27.5t-121 84.5l88 120q39 -54 88 -76t118 -22
q55 0 82.5 15.5t27.5 44.5q0 23 -29.5 37.5t-98.5 27.5q-85 17 -140.5 40.5t-86 63.5t-30.5 102t33.5 111t98 76.5t152.5 27.5q94 0 160.5 -28z" />
    <glyph glyph-name="Sacute" unicode="&#x15a;" horiz-adv-x="644" 
d="M473 882l-92 -159h-124l55 159h161zM491.5 642q66.5 -28 123.5 -91l-97 -112q-33 50 -77.5 73.5t-106.5 23.5q-52 0 -80 -18t-28 -48q0 -25 29.5 -40.5t100.5 -28.5q137 -25 195.5 -73t58.5 -135q0 -63 -36 -109t-99.5 -70t-143.5 -24q-112 0 -182 27.5t-121 84.5l88 120
q39 -54 88 -76t118 -22q55 0 82.5 15.5t27.5 44.5q0 23 -29.5 37.5t-98.5 27.5q-85 17 -140.5 40.5t-86 63.5t-30.5 102t33.5 111t98 76.5t152.5 27.5q94 0 160.5 -28z" />
    <glyph glyph-name="Scaron" unicode="&#x160;" horiz-adv-x="644" 
d="M407 721h-164l-111 167h126l67 -88l67 88h126zM491.5 642q66.5 -28 123.5 -91l-97 -112q-33 50 -77.5 73.5t-106.5 23.5q-52 0 -80 -18t-28 -48q0 -25 29.5 -40.5t100.5 -28.5q137 -25 195.5 -73t58.5 -135q0 -63 -36 -109t-99.5 -70t-143.5 -24q-112 0 -182 27.5
t-121 84.5l88 120q39 -54 88 -76t118 -22q55 0 82.5 15.5t27.5 44.5q0 23 -29.5 37.5t-98.5 27.5q-85 17 -140.5 40.5t-86 63.5t-30.5 102t33.5 111t98 76.5t152.5 27.5q94 0 160.5 -28z" />
    <glyph glyph-name="uni1E9E" unicode="&#x1e9e;" horiz-adv-x="719" 
d="M645 313.5q51 -43.5 51 -126.5q0 -91 -59.5 -141.5t-155.5 -50.5q-130 0 -183 58l46 100q38 -35 102 -35q40 0 64.5 20.5t24.5 54.5q0 36 -26.5 55t-73.5 19h-88v96l147 167h-119q-60 0 -95 -36.5t-35 -99.5v-394h-172v419q0 74 33 128.5t94.5 83.5t144.5 29h313v-128
l-150 -169q86 -6 137 -49.5z" />
    <glyph glyph-name="T" unicode="T" horiz-adv-x="653" 
d="M628 527h-215v-527h-172v527h-216v133h603v-133z" />
    <glyph glyph-name="Tcaron" unicode="&#x164;" horiz-adv-x="653" 
d="M241 721l-111 167h126l67 -88l67 88h126l-111 -167h-164zM628 527h-215v-527h-172v527h-216v133h603v-133z" />
    <glyph glyph-name="U" unicode="U" horiz-adv-x="713" 
d="M651 269q0 -139 -74 -209t-221 -70q-146 0 -220.5 70t-74.5 209v391h173v-394q0 -71 30 -106t92 -35q124 0 124 141v394h171v-391z" />
    <glyph glyph-name="Uacute" unicode="&#xda;" horiz-adv-x="713" 
d="M501 882l-92 -159h-124l55 159h161zM651 269q0 -139 -74 -209t-221 -70q-146 0 -220.5 70t-74.5 209v391h173v-394q0 -71 30 -106t92 -35q124 0 124 141v394h171v-391z" />
    <glyph glyph-name="Ucircumflex" unicode="&#xdb;" horiz-adv-x="713" 
d="M423 719l-67 88l-67 -88h-126l111 167h164l111 -167h-126zM651 269q0 -139 -74 -209t-221 -70q-146 0 -220.5 70t-74.5 209v391h173v-394q0 -71 30 -106t92 -35q124 0 124 141v394h171v-391z" />
    <glyph glyph-name="Udieresis" unicode="&#xdc;" horiz-adv-x="713" 
d="M651 269q0 -139 -74 -209t-221 -70q-146 0 -220.5 70t-74.5 209v391h173v-394q0 -71 30 -106t92 -35q124 0 124 141v394h171v-391zM308 849.5q23 -20.5 23 -56.5t-23 -56.5t-63 -20.5q-39 0 -61.5 20.5t-22.5 56.5t22.5 56.5t61.5 20.5q40 0 63 -20.5zM528 849.5
q23 -20.5 23 -56.5t-23 -56.5t-63 -20.5q-39 0 -61.5 20.5t-22.5 56.5t22.5 56.5t61.5 20.5q40 0 63 -20.5z" />
    <glyph glyph-name="Ugrave" unicode="&#xd9;" horiz-adv-x="713" 
d="M412 723h-124l-92 159h161zM651 269q0 -139 -74 -209t-221 -70q-146 0 -220.5 70t-74.5 209v391h173v-394q0 -71 30 -106t92 -35q124 0 124 141v394h171v-391z" />
    <glyph glyph-name="Uhungarumlaut" unicode="&#x170;" horiz-adv-x="713" 
d="M393 883l-92 -160h-124l55 160h161zM615 882l-92 -159h-124l54 159h162zM651 269q0 -139 -74 -209t-221 -70q-146 0 -220.5 70t-74.5 209v391h173v-394q0 -71 30 -106t92 -35q124 0 124 141v394h171v-391z" />
    <glyph glyph-name="Umacron" unicode="&#x16a;" horiz-adv-x="713" 
d="M651 269q0 -139 -74 -209t-221 -70q-146 0 -220.5 70t-74.5 209v391h173v-394q0 -71 30 -106t92 -35q124 0 124 141v394h171v-391zM542 729h-372v105h372v-105z" />
    <glyph glyph-name="Uogonek" unicode="&#x172;" horiz-adv-x="713" 
d="M651 660v-391q0 -232 -204 -271q-40 -16 -57.5 -34t-17.5 -40q0 -20 15 -32t40 -12q30 0 46 10l22 -82q-37 -23 -103 -23q-62 0 -100.5 28.5t-38.5 82.5q0 60 53 96q-121 12 -183 81.5t-62 195.5v391h173v-394q0 -71 30 -106t92 -35q124 0 124 141v394h171z" />
    <glyph glyph-name="Uring" unicode="&#x16e;" horiz-adv-x="713" 
d="M651 269q0 -139 -74 -209t-221 -70q-146 0 -220.5 70t-74.5 209v391h173v-394q0 -71 30 -106t92 -35q124 0 124 141v394h171v-391zM455.5 868.5q35.5 -32.5 35.5 -88.5t-35.5 -88.5t-98.5 -32.5t-99 32.5t-36 88.5t36 88.5t99 32.5t98.5 -32.5zM318.5 817
q-14.5 -14 -14.5 -37t14.5 -37t38.5 -14q23 0 37.5 14t14.5 37t-14.5 37t-37.5 14q-24 0 -38.5 -14z" />
    <glyph glyph-name="V" unicode="V" horiz-adv-x="683" 
d="M443 0h-202l-235 660h181l121 -399l36 -130l35 128l123 401h175z" />
    <glyph glyph-name="W" unicode="W" horiz-adv-x="997" 
d="M393 0h-193l-190 660h185l109 -525l119 525h156l121 -524l109 524h178l-191 -660h-187l-78 320l-30 161h-2l-29 -161z" />
    <glyph glyph-name="X" unicode="X" horiz-adv-x="663" 
d="M450 0l-124 217l-120 -217h-195l224 332l-211 328h203l114 -210l114 210h186l-211 -323l225 -337h-205z" />
    <glyph glyph-name="Y" unicode="Y" horiz-adv-x="657" 
d="M414 241v-241h-172v241l-233 419h178l93 -181l49 -110l50 110l93 181h175z" />
    <glyph glyph-name="Yacute" unicode="&#xdd;" horiz-adv-x="657" 
d="M472 882l-92 -159h-124l55 159h161zM414 241v-241h-172v241l-233 419h178l93 -181l49 -110l50 110l93 181h175z" />
    <glyph glyph-name="Ydieresis" unicode="&#x178;" horiz-adv-x="657" 
d="M414 241v-241h-172v241l-233 419h178l93 -181l49 -110l50 110l93 181h175zM280 849.5q23 -20.5 23 -56.5t-23 -56.5t-63 -20.5q-39 0 -61.5 20.5t-22.5 56.5t22.5 56.5t61.5 20.5q40 0 63 -20.5zM500 849.5q23 -20.5 23 -56.5t-23 -56.5t-63 -20.5q-39 0 -61.5 20.5
t-22.5 56.5t22.5 56.5t61.5 20.5q40 0 63 -20.5z" />
    <glyph glyph-name="Z" unicode="Z" horiz-adv-x="634" 
d="M603 130v-130h-566v124l369 406h-362v130h547v-124l-367 -406h379z" />
    <glyph glyph-name="Zacute" unicode="&#x179;" horiz-adv-x="634" 
d="M372 723h-124l55 159h161zM603 130v-130h-566v124l369 406h-362v130h547v-124l-367 -406h379z" />
    <glyph glyph-name="Zcaron" unicode="&#x17d;" horiz-adv-x="634" 
d="M234 721l-111 167h126l67 -88l67 88h126l-111 -167h-164zM603 130v-130h-566v124l369 406h-362v130h547v-124l-367 -406h379z" />
    <glyph glyph-name="Zdotaccent" unicode="&#x17b;" horiz-adv-x="634" 
d="M603 130v-130h-566v124l369 406h-362v130h547v-124l-367 -406h379zM389.5 861.5q23.5 -20.5 23.5 -59.5q0 -40 -23.5 -60.5t-69.5 -20.5q-44 0 -67.5 20.5t-23.5 60.5q0 39 23.5 59.5t67.5 20.5q46 0 69.5 -20.5z" />
    <glyph glyph-name="uni0122" unicode="&#x122;" horiz-adv-x="723" 
d="M665 357v-357h-120l-5 78q-57 -88 -189 -88q-90 0 -159.5 39.5t-108.5 116t-39 183.5q0 106 40 182.5t114 117.5t175 41q113 0 182 -40t109 -129l-159 -63q-12 49 -45 73t-82 24q-76 0 -116.5 -52t-40.5 -153q0 -208 162 -208q61 0 98.5 28t37.5 81v10h-164v116h310z
M395 -241h-110l32 181h149z" />
    <glyph glyph-name="uni0136" unicode="&#x136;" horiz-adv-x="693" 
d="M325 283l-80 -97v-186h-172v660h172v-293l236 293h191l-224 -268l236 -392h-195zM369 -241h-110l32 181h149z" />
    <glyph glyph-name="uni013B" unicode="&#x13b;" horiz-adv-x="602" 
d="M576 133v-133h-503v660h172v-527h331zM342 -241h-110l32 181h149z" />
    <glyph glyph-name="uni0145" unicode="&#x145;" horiz-adv-x="741" 
d="M668 0h-191l-205 357l-50 100h-1l4 -124v-333h-152v660h191l205 -357l50 -100h1l-4 124v333h152v-660zM390 -241h-110l32 181h149z" />
    <glyph glyph-name="uni0156" unicode="&#x156;" horiz-adv-x="689" 
d="M345 241h-103v-241h-169v660h315q120 0 184.5 -54t64.5 -156q0 -72 -33 -120t-96 -71l168 -259h-190zM242 363h117q55 0 80 20t25 64q0 43 -25 63t-80 20h-117v-167zM370 -241h-110l32 181h149z" />
    <glyph glyph-name="uni015E" unicode="&#x15e;" horiz-adv-x="644" 
d="M551.5 328q58.5 -48 58.5 -135q0 -78 -55 -130t-147 -67q52 -38 52 -93q0 -57 -39 -87.5t-104 -30.5q-81 0 -124 40l39 79q28 -28 72 -28q25 0 40 13t15 36q0 22 -15 37.5t-53 28.5q-94 4 -155 31.5t-108 79.5l88 120q39 -54 88 -76t118 -22q55 0 82.5 15.5t27.5 44.5
q0 23 -29.5 37.5t-98.5 27.5q-85 17 -140.5 40.5t-86 63.5t-30.5 102t33.5 111t98 76.5t152.5 27.5q94 0 160.5 -28t123.5 -91l-97 -112q-33 50 -77.5 73.5t-106.5 23.5q-52 0 -80 -18t-28 -48q0 -25 29.5 -40.5t100.5 -28.5q137 -25 195.5 -73z" />
    <glyph glyph-name="uni0162" unicode="&#x162;" horiz-adv-x="653" 
d="M413 527v-525q49 -34 49 -95q0 -60 -39.5 -91t-104.5 -31q-84 0 -127 41l45 82q13 -15 29 -23t39 -8q24 0 40 14t16 40q0 25 -18.5 40.5t-57.5 28.5h-43v527h-216v133h603v-133h-215z" />
    <glyph glyph-name="uni0218" unicode="&#x218;" horiz-adv-x="644" 
d="M491.5 642q66.5 -28 123.5 -91l-97 -112q-33 50 -77.5 73.5t-106.5 23.5q-52 0 -80 -18t-28 -48q0 -25 29.5 -40.5t100.5 -28.5q137 -25 195.5 -73t58.5 -135q0 -63 -36 -109t-99.5 -70t-143.5 -24q-112 0 -182 27.5t-121 84.5l88 120q39 -54 88 -76t118 -22
q55 0 82.5 15.5t27.5 44.5q0 23 -29.5 37.5t-98.5 27.5q-85 17 -140.5 40.5t-86 63.5t-30.5 102t33.5 111t98 76.5t152.5 27.5q94 0 160.5 -28zM353 -241h-110l32 181h149z" />
    <glyph glyph-name="uni021A" unicode="&#x21a;" horiz-adv-x="653" 
d="M628 527h-215v-527h-172v527h-216v133h603v-133zM329 -241h-110l32 181h149z" />
    <glyph glyph-name="E.swsh.001" horiz-adv-x="831" 
d="M778 317q43 -48 43 -123q0 -99 -58 -146.5t-162 -47.5h-528v660h549v-133h-377v-138h204v-124h-204v-132h331q50 0 73.5 16t23.5 50q0 65 -76 71l57 106q81 -11 124 -59z" />
    <glyph glyph-name="Eacute.swsh.001" horiz-adv-x="831" 
d="M386 723h-124l55 159h161zM778 317q43 -48 43 -123q0 -99 -58 -146.5t-162 -47.5h-528v660h549v-133h-377v-138h204v-124h-204v-132h331q50 0 73.5 16t23.5 50q0 65 -76 71l57 106q81 -11 124 -59z" />
    <glyph glyph-name="Ecaron.swsh.001" horiz-adv-x="831" 
d="M248 721l-111 167h126l67 -88l67 88h126l-111 -167h-164zM778 317q43 -48 43 -123q0 -99 -58 -146.5t-162 -47.5h-528v660h549v-133h-377v-138h204v-124h-204v-132h331q50 0 73.5 16t23.5 50q0 65 -76 71l57 106q81 -11 124 -59z" />
    <glyph glyph-name="Ecircumflex.swsh.001" horiz-adv-x="831" 
d="M267 719h-126l111 167h164l111 -167h-126l-67 88zM778 317q43 -48 43 -123q0 -99 -58 -146.5t-162 -47.5h-528v660h549v-133h-377v-138h204v-124h-204v-132h331q50 0 73.5 16t23.5 50q0 65 -76 71l57 106q81 -11 124 -59z" />
    <glyph glyph-name="Edieresis.swsh.001" horiz-adv-x="831" 
d="M778 317q43 -48 43 -123q0 -99 -58 -146.5t-162 -47.5h-528v660h549v-133h-377v-138h204v-124h-204v-132h331q50 0 73.5 16t23.5 50q0 65 -76 71l57 106q81 -11 124 -59zM286 849.5q23 -20.5 23 -56.5t-23 -56.5t-63 -20.5q-39 0 -61.5 20.5t-22.5 56.5t22.5 56.5
t61.5 20.5q40 0 63 -20.5zM506 849.5q23 -20.5 23 -56.5t-23 -56.5t-63 -20.5q-39 0 -61.5 20.5t-22.5 56.5t22.5 56.5t61.5 20.5q40 0 63 -20.5z" />
    <glyph glyph-name="Edotaccent.swsh.001" horiz-adv-x="831" 
d="M778 317q43 -48 43 -123q0 -99 -58 -146.5t-162 -47.5h-528v660h549v-133h-377v-138h204v-124h-204v-132h331q50 0 73.5 16t23.5 50q0 65 -76 71l57 106q81 -11 124 -59zM403.5 861.5q23.5 -20.5 23.5 -59.5q0 -40 -23.5 -60.5t-69.5 -20.5q-44 0 -67.5 20.5t-23.5 60.5
q0 39 23.5 59.5t67.5 20.5q46 0 69.5 -20.5z" />
    <glyph glyph-name="Egrave.swsh.001" horiz-adv-x="831" 
d="M266 723l-92 159h161l55 -159h-124zM778 317q43 -48 43 -123q0 -99 -58 -146.5t-162 -47.5h-528v660h549v-133h-377v-138h204v-124h-204v-132h331q50 0 73.5 16t23.5 50q0 65 -76 71l57 106q81 -11 124 -59z" />
    <glyph glyph-name="Emacron.swsh.001" horiz-adv-x="831" 
d="M778 317q43 -48 43 -123q0 -99 -58 -146.5t-162 -47.5h-528v660h549v-133h-377v-138h204v-124h-204v-132h331q50 0 73.5 16t23.5 50q0 65 -76 71l57 106q81 -11 124 -59zM520 729h-372v105h372v-105z" />
    <glyph glyph-name="M.swsh.001" horiz-adv-x="1158" 
d="M1085 660v-660h-152v303l5 203h-2l-164 -506h-138l-163 506h-3l6 -203v-303h-153v534h-60q-47 0 -72 -22t-25 -61q0 -35 24 -59t66 -28l-50 -116q-86 6 -140 61t-54 145q0 98 63 152t181 54h312l103 -336l38 -140h2l38 139l103 337h235z" />
    <glyph glyph-name="R.swsh.001" horiz-adv-x="743" 
d="M661.5 40.5q40.5 -30.5 81.5 -38.5l-94 -98q-65 16 -105 45.5t-72 75.5l-151 216h-79v-241h-169v660h315q120 0 184.5 -54t64.5 -156q0 -78 -38.5 -128t-112.5 -70l100 -134q35 -47 75.5 -77.5zM242 363h117q55 0 80 20t25 64q0 43 -25 63t-80 20h-117v-167z" />
    <glyph glyph-name="Racute.swsh.001" horiz-adv-x="743" 
d="M381 723h-124l55 159h161zM661.5 40.5q40.5 -30.5 81.5 -38.5l-94 -98q-65 16 -105 45.5t-72 75.5l-151 216h-79v-241h-169v660h315q120 0 184.5 -54t64.5 -156q0 -78 -38.5 -128t-112.5 -70l100 -134q35 -47 75.5 -77.5zM242 363h117q55 0 80 20t25 64q0 43 -25 63
t-80 20h-117v-167z" />
    <glyph glyph-name="Rcaron.swsh.001" horiz-adv-x="743" 
d="M244 721l-111 167h126l67 -88l67 88h126l-111 -167h-164zM661.5 40.5q40.5 -30.5 81.5 -38.5l-94 -98q-65 16 -105 45.5t-72 75.5l-151 216h-79v-241h-169v660h315q120 0 184.5 -54t64.5 -156q0 -78 -38.5 -128t-112.5 -70l100 -134q35 -47 75.5 -77.5zM242 363h117
q55 0 80 20t25 64q0 43 -25 63t-80 20h-117v-167z" />
    <glyph glyph-name="Rcommaaccent.swsh.001" horiz-adv-x="743" 
d="M661.5 40.5q40.5 -30.5 81.5 -38.5l-94 -98q-65 16 -105 45.5t-72 75.5l-151 216h-79v-241h-169v660h315q120 0 184.5 -54t64.5 -156q0 -78 -38.5 -128t-112.5 -70l100 -134q35 -47 75.5 -77.5zM242 363h117q55 0 80 20t25 64q0 43 -25 63t-80 20h-117v-167zM370 -241
h-110l32 181h149z" />
    <glyph glyph-name="Iacute_J.loclNLD" horiz-adv-x="939" 
d="M303 882l-92 -159h-124l55 159h161zM944 882l-92 -159h-124l55 159h161zM245 0h-172v660h172v-660zM877 254q0 -125 -72.5 -194.5t-205.5 -69.5q-124 0 -187.5 56t-63.5 153q0 29 6 62l170 30q-5 -38 -5 -62q0 -55 21.5 -79.5t66.5 -24.5q53 0 75.5 35t22.5 112v388h172
v-406z" />
    <glyph glyph-name="R.ss03" horiz-adv-x="685" 
d="M73 660h315q119 0 184 -53t65 -151q0 -132 -129 -169v-2q92 -21 102 -114q9 -74 16 -108t21 -59v-4h-180q-7 17 -11 41t-7 53l-8 60q-6 46 -32.5 66.5t-79.5 20.5h-87v-241h-169v660zM359 363q55 0 80 20t25 64q0 43 -25 63t-80 20h-117v-167h117z" />
    <glyph glyph-name="Racute.ss03" horiz-adv-x="685" 
d="M473 882l-92 -159h-124l55 159h161zM73 660h315q119 0 184 -53t65 -151q0 -132 -129 -169v-2q92 -21 102 -114q9 -74 16 -108t21 -59v-4h-180q-7 17 -11 41t-7 53l-8 60q-6 46 -32.5 66.5t-79.5 20.5h-87v-241h-169v660zM359 363q55 0 80 20t25 64q0 43 -25 63t-80 20
h-117v-167h117z" />
    <glyph glyph-name="Rcaron.ss03" horiz-adv-x="685" 
d="M408 721h-164l-111 167h126l67 -88l67 88h126zM73 660h315q119 0 184 -53t65 -151q0 -132 -129 -169v-2q92 -21 102 -114q9 -74 16 -108t21 -59v-4h-180q-7 17 -11 41t-7 53l-8 60q-6 46 -32.5 66.5t-79.5 20.5h-87v-241h-169v660zM359 363q55 0 80 20t25 64q0 43 -25 63
t-80 20h-117v-167h117z" />
    <glyph glyph-name="Rcommaaccent.ss03" horiz-adv-x="685" 
d="M73 660h315q119 0 184 -53t65 -151q0 -132 -129 -169v-2q92 -21 102 -114q9 -74 16 -108t21 -59v-4h-180q-7 17 -11 41t-7 53l-8 60q-6 46 -32.5 66.5t-79.5 20.5h-87v-241h-169v660zM359 363q55 0 80 20t25 64q0 43 -25 63t-80 20h-117v-167h117zM370 -241h-110l32 181
h149z" />
    <glyph glyph-name="G.ss04" horiz-adv-x="723" 
d="M675 358v-81q0 -143 -81 -215t-224 -72q-98 0 -171.5 39.5t-113.5 115.5t-40 184q0 106 39.5 182.5t113.5 117.5t175 41q113 0 182 -40t108 -129l-159 -63q-25 97 -130 97q-71 0 -112 -53t-41 -152q0 -105 41 -155t125 -50q68 0 104.5 34.5t36.5 80.5v7h-161v111h308z
" />
    <glyph glyph-name="Gbreve.ss04" horiz-adv-x="723" 
d="M675 358v-81q0 -143 -81 -215t-224 -72q-98 0 -171.5 39.5t-113.5 115.5t-40 184q0 106 39.5 182.5t113.5 117.5t175 41q113 0 182 -40t108 -129l-159 -63q-25 97 -130 97q-71 0 -112 -53t-41 -152q0 -105 41 -155t125 -50q68 0 104.5 34.5t36.5 80.5v7h-161v111h308z
M492 758.5q-45 -43.5 -124 -43.5t-124 43.5t-45 119.5h110q0 -31 16 -49.5t43 -18.5t43 18.5t16 49.5h110q0 -76 -45 -119.5z" />
    <glyph glyph-name="Gcommaaccent.ss04" horiz-adv-x="723" 
d="M675 358v-81q0 -143 -81 -215t-224 -72q-98 0 -171.5 39.5t-113.5 115.5t-40 184q0 106 39.5 182.5t113.5 117.5t175 41q113 0 182 -40t108 -129l-159 -63q-25 97 -130 97q-71 0 -112 -53t-41 -152q0 -105 41 -155t125 -50q68 0 104.5 34.5t36.5 80.5v7h-161v111h308z
M396 -241h-110l32 181h149z" />
    <glyph glyph-name="IJ.ss05" horiz-adv-x="662" 
d="M601 254q0 -124 -72.5 -194t-198.5 -70q-123 0 -190 50.5t-67 147.5q0 24 2 37h171q-2 -16 -2 -23q0 -38 23.5 -57.5t66.5 -19.5q95 0 95 132v403h172v-406zM245 290h-172v370h172v-370z" />
    <glyph glyph-name="Iacute_J.loclNLD.ss05" horiz-adv-x="650" 
d="M291 882l-92 -159h-123l54 159h161zM656 882l-92 -159h-124l54 159h162zM589 254q0 -124 -72.5 -194t-198.5 -70q-123 0 -190 50.5t-67 148.5q0 23 2 36h171q-1 -8 -1 -21q0 -79 89 -79q95 0 95 132v403h172v-406zM233 290h-172v370h172v-370z" />
    <glyph glyph-name="A.swsh" horiz-adv-x="899" 
d="M673 149h-235l-24 -70q-30 -96 -89 -142.5t-164 -46.5q-69 0 -115 23t-61 68l57 109q17 -41 42 -56.5t67 -15.5q45 0 73 29t53 100l136 387h-115q-47 0 -71.5 -22t-24.5 -61q0 -35 24 -59t66 -28l-51 -116q-86 6 -139.5 61t-53.5 145q0 98 63 152t180 54h373l231 -660
h-177zM637 266l-48 158l-29 104h-2l-27 -103l-54 -159h160z" />
    <glyph glyph-name="Aacute.swsh" horiz-adv-x="899" 
d="M613 723h-124l55 159h161zM673 149h-235l-24 -70q-30 -96 -89 -142.5t-164 -46.5q-69 0 -115 23t-61 68l57 109q17 -41 42 -56.5t67 -15.5q45 0 73 29t53 100l136 387h-115q-47 0 -71.5 -22t-24.5 -61q0 -35 24 -59t66 -28l-51 -116q-86 6 -139.5 61t-53.5 145
q0 98 63 152t180 54h373l231 -660h-177zM637 266l-48 158l-29 104h-2l-27 -103l-54 -159h160z" />
    <glyph glyph-name="Abreve.swsh" horiz-adv-x="899" 
d="M673 149h-235l-24 -70q-30 -96 -89 -142.5t-164 -46.5q-69 0 -115 23t-61 68l57 109q17 -41 42 -56.5t67 -15.5q45 0 73 29t53 100l136 387h-115q-47 0 -71.5 -22t-24.5 -61q0 -35 24 -59t66 -28l-51 -116q-86 6 -139.5 61t-53.5 145q0 98 63 152t180 54h373l231 -660
h-177zM637 266l-48 158l-29 104h-2l-27 -103l-54 -159h160zM684 758.5q-45 -43.5 -124 -43.5t-124 43.5t-45 119.5h110q0 -31 16 -49.5t43 -18.5t43 18.5t16 49.5h110q0 -76 -45 -119.5z" />
    <glyph glyph-name="Acircumflex.swsh" horiz-adv-x="899" 
d="M493 719h-126l111 167h164l111 -167h-126l-67 88zM673 149h-235l-24 -70q-30 -96 -89 -142.5t-164 -46.5q-69 0 -115 23t-61 68l57 109q17 -41 42 -56.5t67 -15.5q45 0 73 29t53 100l136 387h-115q-47 0 -71.5 -22t-24.5 -61q0 -35 24 -59t66 -28l-51 -116
q-86 6 -139.5 61t-53.5 145q0 98 63 152t180 54h373l231 -660h-177zM637 266l-48 158l-29 104h-2l-27 -103l-54 -159h160z" />
    <glyph glyph-name="Adieresis.swsh" horiz-adv-x="899" 
d="M673 149h-235l-24 -70q-30 -96 -89 -142.5t-164 -46.5q-69 0 -115 23t-61 68l57 109q17 -41 42 -56.5t67 -15.5q45 0 73 29t53 100l136 387h-115q-47 0 -71.5 -22t-24.5 -61q0 -35 24 -59t66 -28l-51 -116q-86 6 -139.5 61t-53.5 145q0 98 63 152t180 54h373l231 -660
h-177zM637 266l-48 158l-29 104h-2l-27 -103l-54 -159h160zM512 849.5q23 -20.5 23 -56.5t-23 -56.5t-63 -20.5q-39 0 -61.5 20.5t-22.5 56.5t22.5 56.5t61.5 20.5q40 0 63 -20.5zM732 849.5q23 -20.5 23 -56.5t-23 -56.5t-63 -20.5q-39 0 -61.5 20.5t-22.5 56.5t22.5 56.5
t61.5 20.5q40 0 63 -20.5z" />
    <glyph glyph-name="Agrave.swsh" horiz-adv-x="899" 
d="M492 723l-92 159h161l55 -159h-124zM673 149h-235l-24 -70q-30 -96 -89 -142.5t-164 -46.5q-69 0 -115 23t-61 68l57 109q17 -41 42 -56.5t67 -15.5q45 0 73 29t53 100l136 387h-115q-47 0 -71.5 -22t-24.5 -61q0 -35 24 -59t66 -28l-51 -116q-86 6 -139.5 61t-53.5 145
q0 98 63 152t180 54h373l231 -660h-177zM637 266l-48 158l-29 104h-2l-27 -103l-54 -159h160z" />
    <glyph glyph-name="Amacron.swsh" horiz-adv-x="899" 
d="M673 149h-235l-24 -70q-30 -96 -89 -142.5t-164 -46.5q-69 0 -115 23t-61 68l57 109q17 -41 42 -56.5t67 -15.5q45 0 73 29t53 100l136 387h-115q-47 0 -71.5 -22t-24.5 -61q0 -35 24 -59t66 -28l-51 -116q-86 6 -139.5 61t-53.5 145q0 98 63 152t180 54h373l231 -660
h-177zM637 266l-48 158l-29 104h-2l-27 -103l-54 -159h160zM746 729h-372v105h372v-105z" />
    <glyph glyph-name="Aogonek.swsh" horiz-adv-x="899" 
d="M902 -192q-37 -23 -104 -23q-62 0 -100 29t-38 84q0 67 63 102h-5l-45 149h-235l-24 -70q-30 -96 -89 -142.5t-164 -46.5q-69 0 -115 23t-61 68l57 109q17 -41 42 -56.5t67 -15.5q45 0 73 29t53 100l136 387h-115q-47 0 -71.5 -22t-24.5 -61q0 -35 24 -59t66 -28
l-51 -116q-86 6 -139.5 61t-53.5 145q0 98 63 152t180 54h373l231 -660q-65 -11 -91 -30t-26 -46q0 -21 14.5 -32.5t40.5 -11.5q31 0 46 10zM637 266l-48 158l-29 104h-2l-27 -103l-54 -159h160z" />
    <glyph glyph-name="Atilde.swsh" horiz-adv-x="899" 
d="M673 149h-235l-24 -70q-30 -96 -89 -142.5t-164 -46.5q-69 0 -115 23t-61 68l57 109q17 -41 42 -56.5t67 -15.5q45 0 73 29t53 100l136 387h-115q-47 0 -71.5 -22t-24.5 -61q0 -35 24 -59t66 -28l-51 -116q-86 6 -139.5 61t-53.5 145q0 98 63 152t180 54h373l231 -660
h-177zM637 266l-48 158l-29 104h-2l-27 -103l-54 -159h160zM626 719q-30 0 -48.5 9t-39.5 26q-13 11 -22.5 16.5t-20.5 5.5q-16 0 -25 -14t-12 -42h-96q6 159 132 159q30 0 48.5 -9.5t40.5 -26.5q15 -12 22.5 -16.5t18.5 -4.5q17 0 26 14t12 42h96q-6 -159 -132 -159z" />
    <glyph glyph-name="E.swsh" horiz-adv-x="894" 
d="M863 133v-133h-527v534h-75q-47 0 -72 -22t-25 -61q0 -35 24 -59t66 -28l-50 -116q-86 6 -140 61t-54 145q0 98 63 152t181 54h596v-133h-342v-134h271v-125h-271v-135h355z" />
    <glyph glyph-name="Eacute.swsh" horiz-adv-x="894" 
d="M638 723h-124l55 159h161zM863 133v-133h-527v534h-75q-47 0 -72 -22t-25 -61q0 -35 24 -59t66 -28l-50 -116q-86 6 -140 61t-54 145q0 98 63 152t181 54h596v-133h-342v-134h271v-125h-271v-135h355z" />
    <glyph glyph-name="Ecaron.swsh" horiz-adv-x="894" 
d="M501 721l-111 167h126l67 -88l67 88h126l-111 -167h-164zM863 133v-133h-527v534h-75q-47 0 -72 -22t-25 -61q0 -35 24 -59t66 -28l-50 -116q-86 6 -140 61t-54 145q0 98 63 152t181 54h596v-133h-342v-134h271v-125h-271v-135h355z" />
    <glyph glyph-name="Ecircumflex.swsh" horiz-adv-x="894" 
d="M519 719h-126l111 167h164l111 -167h-126l-67 88zM863 133v-133h-527v534h-75q-47 0 -72 -22t-25 -61q0 -35 24 -59t66 -28l-50 -116q-86 6 -140 61t-54 145q0 98 63 152t181 54h596v-133h-342v-134h271v-125h-271v-135h355z" />
    <glyph glyph-name="Edieresis.swsh" horiz-adv-x="894" 
d="M863 133v-133h-527v534h-75q-47 0 -72 -22t-25 -61q0 -35 24 -59t66 -28l-50 -116q-86 6 -140 61t-54 145q0 98 63 152t181 54h596v-133h-342v-134h271v-125h-271v-135h355zM538 849.5q23 -20.5 23 -56.5t-23 -56.5t-63 -20.5q-39 0 -61.5 20.5t-22.5 56.5t22.5 56.5
t61.5 20.5q40 0 63 -20.5zM758 849.5q23 -20.5 23 -56.5t-23 -56.5t-63 -20.5q-39 0 -61.5 20.5t-22.5 56.5t22.5 56.5t61.5 20.5q40 0 63 -20.5z" />
    <glyph glyph-name="Edotaccent.swsh" horiz-adv-x="894" 
d="M863 133v-133h-527v534h-75q-47 0 -72 -22t-25 -61q0 -35 24 -59t66 -28l-50 -116q-86 6 -140 61t-54 145q0 98 63 152t181 54h596v-133h-342v-134h271v-125h-271v-135h355zM655.5 861.5q23.5 -20.5 23.5 -59.5q0 -40 -23.5 -60.5t-69.5 -20.5q-44 0 -67.5 20.5
t-23.5 60.5q0 39 23.5 59.5t67.5 20.5q46 0 69.5 -20.5z" />
    <glyph glyph-name="Egrave.swsh" horiz-adv-x="894" 
d="M518 723l-92 159h161l55 -159h-124zM863 133v-133h-527v534h-75q-47 0 -72 -22t-25 -61q0 -35 24 -59t66 -28l-50 -116q-86 6 -140 61t-54 145q0 98 63 152t181 54h596v-133h-342v-134h271v-125h-271v-135h355z" />
    <glyph glyph-name="Emacron.swsh" horiz-adv-x="894" 
d="M863 133v-133h-527v534h-75q-47 0 -72 -22t-25 -61q0 -35 24 -59t66 -28l-50 -116q-86 6 -140 61t-54 145q0 98 63 152t181 54h596v-133h-342v-134h271v-125h-271v-135h355zM772 729h-372v105h372v-105z" />
    <glyph glyph-name="Eogonek.swsh" horiz-adv-x="894" 
d="M871 -192q-37 -23 -104 -23q-62 0 -100.5 28.5t-38.5 82.5q0 69 79 104h-371v534h-75q-47 0 -72 -22t-25 -61q0 -35 24 -59t66 -28l-50 -116q-86 6 -140 61t-54 145q0 98 63 152t181 54h596v-133h-342v-134h271v-125h-271v-135h355v-132l1 -1q-65 -12 -91 -30.5
t-26 -45.5q0 -21 14.5 -32.5t40.5 -11.5q31 0 46 10z" />
    <glyph glyph-name="F.swsh" horiz-adv-x="860" 
d="M493 527v-140h271v-133h-271v-254h-172v534h-60q-47 0 -72 -22t-25 -61q0 -35 24 -59t66 -28l-50 -116q-86 6 -140 61t-54 145q0 98 63 152t181 54h580v-133h-341z" />
    <glyph glyph-name="L.swsh" horiz-adv-x="698" 
d="M643 342q45 -57 45 -136q0 -100 -63 -153t-181 -53h-371v660h172v-527h192q102 0 102 76q0 38 -22.5 60t-66.5 23l50 110q98 -3 143 -60z" />
    <glyph glyph-name="Lacute.swsh" horiz-adv-x="698" 
d="M211 723h-124l55 159h161zM643 342q45 -57 45 -136q0 -100 -63 -153t-181 -53h-371v660h172v-527h192q102 0 102 76q0 38 -22.5 60t-66.5 23l50 110q98 -3 143 -60z" />
    <glyph glyph-name="Lcaron.swsh" horiz-adv-x="698" 
d="M237 721h-164l-111 167h126l67 -88l67 88h126zM643 342q45 -57 45 -136q0 -100 -63 -153t-181 -53h-371v660h172v-527h192q102 0 102 76q0 38 -22.5 60t-66.5 23l50 110q98 -3 143 -60z" />
    <glyph glyph-name="Lcommaaccent.swsh" horiz-adv-x="698" 
d="M643 342q45 -57 45 -136q0 -100 -63 -153t-181 -53h-371v660h172v-527h192q102 0 102 76q0 38 -22.5 60t-66.5 23l50 110q98 -3 143 -60zM376 -241h-110l32 181h149z" />
    <glyph glyph-name="Lslash.swsh" horiz-adv-x="740" 
d="M685 342q45 -57 45 -136q0 -100 -63 -153t-181 -53h-371v219l-110 -53v125l110 53v316h172v-234l170 81v-125l-170 -81v-168h192q102 0 102 76q0 38 -22.5 60t-66.5 23l50 110q98 -3 143 -60z" />
    <glyph glyph-name="M.swsh" horiz-adv-x="1158" 
d="M1085 660v-660h-152v303l5 203h-2l-164 -506h-138l-163 506h-3l6 -203v-193q0 -109 -60.5 -164.5t-168.5 -55.5q-76 0 -122.5 25t-72.5 77l63 104q15 -41 42 -60t70 -19q46 0 71 24.5t25 69.5v423h-60q-47 0 -72 -22t-25 -61q0 -35 24 -59t66 -28l-50 -116q-86 6 -140 61
t-54 145q0 98 63 152t181 54h312l103 -336l38 -140h2l38 139l103 337h235z" />
    <glyph glyph-name="N.swsh" horiz-adv-x="814" 
d="M868 702q46 -24 72 -72l-65 -102q-16 38 -40 54.5t-67 16.5q-47 0 -73.5 -29.5t-26.5 -82.5v-487h-191l-205 357l-50 100h-1l4 -124v-333h-152v660h191l205 -357l50 -100h1l-4 124v179q0 109 61.5 164.5t170.5 55.5q74 0 120 -24z" />
    <glyph glyph-name="Nacute.swsh" horiz-adv-x="814" 
d="M424 723h-124l55 159h161zM868 702q46 -24 72 -72l-65 -102q-16 38 -40 54.5t-67 16.5q-47 0 -73.5 -29.5t-26.5 -82.5v-487h-191l-205 357l-50 100h-1l4 -124v-333h-152v660h191l205 -357l50 -100h1l-4 124v179q0 109 61.5 164.5t170.5 55.5q74 0 120 -24z" />
    <glyph glyph-name="Ncaron.swsh" horiz-adv-x="814" 
d="M287 721l-111 167h126l67 -88l67 88h126l-111 -167h-164zM868 702q46 -24 72 -72l-65 -102q-16 38 -40 54.5t-67 16.5q-47 0 -73.5 -29.5t-26.5 -82.5v-487h-191l-205 357l-50 100h-1l4 -124v-333h-152v660h191l205 -357l50 -100h1l-4 124v179q0 109 61.5 164.5
t170.5 55.5q74 0 120 -24z" />
    <glyph glyph-name="Ncommaaccent.swsh" horiz-adv-x="814" 
d="M868 702q46 -24 72 -72l-65 -102q-16 38 -40 54.5t-67 16.5q-47 0 -73.5 -29.5t-26.5 -82.5v-487h-191l-205 357l-50 100h-1l4 -124v-333h-152v660h191l205 -357l50 -100h1l-4 124v179q0 109 61.5 164.5t170.5 55.5q74 0 120 -24zM390 -241h-110l32 181h149z" />
    <glyph glyph-name="Ntilde.swsh" horiz-adv-x="814" 
d="M868 702q46 -24 72 -72l-65 -102q-16 38 -40 54.5t-67 16.5q-47 0 -73.5 -29.5t-26.5 -82.5v-487h-191l-205 357l-50 100h-1l4 -124v-333h-152v660h191l205 -357l50 -100h1l-4 124v179q0 109 61.5 164.5t170.5 55.5q74 0 120 -24zM438 719q-30 0 -48.5 9t-39.5 26
q-13 11 -22.5 16.5t-20.5 5.5q-16 0 -25 -14t-12 -42h-96q6 159 132 159q30 0 48.5 -9.5t40.5 -26.5q15 -12 22.5 -16.5t18.5 -4.5q17 0 26 14t12 42h96q-6 -159 -132 -159z" />
    <glyph glyph-name="R.swsh" horiz-adv-x="937" 
d="M593 241h-103v-125q0 -113 -63.5 -169.5t-175.5 -56.5q-152 0 -201 108l69 98q17 -42 42.5 -60.5t68.5 -18.5q42 0 66.5 27.5t24.5 72.5v417h-60q-47 0 -72 -22t-25 -61q0 -35 24 -59t66 -28l-50 -116q-86 6 -140 61t-54 145q0 98 63 152t181 54h382q120 0 184.5 -54
t64.5 -156q0 -72 -33 -120t-96 -71l167 -259h-189zM490 363h117q55 0 80 20t25 64q0 43 -25 63t-80 20h-117v-167z" />
    <glyph glyph-name="Racute.swsh" horiz-adv-x="937" 
d="M629 723h-124l55 159h161zM593 241h-103v-125q0 -113 -63.5 -169.5t-175.5 -56.5q-152 0 -201 108l69 98q17 -42 42.5 -60.5t68.5 -18.5q42 0 66.5 27.5t24.5 72.5v417h-60q-47 0 -72 -22t-25 -61q0 -35 24 -59t66 -28l-50 -116q-86 6 -140 61t-54 145q0 98 63 152
t181 54h382q120 0 184.5 -54t64.5 -156q0 -72 -33 -120t-96 -71l167 -259h-189zM490 363h117q55 0 80 20t25 64q0 43 -25 63t-80 20h-117v-167z" />
    <glyph glyph-name="Rcaron.swsh" horiz-adv-x="937" 
d="M491 721l-111 167h126l67 -88l67 88h126l-111 -167h-164zM593 241h-103v-125q0 -113 -63.5 -169.5t-175.5 -56.5q-152 0 -201 108l69 98q17 -42 42.5 -60.5t68.5 -18.5q42 0 66.5 27.5t24.5 72.5v417h-60q-47 0 -72 -22t-25 -61q0 -35 24 -59t66 -28l-50 -116
q-86 6 -140 61t-54 145q0 98 63 152t181 54h382q120 0 184.5 -54t64.5 -156q0 -72 -33 -120t-96 -71l167 -259h-189zM490 363h117q55 0 80 20t25 64q0 43 -25 63t-80 20h-117v-167z" />
    <glyph glyph-name="Rcommaaccent.swsh" horiz-adv-x="937" 
d="M593 241h-103v-125q0 -113 -63.5 -169.5t-175.5 -56.5q-152 0 -201 108l69 98q17 -42 42.5 -60.5t68.5 -18.5q42 0 66.5 27.5t24.5 72.5v417h-60q-47 0 -72 -22t-25 -61q0 -35 24 -59t66 -28l-50 -116q-86 6 -140 61t-54 145q0 98 63 152t181 54h382q120 0 184.5 -54
t64.5 -156q0 -72 -33 -120t-96 -71l167 -259h-189zM490 363h117q55 0 80 20t25 64q0 43 -25 63t-80 20h-117v-167zM618 -241h-110l32 181h149z" />
    <glyph glyph-name="S.swsh" horiz-adv-x="644" 
d="M167 -88q-62 22 -95.5 62t-33.5 93q0 29 5 51l151 41q-5 -27 -5 -40q0 -48 33 -71t105 -23q61 0 91.5 22.5t30.5 63.5q0 37 -32.5 59.5t-118.5 40.5q-135 28 -192.5 81t-57.5 148q0 67 34 119t99 81.5t153 29.5q130 0 195.5 -48t70.5 -151l-155 -59q0 123 -114 123
q-50 0 -78 -24.5t-28 -68.5q0 -39 34 -63t120 -44t136.5 -47.5t73 -68t22.5 -100.5q0 -108 -81.5 -168.5t-216.5 -60.5q-84 0 -146 22z" />
    <glyph glyph-name="Sacute.swsh" horiz-adv-x="644" 
d="M473 882l-92 -159h-124l55 159h161zM167 -88q-62 22 -95.5 62t-33.5 93q0 29 5 51l151 41q-5 -27 -5 -40q0 -48 33 -71t105 -23q61 0 91.5 22.5t30.5 63.5q0 37 -32.5 59.5t-118.5 40.5q-135 28 -192.5 81t-57.5 148q0 67 34 119t99 81.5t153 29.5q130 0 195.5 -48
t70.5 -151l-155 -59q0 123 -114 123q-50 0 -78 -24.5t-28 -68.5q0 -39 34 -63t120 -44t136.5 -47.5t73 -68t22.5 -100.5q0 -108 -81.5 -168.5t-216.5 -60.5q-84 0 -146 22z" />
    <glyph glyph-name="Scaron.swsh" horiz-adv-x="644" 
d="M407 721h-164l-111 167h126l67 -88l67 88h126zM167 -88q-62 22 -95.5 62t-33.5 93q0 29 5 51l151 41q-5 -27 -5 -40q0 -48 33 -71t105 -23q61 0 91.5 22.5t30.5 63.5q0 37 -32.5 59.5t-118.5 40.5q-135 28 -192.5 81t-57.5 148q0 67 34 119t99 81.5t153 29.5
q130 0 195.5 -48t70.5 -151l-155 -59q0 123 -114 123q-50 0 -78 -24.5t-28 -68.5q0 -39 34 -63t120 -44t136.5 -47.5t73 -68t22.5 -100.5q0 -108 -81.5 -168.5t-216.5 -60.5q-84 0 -146 22z" />
    <glyph glyph-name="Scedilla.swsh" horiz-adv-x="644" 
d="M549.5 -33q-61.5 -58 -168.5 -73q50 -36 50 -91q0 -57 -39 -87.5t-104 -30.5q-81 0 -124 40l39 79q28 -28 72 -28q25 0 40 13t15 36t-16 39t-58 29q-102 10 -160 56.5t-58 117.5q0 29 5 51l151 41q-5 -27 -5 -40q0 -48 33 -71t105 -23q61 0 91.5 22.5t30.5 63.5
q0 37 -32.5 59.5t-118.5 40.5q-135 28 -192.5 81t-57.5 148q0 67 34 119t99 81.5t153 29.5q130 0 195.5 -48t70.5 -151l-155 -59q0 123 -114 123q-50 0 -78 -24.5t-28 -68.5q0 -39 34 -63t120 -44t136.5 -47.5t73 -68t22.5 -100.5q0 -94 -61.5 -152z" />
    <glyph glyph-name="Scommaaccent.swsh" horiz-adv-x="644" 
d="M167 -88q-62 22 -95.5 62t-33.5 93q0 29 5 51l151 41q-5 -27 -5 -40q0 -48 33 -71t105 -23q61 0 91.5 22.5t30.5 63.5q0 37 -32.5 59.5t-118.5 40.5q-135 28 -192.5 81t-57.5 148q0 67 34 119t99 81.5t153 29.5q130 0 195.5 -48t70.5 -151l-155 -59q0 123 -114 123
q-50 0 -78 -24.5t-28 -68.5q0 -39 34 -63t120 -44t136.5 -47.5t73 -68t22.5 -100.5q0 -108 -81.5 -168.5t-216.5 -60.5q-84 0 -146 22zM323 -341h-110l32 181h149z" />
    <glyph glyph-name="T.swsh" horiz-adv-x="791" 
d="M766 527h-216v-527h-172v527h-111q-50 0 -76.5 -20t-26.5 -56t23 -59.5t67 -27.5l-50 -116q-56 4 -100 30.5t-69 72t-25 103.5q0 98 63 152t181 54h512v-133z" />
    <glyph glyph-name="Tcaron.swsh" horiz-adv-x="791" 
d="M378 721l-111 167h126l67 -88l67 88h126l-111 -167h-164zM766 527h-216v-527h-172v527h-111q-50 0 -76.5 -20t-26.5 -56t23 -59.5t67 -27.5l-50 -116q-56 4 -100 30.5t-69 72t-25 103.5q0 98 63 152t181 54h512v-133z" />
    <glyph glyph-name="uni0162.swsh" horiz-adv-x="791" 
d="M550 527v-525q49 -34 49 -95q0 -60 -39.5 -91t-103.5 -31q-84 0 -128 41l46 82q26 -31 67 -31q24 0 40 14t16 40q0 25 -18 40.5t-58 28.5h-43v527h-111q-50 0 -76.5 -20t-26.5 -56t23 -59.5t67 -27.5l-50 -116q-56 4 -100 30.5t-69 72t-25 103.5q0 98 63 152t181 54h512
v-133h-216z" />
    <glyph glyph-name="uni021A.swsh" horiz-adv-x="791" 
d="M766 527h-216v-527h-172v527h-111q-50 0 -76.5 -20t-26.5 -56t23 -59.5t67 -27.5l-50 -116q-56 4 -100 30.5t-69 72t-25 103.5q0 98 63 152t181 54h512v-133zM467 -241h-110l32 181h149z" />
    <glyph glyph-name="W.swsh" horiz-adv-x="1292" 
d="M1282 660l-190 -660h-188l-78 320l-29 161h-3l-29 -161l-77 -320h-193l-154 534h-77q-50 0 -75 -22t-25 -61q0 -35 24.5 -59t67.5 -28l-52 -116q-56 2 -100 28.5t-69 72.5t-25 105q0 98 63 152t181 54h236l110 -525l118 525h156l121 -524l109 524h178z" />
    <glyph glyph-name="Adieresis.titl" horiz-adv-x="677" 
d="M95.5 540.5q-20.5 18.5 -20.5 51.5t20 51.5t57 18.5q33 0 52 -19l-41 -119q-6 -2 -11 -2q-36 0 -56.5 18.5zM514 524l-41 119q19 19 53 19q36 0 56 -18.5t20 -51.5q0 -32 -20 -51t-56 -19q-6 0 -12 2zM451 149h-228l-46 -149h-173l232 660h206l231 -660h-177zM415 266
l-48 158l-29 104h-2l-27 -103l-50 -159h156z" />
    <glyph glyph-name="Odieresis.titl" horiz-adv-x="737" 
d="M541.5 629.5q72.5 -40.5 111.5 -117t39 -182.5t-39 -182.5t-111.5 -117t-172.5 -40.5t-173 40.5t-112 117t-39 182.5t39 182.5t112 117t173 40.5t172.5 -40.5zM87 553q-26 18 -26 52q0 30 19 47.5t51 17.5q39 0 58 -24q-64 -36 -102 -93zM549 646q18 24 56 24
q34 0 53.5 -17.5t19.5 -47.5q0 -36 -27 -53q-36 55 -102 94zM259 483q-38 -52 -38 -153t38 -153t110 -52t109.5 52t37.5 153t-37.5 153t-109.5 52t-110 -52z" />
    <glyph glyph-name="Udieresis.titl" horiz-adv-x="713" 
d="M306.5 552q-18.5 17 -18.5 48q0 29 18.5 45.5t50.5 16.5t51 -16.5t19 -45.5q0 -31 -19 -48t-51 -16q-32 -1 -50.5 16zM652 269q0 -140 -74.5 -209.5t-220.5 -69.5q-296 0 -296 279v391h173v-394q0 -71 30.5 -106t92.5 -35t92 35t30 106v394h173v-391zM306.5 399
q-18.5 17 -18.5 47q0 29 18.5 46t50.5 17t51 -17t19 -46q0 -30 -19 -47t-51 -17t-50.5 17z" />
    <glyph glyph-name="a" unicode="a" horiz-adv-x="581" 
d="M575 101l-13 -95q-29 -16 -68 -16q-108 0 -129 77q-45 -77 -178 -77q-75 0 -115 32t-40 93q0 64 45.5 103.5t149.5 60.5l113 22v18q0 34 -19 54t-52 20q-38 0 -62 -18t-31 -59l-138 40q13 73 72 113.5t159 40.5q117 0 178 -48t61 -144v-182q0 -39 36 -39q19 0 31 4z
M312 119.5q28 19.5 28 51.5v43l-81 -19q-32 -8 -45.5 -19.5t-13.5 -32.5t13 -32t36 -11q35 0 63 19.5z" />
    <glyph glyph-name="aacute" unicode="&#xe1;" horiz-adv-x="581" 
d="M575 101l-13 -95q-29 -16 -68 -16q-108 0 -129 77q-45 -77 -178 -77q-75 0 -115 32t-40 93q0 64 45.5 103.5t149.5 60.5l113 22v18q0 34 -19 54t-52 20q-38 0 -62 -18t-31 -59l-138 40q13 73 72 113.5t159 40.5q117 0 178 -48t61 -144v-182q0 -39 36 -39q19 0 31 4z
M312 119.5q28 19.5 28 51.5v43l-81 -19q-32 -8 -45.5 -19.5t-13.5 -32.5t13 -32t36 -11q35 0 63 19.5zM424 738l-101 -173h-124l67 173h158z" />
    <glyph glyph-name="abreve" unicode="&#x103;" horiz-adv-x="581" 
d="M575 101l-13 -95q-29 -16 -68 -16q-108 0 -129 77q-45 -77 -178 -77q-75 0 -115 32t-40 93q0 64 45.5 103.5t149.5 60.5l113 22v18q0 34 -19 54t-52 20q-38 0 -62 -18t-31 -59l-138 40q13 73 72 113.5t159 40.5q117 0 178 -48t61 -144v-182q0 -39 36 -39q19 0 31 4z
M312 119.5q28 19.5 28 51.5v43l-81 -19q-32 -8 -45.5 -19.5t-13.5 -32.5t13 -32t36 -11q35 0 63 19.5zM400 598.5q-45 -43.5 -124 -43.5t-124 43.5t-45 119.5h110q0 -31 16 -49.5t43 -18.5t43 18.5t16 49.5h110q0 -76 -45 -119.5z" />
    <glyph glyph-name="acircumflex" unicode="&#xe2;" horiz-adv-x="581" 
d="M575 101l-13 -95q-29 -16 -68 -16q-108 0 -129 77q-45 -77 -178 -77q-75 0 -115 32t-40 93q0 64 45.5 103.5t149.5 60.5l113 22v18q0 34 -19 54t-52 20q-38 0 -62 -18t-31 -59l-138 40q13 73 72 113.5t159 40.5q117 0 178 -48t61 -144v-182q0 -39 36 -39q19 0 31 4z
M312 119.5q28 19.5 28 51.5v43l-81 -19q-32 -8 -45.5 -19.5t-13.5 -32.5t13 -32t36 -11q35 0 63 19.5zM344 559l-68 87l-68 -87h-123l108 173h166l108 -173h-123z" />
    <glyph glyph-name="adieresis" unicode="&#xe4;" horiz-adv-x="581" 
d="M575 101l-13 -95q-29 -16 -68 -16q-108 0 -129 77q-45 -77 -178 -77q-75 0 -115 32t-40 93q0 64 45.5 103.5t149.5 60.5l113 22v18q0 34 -19 54t-52 20q-38 0 -62 -18t-31 -59l-138 40q13 73 72 113.5t159 40.5q117 0 178 -48t61 -144v-182q0 -39 36 -39q19 0 31 4z
M312 119.5q28 19.5 28 51.5v43l-81 -19q-32 -8 -45.5 -19.5t-13.5 -32.5t13 -32t36 -11q35 0 63 19.5zM228 689.5q23 -20.5 23 -56.5t-23 -56.5t-63 -20.5q-39 0 -61.5 20.5t-22.5 56.5t22.5 56.5t61.5 20.5q40 0 63 -20.5zM448 689.5q23 -20.5 23 -56.5t-23 -56.5
t-63 -20.5q-39 0 -61.5 20.5t-22.5 56.5t22.5 56.5t61.5 20.5q40 0 63 -20.5z" />
    <glyph glyph-name="agrave" unicode="&#xe0;" horiz-adv-x="581" 
d="M575 101l-13 -95q-29 -16 -68 -16q-108 0 -129 77q-45 -77 -178 -77q-75 0 -115 32t-40 93q0 64 45.5 103.5t149.5 60.5l113 22v18q0 34 -19 54t-52 20q-38 0 -62 -18t-31 -59l-138 40q13 73 72 113.5t159 40.5q117 0 178 -48t61 -144v-182q0 -39 36 -39q19 0 31 4z
M312 119.5q28 19.5 28 51.5v43l-81 -19q-32 -8 -45.5 -19.5t-13.5 -32.5t13 -32t36 -11q35 0 63 19.5zM343 565h-124l-101 173h158z" />
    <glyph glyph-name="amacron" unicode="&#x101;" horiz-adv-x="581" 
d="M575 101l-13 -95q-29 -16 -68 -16q-108 0 -129 77q-45 -77 -178 -77q-75 0 -115 32t-40 93q0 64 45.5 103.5t149.5 60.5l113 22v18q0 34 -19 54t-52 20q-38 0 -62 -18t-31 -59l-138 40q13 73 72 113.5t159 40.5q117 0 178 -48t61 -144v-182q0 -39 36 -39q19 0 31 4z
M312 119.5q28 19.5 28 51.5v43l-81 -19q-32 -8 -45.5 -19.5t-13.5 -32.5t13 -32t36 -11q35 0 63 19.5zM462 569h-372v105h372v-105z" />
    <glyph glyph-name="aogonek" unicode="&#x105;" horiz-adv-x="581" 
d="M549 -110l23 -82q-37 -23 -102 -23q-62 0 -100 28.5t-38 84.5q0 43 26 72.5t75 44.5q-47 17 -60 68q-19 -44 -65 -68.5t-121 -24.5t-115 32t-40 93q0 64 45.5 103.5t149.5 60.5l113 22v18q0 34 -19 54t-52 20q-38 0 -62 -18t-31 -59l-138 40q13 73 72 113.5t159 40.5
q117 0 178 -48t61 -144v-182q0 -39 36 -39q19 0 31 4l-13 -95q-58 -13 -84.5 -32.5t-26.5 -48.5q0 -21 13.5 -33t38.5 -12q31 0 46 10zM312 119.5q28 19.5 28 51.5v43l-81 -19q-32 -8 -45.5 -19.5t-13.5 -32.5t13 -32t36 -11q35 0 63 19.5z" />
    <glyph glyph-name="aring" unicode="&#xe5;" horiz-adv-x="581" 
d="M575 101l-13 -95q-29 -16 -68 -16q-108 0 -129 77q-45 -77 -178 -77q-75 0 -115 32t-40 93q0 64 45.5 103.5t149.5 60.5l113 22v18q0 34 -19 54t-52 20q-38 0 -62 -18t-31 -59l-138 40q13 73 72 113.5t159 40.5q117 0 178 -48t61 -144v-182q0 -39 36 -39q19 0 31 4z
M312 119.5q28 19.5 28 51.5v43l-81 -19q-32 -8 -45.5 -19.5t-13.5 -32.5t13 -32t36 -11q35 0 63 19.5zM375.5 760.5q35.5 -32.5 35.5 -88.5t-35.5 -88.5t-98.5 -32.5t-99 32.5t-36 88.5t36 88.5t99 32.5t98.5 -32.5zM238.5 709q-14.5 -14 -14.5 -37t14.5 -37t38.5 -14
q23 0 37.5 14t14.5 37t-14.5 37t-37.5 14q-24 0 -38.5 -14z" />
    <glyph glyph-name="atilde" unicode="&#xe3;" horiz-adv-x="581" 
d="M575 101l-13 -95q-29 -16 -68 -16q-108 0 -129 77q-45 -77 -178 -77q-75 0 -115 32t-40 93q0 64 45.5 103.5t149.5 60.5l113 22v18q0 34 -19 54t-52 20q-38 0 -62 -18t-31 -59l-138 40q13 73 72 113.5t159 40.5q117 0 178 -48t61 -144v-182q0 -39 36 -39q19 0 31 4z
M312 119.5q28 19.5 28 51.5v43l-81 -19q-32 -8 -45.5 -19.5t-13.5 -32.5t13 -32t36 -11q35 0 63 19.5zM342 559q-30 0 -48.5 9t-39.5 26q-13 11 -22.5 16.5t-20.5 5.5q-16 0 -25 -14t-12 -42h-96q6 159 132 159q30 0 48.5 -9.5t40.5 -26.5q15 -12 22.5 -16.5t18.5 -4.5
q17 0 26 14t12 42h96q-6 -159 -132 -159z" />
    <glyph glyph-name="ae" unicode="&#xe6;" horiz-adv-x="879" 
d="M838 207h-329q7 -50 34 -73.5t69 -23.5q36 0 55 13.5t28 41.5l137 -44q-21 -65 -79 -98t-146 -33q-131 0 -187 95q-27 -46 -84.5 -70.5t-140.5 -24.5q-80 0 -121.5 33.5t-41.5 90.5q0 63 44.5 99.5t141.5 55.5l125 25v25q0 36 -19.5 55t-57.5 19q-36 0 -57.5 -17.5
t-31.5 -57.5l-138 35q13 74 70.5 115.5t157.5 41.5q57 0 101.5 -19t72.5 -54q29 35 70 54t92 19q114 0 176.5 -66t62.5 -174q0 -33 -4 -63zM508 290h178q-5 50 -24.5 75.5t-59.5 25.5q-81 0 -94 -101zM316.5 113q26.5 22 26.5 63v40l-71 -17q-40 -10 -57 -23.5t-17 -38.5
q0 -46 54 -46q38 0 64.5 22z" />
    <glyph glyph-name="b" unicode="b" horiz-adv-x="628" 
d="M533 441q55 -69 55 -193q0 -122 -54 -190t-152 -68q-59 0 -102.5 31.5t-64.5 84.5l-5 -106h-149v712h170v-296q21 44 59.5 69t91.5 25q96 0 151 -69zM392.5 148q24.5 33 24.5 102t-24.5 102t-69.5 33q-44 0 -68 -34t-24 -96v-10q0 -64 24.5 -97t67.5 -33q45 0 69.5 33z
" />
    <glyph glyph-name="c" unicode="c" horiz-adv-x="571" 
d="M470 467q57 -43 71 -112l-158 -52q-10 86 -77 86q-99 0 -99 -141q0 -137 99 -137q71 0 83 81l153 -49q-11 -68 -72.5 -110.5t-162.5 -42.5q-130 0 -200 68t-70 192q0 123 69.5 191.5t193.5 68.5q113 0 170 -43z" />
    <glyph glyph-name="cacute" unicode="&#x107;" horiz-adv-x="571" 
d="M470 467q57 -43 71 -112l-158 -52q-10 86 -77 86q-99 0 -99 -141q0 -137 99 -137q71 0 83 81l153 -49q-11 -68 -72.5 -110.5t-162.5 -42.5q-130 0 -200 68t-70 192q0 123 69.5 191.5t193.5 68.5q113 0 170 -43zM445 738l-101 -173h-124l67 173h158z" />
    <glyph glyph-name="ccaron" unicode="&#x10d;" horiz-adv-x="571" 
d="M470 467q57 -43 71 -112l-158 -52q-10 86 -77 86q-99 0 -99 -141q0 -137 99 -137q71 0 83 81l153 -49q-11 -68 -72.5 -110.5t-162.5 -42.5q-130 0 -200 68t-70 192q0 123 69.5 191.5t193.5 68.5q113 0 170 -43zM376 565h-166l-108 173h123l68 -87l68 87h123z" />
    <glyph glyph-name="ccedilla" unicode="&#xe7;" horiz-adv-x="571" 
d="M492.5 50.5q-41.5 -38.5 -109.5 -53.5q27 -18 40.5 -42.5t13.5 -51.5q0 -57 -39 -87.5t-104 -30.5q-81 0 -124 40l39 79q28 -28 72 -28q25 0 40 13t15 36q0 22 -15.5 38t-55.5 29q-111 10 -169.5 77t-58.5 181q0 123 69.5 191.5t193.5 68.5q113 0 170 -43t71 -112
l-158 -52q-10 86 -77 86q-99 0 -99 -141q0 -137 99 -137q71 0 83 81l153 -49q-8 -54 -49.5 -92.5z" />
    <glyph glyph-name="d" unicode="d" horiz-adv-x="628" 
d="M568 712v-712h-153l-6 95q-22 -49 -64.5 -77t-98.5 -28q-97 0 -151.5 68t-54.5 190q0 124 55 193t152 69q53 0 91 -25t60 -69v296h170zM370.5 144.5q24.5 29.5 27.5 85.5v40q-3 55 -27.5 85t-65.5 30q-45 0 -69.5 -33t-24.5 -102t24.5 -102t69.5 -33q41 0 65.5 29.5z" />
    <glyph glyph-name="eth" unicode="&#xf0;" 
d="M467 605q95 -124 95 -302q0 -160 -64.5 -236.5t-204.5 -76.5q-118 0 -185 67t-67 186q0 78 30.5 135t86 87t127.5 30q100 0 143 -70q-21 90 -76 154l-163 -35l-11 56l135 20q-47 43 -137 102h155q56 -30 102 -77l120 28l14 -56zM377 145q24 34 24 98q0 72 -23.5 106
t-71.5 34q-47 0 -70 -34t-23 -106q0 -132 91 -132q49 0 73 34z" />
    <glyph glyph-name="dcaron" unicode="&#x10f;" horiz-adv-x="714" 
d="M398 712h170v-712h-153l-6 95q-22 -49 -64.5 -77t-98.5 -28q-97 0 -151.5 68t-54.5 190q0 124 55 193t152 69q53 0 91 -25t60 -69v296zM760 712l-53 -239h-97l21 239h129zM370.5 144.5q24.5 29.5 27.5 85.5v40q-3 55 -27.5 85t-65.5 30q-45 0 -69.5 -33t-24.5 -102
t24.5 -102t69.5 -33q41 0 65.5 29.5z" />
    <glyph glyph-name="dcroat" unicode="&#x111;" horiz-adv-x="628" 
d="M644 538h-76v-538h-153l-6 95q-22 -49 -64.5 -77t-98.5 -28q-97 0 -151.5 68t-54.5 190q0 124 55 193t152 69q53 0 91 -25t60 -69v122h-130v97h130v77h170v-77h76v-97zM370.5 144.5q24.5 29.5 27.5 85.5v40q-3 55 -27.5 85t-65.5 30q-45 0 -69.5 -33t-24.5 -102
t24.5 -102t69.5 -33q41 0 65.5 29.5z" />
    <glyph glyph-name="e" unicode="e" horiz-adv-x="582" 
d="M543 201h-341q8 -47 34.5 -69t70.5 -22q37 0 60.5 14t31.5 41l138 -44q-21 -64 -81.5 -97.5t-148.5 -33.5q-131 0 -200.5 68t-69.5 192t68 192t193 68q121 0 185.5 -66.5t64.5 -186.5q0 -34 -5 -56zM201 293h188q-12 98 -92 98q-81 0 -96 -98z" />
    <glyph glyph-name="eacute" unicode="&#xe9;" horiz-adv-x="582" 
d="M543 201h-341q8 -47 34.5 -69t70.5 -22q37 0 60.5 14t31.5 41l138 -44q-21 -64 -81.5 -97.5t-148.5 -33.5q-131 0 -200.5 68t-69.5 192t68 192t193 68q121 0 185.5 -66.5t64.5 -186.5q0 -34 -5 -56zM201 293h188q-12 98 -92 98q-81 0 -96 -98zM443 738l-101 -173h-124
l67 173h158z" />
    <glyph glyph-name="ecaron" unicode="&#x11b;" horiz-adv-x="582" 
d="M543 201h-341q8 -47 34.5 -69t70.5 -22q37 0 60.5 14t31.5 41l138 -44q-21 -64 -81.5 -97.5t-148.5 -33.5q-131 0 -200.5 68t-69.5 192t68 192t193 68q121 0 185.5 -66.5t64.5 -186.5q0 -34 -5 -56zM201 293h188q-12 98 -92 98q-81 0 -96 -98zM375 565h-166l-108 173h123
l68 -87l68 87h123z" />
    <glyph glyph-name="ecircumflex" unicode="&#xea;" horiz-adv-x="582" 
d="M543 201h-341q8 -47 34.5 -69t70.5 -22q37 0 60.5 14t31.5 41l138 -44q-21 -64 -81.5 -97.5t-148.5 -33.5q-131 0 -200.5 68t-69.5 192t68 192t193 68q121 0 185.5 -66.5t64.5 -186.5q0 -34 -5 -56zM201 293h188q-12 98 -92 98q-81 0 -96 -98zM363 559l-68 87l-68 -87
h-123l108 173h166l108 -173h-123z" />
    <glyph glyph-name="edieresis" unicode="&#xeb;" horiz-adv-x="582" 
d="M543 201h-341q8 -47 34.5 -69t70.5 -22q37 0 60.5 14t31.5 41l138 -44q-21 -64 -81.5 -97.5t-148.5 -33.5q-131 0 -200.5 68t-69.5 192t68 192t193 68q121 0 185.5 -66.5t64.5 -186.5q0 -34 -5 -56zM201 293h188q-12 98 -92 98q-81 0 -96 -98zM247 689.5
q23 -20.5 23 -56.5t-23 -56.5t-63 -20.5q-39 0 -61.5 20.5t-22.5 56.5t22.5 56.5t61.5 20.5q40 0 63 -20.5zM467 689.5q23 -20.5 23 -56.5t-23 -56.5t-63 -20.5q-39 0 -61.5 20.5t-22.5 56.5t22.5 56.5t61.5 20.5q40 0 63 -20.5z" />
    <glyph glyph-name="edotaccent" unicode="&#x117;" horiz-adv-x="582" 
d="M543 201h-341q8 -47 34.5 -69t70.5 -22q37 0 60.5 14t31.5 41l138 -44q-21 -64 -81.5 -97.5t-148.5 -33.5q-131 0 -200.5 68t-69.5 192t68 192t193 68q121 0 185.5 -66.5t64.5 -186.5q0 -34 -5 -56zM201 293h188q-12 98 -92 98q-81 0 -96 -98zM364.5 701.5
q23.5 -20.5 23.5 -59.5q0 -40 -23.5 -60.5t-69.5 -20.5q-44 0 -67.5 20.5t-23.5 60.5q0 39 23.5 59.5t67.5 20.5q46 0 69.5 -20.5z" />
    <glyph glyph-name="egrave" unicode="&#xe8;" horiz-adv-x="582" 
d="M543 201h-341q8 -47 34.5 -69t70.5 -22q37 0 60.5 14t31.5 41l138 -44q-21 -64 -81.5 -97.5t-148.5 -33.5q-131 0 -200.5 68t-69.5 192t68 192t193 68q121 0 185.5 -66.5t64.5 -186.5q0 -34 -5 -56zM201 293h188q-12 98 -92 98q-81 0 -96 -98zM362 565h-124l-101 173h158
z" />
    <glyph glyph-name="emacron" unicode="&#x113;" horiz-adv-x="582" 
d="M543 201h-341q8 -47 34.5 -69t70.5 -22q37 0 60.5 14t31.5 41l138 -44q-21 -64 -81.5 -97.5t-148.5 -33.5q-131 0 -200.5 68t-69.5 192t68 192t193 68q121 0 185.5 -66.5t64.5 -186.5q0 -34 -5 -56zM201 293h188q-12 98 -92 98q-81 0 -96 -98zM481 569h-372v105h372v-105
z" />
    <glyph glyph-name="eogonek" unicode="&#x119;" horiz-adv-x="582" 
d="M543 201h-341q8 -47 34.5 -69t70.5 -22q37 0 60.5 14t31.5 41l138 -44q-16 -47 -52.5 -77.5t-90.5 -43.5q-36 -18 -52.5 -35.5t-16.5 -38.5q0 -22 14.5 -34t39.5 -12q31 0 46 10l23 -82q-37 -23 -103 -23q-62 0 -100.5 29t-38.5 83q0 55 54 96q-108 12 -165.5 78.5
t-57.5 178.5q0 124 68 192t193 68q121 0 185.5 -66.5t64.5 -186.5q0 -34 -5 -56zM201 293h188q-12 98 -92 98q-81 0 -96 -98z" />
    <glyph glyph-name="f" unicode="f" horiz-adv-x="415" 
d="M255 500h152v-121h-142v-379h-170v379h-80v121h80v46q0 90 56 135t146 45q78 0 115 -29l-17 -106q-22 16 -57 16q-83 0 -83 -72v-35z" />
    <glyph glyph-name="g" unicode="g" horiz-adv-x="566" 
d="M512.5 73q47.5 -38 47.5 -112q0 -85 -75.5 -130.5t-205.5 -45.5q-131 0 -193.5 31t-62.5 87q0 33 23 58t70 36q-77 33 -77 104q0 35 22 62t60 40q-82 44 -82 137q0 81 64 125.5t180 44.5q54 0 100 -11q10 60 45 98t97 38l16 -1l19 -113q-20 2 -28 2q-34 0 -56.5 -12
t-32.5 -33q84 -44 84 -138q0 -81 -64 -125t-180 -44q-54 0 -96 9q-31 -8 -31 -35q0 -34 52 -34h170q87 0 134.5 -38zM229.5 393q-20.5 -20 -20.5 -53t20.5 -52.5t53.5 -19.5t53.5 19.5t20.5 52.5t-20.5 53t-53.5 20t-53.5 -20zM391.5 -91.5q34.5 13.5 34.5 35.5q0 16 -14 24
t-47 8h-137q-41 0 -58.5 -8.5t-17.5 -26.5q0 -46 139 -46q66 0 100.5 13.5z" />
    <glyph glyph-name="gbreve" unicode="&#x11f;" horiz-adv-x="560" 
d="M160 598.5q-45 43.5 -45 119.5h110q0 -31 16 -49.5t43 -18.5t43 18.5t16 49.5h110q0 -76 -45 -119.5t-124 -43.5t-124 43.5zM502.5 507.5q-27.5 -15.5 -34.5 -48.5q55 -44 55 -119q0 -81 -64 -125t-180 -44q-54 0 -96 9q-31 -8 -31 -35q0 -34 52 -34h170q87 0 134.5 -38
t47.5 -112q0 -85 -75.5 -130.5t-205.5 -45.5q-131 0 -193.5 31t-62.5 87q0 33 23 58t70 36q-77 33 -77 104q0 35 22 62t60 40q-82 44 -82 137q0 81 64 125.5t180 44.5q76 0 131 -20q4 61 44 102.5t98 41.5l19 -113q-41 2 -68.5 -13.5zM332.5 287.5q20.5 19.5 20.5 52.5
t-20.5 53t-53.5 20t-53.5 -20t-20.5 -53t20.5 -52.5t53.5 -19.5t53.5 19.5zM224 -24q-41 0 -58.5 -8.5t-17.5 -26.5q0 -46 139 -46q66 0 100.5 13.5t34.5 35.5q0 16 -14 24t-47 8h-137z" />
    <glyph glyph-name="h" unicode="h" horiz-adv-x="620" 
d="M515 464q47 -46 47 -131v-333h-170v286q0 95 -71 95q-40 0 -65 -29t-25 -89v-263h-170v712h170v-303q22 50 62.5 75.5t95.5 25.5q79 0 126 -46z" />
    <glyph glyph-name="i" unicode="i" horiz-adv-x="291" 
d="M70.5 577.5q-23.5 19.5 -23.5 61.5q0 43 23.5 62.5t75.5 19.5t75.5 -19.5t23.5 -62.5q0 -42 -23.5 -61.5t-75.5 -19.5t-75.5 19.5zM231 0h-170v500h170v-500z" />
    <glyph glyph-name="dotlessi" unicode="&#x131;" horiz-adv-x="291" 
d="M231 0h-170v500h170v-500z" />
    <glyph glyph-name="iacute" unicode="&#xed;" horiz-adv-x="291" 
d="M231 0h-170v500h170v-500zM298 738l-101 -173h-124l67 173h158z" />
    <glyph glyph-name="icircumflex" unicode="&#xee;" horiz-adv-x="291" 
d="M231 0h-170v500h170v-500zM214 559l-68 87l-68 -87h-123l108 173h166l108 -173h-123z" />
    <glyph glyph-name="idieresis" unicode="&#xef;" horiz-adv-x="291" 
d="M-10.5 574.5q-20.5 20.5 -20.5 58.5t20.5 58.5t59.5 20.5q40 0 60.5 -20.5t20.5 -58.5t-20.5 -58.5t-60.5 -20.5q-39 0 -59.5 20.5zM181.5 574.5q-20.5 20.5 -20.5 58.5t20.5 58.5t60.5 20.5q39 0 59.5 -20.5t20.5 -58.5t-20.5 -58.5t-59.5 -20.5q-40 0 -60.5 20.5z
M231 0h-170v500h170v-500z" />
    <glyph glyph-name="i.loclTRK" horiz-adv-x="291" 
d="M70.5 577.5q-23.5 19.5 -23.5 61.5q0 43 23.5 62.5t75.5 19.5t75.5 -19.5t23.5 -62.5q0 -42 -23.5 -61.5t-75.5 -19.5t-75.5 19.5zM231 0h-170v500h170v-500z" />
    <glyph glyph-name="igrave" unicode="&#xec;" horiz-adv-x="291" 
d="M231 0h-170v500h170v-500zM213 565h-124l-101 173h158z" />
    <glyph glyph-name="ij" unicode="&#x133;" horiz-adv-x="581" 
d="M70.5 577.5q-23.5 19.5 -23.5 61.5q0 43 23.5 62.5t75.5 19.5t75.5 -19.5t23.5 -62.5q0 -42 -23.5 -61.5t-75.5 -19.5t-75.5 19.5zM231 0h-170v500h170v-500zM511.5 701q24.5 -20 24.5 -62q0 -41 -24 -61t-76 -20q-51 0 -74.5 20t-23.5 61q0 42 23.5 62t74.5 20t75.5 -20
zM522 -28q0 -98 -50 -142.5t-144 -44.5q-79 0 -131 32l24 110q23 -20 63 -20q33 0 50.5 18.5t17.5 61.5v513h170v-528z" />
    <glyph glyph-name="imacron" unicode="&#x12b;" horiz-adv-x="291" 
d="M283 569h-274v105h274v-105zM231 0h-170v500h170v-500z" />
    <glyph glyph-name="iogonek" unicode="&#x12f;" horiz-adv-x="291" 
d="M70.5 577.5q-23.5 19.5 -23.5 61.5q0 43 23.5 62.5t75.5 19.5t75.5 -19.5t23.5 -62.5q0 -42 -23.5 -61.5t-75.5 -19.5t-75.5 19.5zM247 -191q-20 -13 -45 -18.5t-60 -5.5q-61 0 -99.5 28.5t-38.5 82.5q0 67 72 104h-15v500h170v-500q-108 -26 -108 -77q0 -20 14 -31.5
t38 -11.5q31 0 48 11z" />
    <glyph glyph-name="j" unicode="j" horiz-adv-x="290" 
d="M220.5 701q24.5 -20 24.5 -62q0 -41 -24 -61t-76 -20q-51 0 -74.5 20t-23.5 61q0 42 23.5 62t74.5 20t75.5 -20zM231 -28q0 -98 -50 -142.5t-144 -44.5q-79 0 -131 32l24 110q23 -20 63 -20q33 0 50.5 18.5t17.5 61.5v513h170v-528z" />
    <glyph glyph-name="k" unicode="k" horiz-adv-x="622" 
d="M312 205l-81 -90v-115h-170v712h170v-422l191 210h188l-184 -196l195 -304h-188z" />
    <glyph glyph-name="l" unicode="l" horiz-adv-x="327" 
d="M229 173q0 -34 10 -48t36 -14q24 0 51 9l-11 -105q-18 -11 -47 -18t-57 -7q-80 0 -116 37.5t-36 120.5v564h170v-539z" />
    <glyph glyph-name="lacute" unicode="&#x13a;" horiz-adv-x="331" 
d="M283 920l-79 -152h-123l50 152h152zM229 173q0 -34 10 -48t36 -14q24 0 51 9l-11 -105q-18 -11 -47 -18t-57 -7q-80 0 -116 37.5t-36 120.5v564h170v-539z" />
    <glyph glyph-name="lcaron" unicode="&#x13e;" horiz-adv-x="391" 
d="M229 173q0 -34 10 -48t36 -14q24 0 51 9l-11 -105q-18 -11 -47 -18t-57 -7q-80 0 -116 37.5t-36 120.5v564h170v-539zM365 473h-97l21 239h129z" />
    <glyph glyph-name="ldot" unicode="&#x140;" horiz-adv-x="497" 
d="M229 173q0 -34 10 -48t36 -14q24 0 51 9l-11 -105q-18 -11 -47 -18t-57 -7q-80 0 -116 37.5t-36 120.5v564h170v-539zM467.5 419.5q26.5 -23.5 26.5 -66.5q0 -42 -26.5 -66t-73.5 -24t-73.5 24t-26.5 66q0 43 26.5 66.5t73.5 23.5t73.5 -23.5z" />
    <glyph glyph-name="lslash" unicode="&#x142;" horiz-adv-x="394" 
d="M271 336v-163q0 -34 10 -48t36 -14q24 0 51 9l-11 -105q-18 -11 -47 -18t-57 -7q-80 0 -116 37.5t-36 120.5v87l-87 -56v124l87 42v367h170v-269l104 68v-125z" />
    <glyph glyph-name="m" unicode="m" horiz-adv-x="941" 
d="M835.5 464q47.5 -46 47.5 -131v-333h-170v294q0 86 -68 86q-40 0 -64 -29t-24 -84v-267h-170v294q0 86 -68 86q-38 0 -63 -29t-25 -87v-264h-170v500h152l5 -96q24 52 67 79t101 27q57 0 98.5 -26t59.5 -75q24 49 68.5 75t99.5 26q76 0 123.5 -46z" />
    <glyph glyph-name="n" unicode="n" horiz-adv-x="620" 
d="M515 464q47 -46 47 -131v-333h-170v286q0 51 -18.5 72.5t-52.5 21.5q-40 0 -65 -28.5t-25 -87.5v-264h-170v500h152l5 -96q24 53 68 79.5t103 26.5q79 0 126 -46z" />
    <glyph glyph-name="nacute" unicode="&#x144;" horiz-adv-x="620" 
d="M515 464q47 -46 47 -131v-333h-170v286q0 51 -18.5 72.5t-52.5 21.5q-40 0 -65 -28.5t-25 -87.5v-264h-170v500h152l5 -96q24 53 68 79.5t103 26.5q79 0 126 -46zM461 738l-101 -173h-124l67 173h158z" />
    <glyph glyph-name="ncaron" unicode="&#x148;" horiz-adv-x="620" 
d="M515 464q47 -46 47 -131v-333h-170v286q0 51 -18.5 72.5t-52.5 21.5q-40 0 -65 -28.5t-25 -87.5v-264h-170v500h152l5 -96q24 53 68 79.5t103 26.5q79 0 126 -46zM392 565h-166l-108 173h123l68 -87l68 87h123z" />
    <glyph glyph-name="ntilde" unicode="&#xf1;" horiz-adv-x="620" 
d="M515 464q47 -46 47 -131v-333h-170v286q0 51 -18.5 72.5t-52.5 21.5q-40 0 -65 -28.5t-25 -87.5v-264h-170v500h152l5 -96q24 53 68 79.5t103 26.5q79 0 126 -46zM378 559q-30 0 -48.5 9t-39.5 26q-13 11 -22.5 16.5t-20.5 5.5q-16 0 -25 -14t-12 -42h-96q6 159 132 159
q30 0 48.5 -9.5t40.5 -26.5q15 -12 22.5 -16.5t18.5 -4.5q17 0 26 14t12 42h96q-6 -159 -132 -159z" />
    <glyph glyph-name="o" unicode="o" horiz-adv-x="602" 
d="M495.5 441.5q69.5 -68.5 69.5 -191.5t-69.5 -191.5t-194.5 -68.5t-194.5 68.5t-69.5 191.5t69.5 191.5t194.5 68.5t194.5 -68.5zM230 356q-23 -33 -23 -106t23 -106t71 -33t71 33t23 106t-23 106t-71 33t-71 -33z" />
    <glyph glyph-name="oacute" unicode="&#xf3;" horiz-adv-x="602" 
d="M495.5 441.5q69.5 -68.5 69.5 -191.5t-69.5 -191.5t-194.5 -68.5t-194.5 68.5t-69.5 191.5t69.5 191.5t194.5 68.5t194.5 -68.5zM230 356q-23 -33 -23 -106t23 -106t71 -33t71 33t23 106t-23 106t-71 33t-71 -33zM449 738l-101 -173h-124l67 173h158z" />
    <glyph glyph-name="ocircumflex" unicode="&#xf4;" horiz-adv-x="602" 
d="M495.5 441.5q69.5 -68.5 69.5 -191.5t-69.5 -191.5t-194.5 -68.5t-194.5 68.5t-69.5 191.5t69.5 191.5t194.5 68.5t194.5 -68.5zM230 356q-23 -33 -23 -106t23 -106t71 -33t71 33t23 106t-23 106t-71 33t-71 -33zM369 559l-68 87l-68 -87h-123l108 173h166l108 -173h-123
z" />
    <glyph glyph-name="odieresis" unicode="&#xf6;" horiz-adv-x="602" 
d="M495.5 441.5q69.5 -68.5 69.5 -191.5t-69.5 -191.5t-194.5 -68.5t-194.5 68.5t-69.5 191.5t69.5 191.5t194.5 68.5t194.5 -68.5zM230 356q-23 -33 -23 -106t23 -106t71 -33t71 33t23 106t-23 106t-71 33t-71 -33zM253 689.5q23 -20.5 23 -56.5t-23 -56.5t-63 -20.5
q-39 0 -61.5 20.5t-22.5 56.5t22.5 56.5t61.5 20.5q40 0 63 -20.5zM473 689.5q23 -20.5 23 -56.5t-23 -56.5t-63 -20.5q-39 0 -61.5 20.5t-22.5 56.5t22.5 56.5t61.5 20.5q40 0 63 -20.5z" />
    <glyph glyph-name="ograve" unicode="&#xf2;" horiz-adv-x="602" 
d="M495.5 441.5q69.5 -68.5 69.5 -191.5t-69.5 -191.5t-194.5 -68.5t-194.5 68.5t-69.5 191.5t69.5 191.5t194.5 68.5t194.5 -68.5zM230 356q-23 -33 -23 -106t23 -106t71 -33t71 33t23 106t-23 106t-71 33t-71 -33zM368 565h-124l-101 173h158z" />
    <glyph glyph-name="ohungarumlaut" unicode="&#x151;" horiz-adv-x="602" 
d="M495.5 441.5q69.5 -68.5 69.5 -191.5t-69.5 -191.5t-194.5 -68.5t-194.5 68.5t-69.5 191.5t69.5 191.5t194.5 68.5t194.5 -68.5zM230 356q-23 -33 -23 -106t23 -106t71 -33t71 33t23 106t-23 106t-71 33t-71 -33zM241 565h-118l69 173h144zM453 565h-118l69 173h144z" />
    <glyph glyph-name="omacron" unicode="&#x14d;" horiz-adv-x="602" 
d="M495.5 441.5q69.5 -68.5 69.5 -191.5t-69.5 -191.5t-194.5 -68.5t-194.5 68.5t-69.5 191.5t69.5 191.5t194.5 68.5t194.5 -68.5zM230 356q-23 -33 -23 -106t23 -106t71 -33t71 33t23 106t-23 106t-71 33t-71 -33zM487 569h-372v105h372v-105z" />
    <glyph glyph-name="oslash" unicode="&#xf8;" horiz-adv-x="602" 
d="M455 473l38 48h67l-64 -80q69 -69 69 -191q0 -123 -69.5 -191.5t-194.5 -68.5q-86 0 -145 33l-38 -50h-67l61 80q-75 69 -75 197q0 123 69.5 191.5t194.5 68.5q91 0 154 -37zM223 178l23 35l116 153q-22 23 -61 23q-48 0 -71 -33t-23 -106q0 -39 15 -72h1zM372 144
q23 33 23 106q0 36 -12 60h-1l-22 -32l-113 -150q18 -17 54 -17q48 0 71 33z" />
    <glyph glyph-name="otilde" unicode="&#xf5;" horiz-adv-x="602" 
d="M495.5 441.5q69.5 -68.5 69.5 -191.5t-69.5 -191.5t-194.5 -68.5t-194.5 68.5t-69.5 191.5t69.5 191.5t194.5 68.5t194.5 -68.5zM230 356q-23 -33 -23 -106t23 -106t71 -33t71 33t23 106t-23 106t-71 33t-71 -33zM367 559q-30 0 -48.5 9t-39.5 26q-13 11 -22.5 16.5
t-20.5 5.5q-16 0 -25 -14t-12 -42h-96q6 159 132 159q30 0 48.5 -9.5t40.5 -26.5q15 -12 22.5 -16.5t18.5 -4.5q17 0 26 14t12 42h96q-6 -159 -132 -159z" />
    <glyph glyph-name="oe" unicode="&#x153;" horiz-adv-x="954" 
d="M913 212h-341q7 -53 33.5 -77.5t72.5 -24.5q37 0 60.5 14t31.5 41l138 -44q-21 -64 -81.5 -97.5t-148.5 -33.5q-129 0 -191 88q-62 -88 -193 -88q-120 0 -188.5 69t-68.5 191t68.5 191t188.5 69q65 0 114 -22.5t79 -64.5q29 42 75 64.5t106 22.5q80 0 136.5 -30.5t85 -85
t28.5 -124.5q0 -36 -5 -58zM603 366.5q-24 -24.5 -31 -75.5h185q-12 100 -88 100q-42 0 -66 -24.5zM373 144q23 33 23 106t-23 106.5t-71 33.5q-47 0 -70 -33.5t-23 -106.5t23 -106t70 -33q48 0 71 33z" />
    <glyph glyph-name="p" unicode="p" horiz-adv-x="628" 
d="M534 442q54 -68 54 -190q0 -124 -55 -193t-151 -69q-53 0 -91.5 25t-59.5 69v-294h-170v710h149l5 -106q21 53 64.5 84.5t102.5 31.5q98 0 152 -68zM392.5 148q24.5 33 24.5 102t-24.5 102t-69.5 33q-43 0 -67.5 -33t-24.5 -97v-10q0 -62 24 -96t68 -34q45 0 69.5 33z
" />
    <glyph glyph-name="thorn" unicode="&#xfe;" horiz-adv-x="628" 
d="M532 445q56 -65 56 -190q0 -94 -29.5 -153.5t-76.5 -85.5t-101 -26q-53 0 -90.5 22.5t-59.5 62.5v-285h-170v922h170v-299q21 45 60.5 71t94.5 26q90 0 146 -65zM393.5 147.5q23.5 32.5 23.5 102.5t-23.5 102.5t-70.5 32.5q-43 0 -67.5 -33t-24.5 -97v-10q0 -62 24 -96
t68 -34q47 0 70.5 32.5z" />
    <glyph glyph-name="q" unicode="q" horiz-adv-x="629" 
d="M568 500v-710h-170v293q-22 -44 -60.5 -68.5t-90.5 -24.5q-97 0 -151.5 69t-54.5 193q0 122 54 190t151 68q59 0 102.5 -31t64.5 -84l6 105h149zM374 149q24 34 24 96v10q0 63 -24.5 96.5t-67.5 33.5q-94 0 -94 -135t94 -135q44 0 68 34z" />
    <glyph glyph-name="r" unicode="r" horiz-adv-x="430" 
d="M424 499l-18 -144q-10 6 -27 10.5t-36 4.5q-48 0 -80 -30.5t-32 -87.5v-252h-170v500h150l7 -108q18 57 56.5 87.5t95.5 30.5q34 0 54 -11z" />
    <glyph glyph-name="racute" unicode="&#x155;" horiz-adv-x="430" 
d="M424 499l-18 -144q-10 6 -27 10.5t-36 4.5q-48 0 -80 -30.5t-32 -87.5v-252h-170v500h150l7 -108q18 57 56.5 87.5t95.5 30.5q34 0 54 -11zM381 738l-101 -173h-124l67 173h158z" />
    <glyph glyph-name="rcaron" unicode="&#x159;" horiz-adv-x="430" 
d="M424 499l-18 -144q-10 6 -27 10.5t-36 4.5q-48 0 -80 -30.5t-32 -87.5v-252h-170v500h150l7 -108q18 57 56.5 87.5t95.5 30.5q34 0 54 -11zM312 565h-166l-108 173h123l68 -87l68 87h123z" />
    <glyph glyph-name="s" unicode="s" horiz-adv-x="533" 
d="M24 78l88 96q43 -71 148 -71q35 0 55 9.5t20 25.5q0 14 -20.5 24.5t-70.5 20.5q-112 22 -159.5 60t-47.5 101q0 43 27 81t81.5 61.5t132.5 23.5q86 0 140.5 -23.5t88.5 -70.5l-88 -86q-24 35 -57 51t-79 16q-36 0 -56 -11t-20 -27q0 -15 20.5 -25.5t71.5 -20.5
q110 -19 158.5 -56.5t48.5 -102.5q0 -73 -61 -118.5t-177 -45.5q-172 0 -244 88z" />
    <glyph glyph-name="sacute" unicode="&#x15b;" horiz-adv-x="533" 
d="M24 78l88 96q43 -71 148 -71q35 0 55 9.5t20 25.5q0 14 -20.5 24.5t-70.5 20.5q-112 22 -159.5 60t-47.5 101q0 43 27 81t81.5 61.5t132.5 23.5q86 0 140.5 -23.5t88.5 -70.5l-88 -86q-24 35 -57 51t-79 16q-36 0 -56 -11t-20 -27q0 -15 20.5 -25.5t71.5 -20.5
q110 -19 158.5 -56.5t48.5 -102.5q0 -73 -61 -118.5t-177 -45.5q-172 0 -244 88zM423 738l-101 -173h-124l67 173h158z" />
    <glyph glyph-name="scaron" unicode="&#x161;" horiz-adv-x="533" 
d="M24 78l88 96q43 -71 148 -71q35 0 55 9.5t20 25.5q0 14 -20.5 24.5t-70.5 20.5q-112 22 -159.5 60t-47.5 101q0 43 27 81t81.5 61.5t132.5 23.5q86 0 140.5 -23.5t88.5 -70.5l-88 -86q-24 35 -57 51t-79 16q-36 0 -56 -11t-20 -27q0 -15 20.5 -25.5t71.5 -20.5
q110 -19 158.5 -56.5t48.5 -102.5q0 -73 -61 -118.5t-177 -45.5q-172 0 -244 88zM354 565h-166l-108 173h123l68 -87l68 87h123z" />
    <glyph glyph-name="germandbls" unicode="&#xdf;" horiz-adv-x="648" 
d="M565 312.5q48 -50.5 48 -128.5q0 -53 -24 -97t-73.5 -70.5t-122.5 -26.5q-39 0 -71 8.5t-53 23.5l28 113q13 -12 28 -17.5t38 -5.5q41 0 64 26t23 69q0 45 -27.5 68t-79.5 23h-49l17 121h31q42 1 65.5 25.5t23.5 64.5q0 41 -24 63t-67 22q-60 0 -84.5 -34t-24.5 -112
v-448h-170v461q0 125 66.5 190.5t216.5 65.5q82 0 139 -25.5t85 -69.5t28 -98q0 -40 -19 -76.5t-55.5 -59.5t-88.5 -23v-2q84 0 132 -50.5z" />
    <glyph glyph-name="longs" unicode="&#x17f;" horiz-adv-x="325" 
d="M59 546q0 90 52 135t139 45q35 0 58 -6t39 -19l-10 -106q-17 12 -43 12q-33 0 -51.5 -18t-18.5 -56v-533h-165v546z" />
    <glyph glyph-name="t" unicode="t" horiz-adv-x="435" 
d="M424 28q-25 -17 -63.5 -27.5t-77.5 -10.5q-89 0 -136 38t-48 122v229h-86v121h86v112l170 47v-159h150v-121h-150v-201q0 -67 66 -67q41 0 72 22z" />
    <glyph glyph-name="tcaron" unicode="&#x165;" horiz-adv-x="435" 
d="M413 549h-97l21 218h129zM407 133l17 -105q-25 -17 -63.5 -27.5t-77.5 -10.5q-89 0 -136 38t-48 122v229h-86v121h86v112l170 47v-159h150v-121h-150v-201q0 -67 66 -67q41 0 72 22z" />
    <glyph glyph-name="u" unicode="u" horiz-adv-x="620" 
d="M559 500v-500h-152l-5 93q-47 -103 -173 -103q-80 0 -125.5 42.5t-45.5 133.5v334h170v-291q0 -49 17 -69t52 -20q42 0 67 28.5t25 86.5v265h170z" />
    <glyph glyph-name="uacute" unicode="&#xfa;" horiz-adv-x="620" 
d="M559 500v-500h-152l-5 93q-47 -103 -173 -103q-80 0 -125.5 42.5t-45.5 133.5v334h170v-291q0 -49 17 -69t52 -20q42 0 67 28.5t25 86.5v265h170zM454 738l-101 -173h-124l67 173h158z" />
    <glyph glyph-name="ucircumflex" unicode="&#xfb;" horiz-adv-x="620" 
d="M559 500v-500h-152l-5 93q-47 -103 -173 -103q-80 0 -125.5 42.5t-45.5 133.5v334h170v-291q0 -49 17 -69t52 -20q42 0 67 28.5t25 86.5v265h170zM374 559l-68 87l-68 -87h-123l108 173h166l108 -173h-123z" />
    <glyph glyph-name="udieresis" unicode="&#xfc;" horiz-adv-x="620" 
d="M559 500v-500h-152l-5 93q-47 -103 -173 -103q-80 0 -125.5 42.5t-45.5 133.5v334h170v-291q0 -49 17 -69t52 -20q42 0 67 28.5t25 86.5v265h170zM257 689.5q23 -20.5 23 -56.5t-23 -56.5t-63 -20.5q-39 0 -61.5 20.5t-22.5 56.5t22.5 56.5t61.5 20.5q40 0 63 -20.5z
M477 689.5q23 -20.5 23 -56.5t-23 -56.5t-63 -20.5q-39 0 -61.5 20.5t-22.5 56.5t22.5 56.5t61.5 20.5q40 0 63 -20.5z" />
    <glyph glyph-name="ugrave" unicode="&#xf9;" horiz-adv-x="620" 
d="M559 500v-500h-152l-5 93q-47 -103 -173 -103q-80 0 -125.5 42.5t-45.5 133.5v334h170v-291q0 -49 17 -69t52 -20q42 0 67 28.5t25 86.5v265h170zM373 565h-124l-101 173h158z" />
    <glyph glyph-name="uhungarumlaut" unicode="&#x171;" horiz-adv-x="620" 
d="M559 500v-500h-152l-5 93q-47 -103 -173 -103q-80 0 -125.5 42.5t-45.5 133.5v334h170v-291q0 -49 17 -69t52 -20q42 0 67 28.5t25 86.5v265h170zM245 565h-118l69 173h144zM457 565h-118l69 173h144z" />
    <glyph glyph-name="umacron" unicode="&#x16b;" horiz-adv-x="620" 
d="M559 500v-500h-152l-5 93q-47 -103 -173 -103q-80 0 -125.5 42.5t-45.5 133.5v334h170v-291q0 -49 17 -69t52 -20q42 0 67 28.5t25 86.5v265h170zM492 569h-372v105h372v-105z" />
    <glyph glyph-name="uni0123" unicode="&#x123;" horiz-adv-x="560" 
d="M347 563h-142l71 209h107zM512.5 73q47.5 -38 47.5 -112q0 -85 -75.5 -130.5t-205.5 -45.5q-131 0 -193.5 31t-62.5 87q0 33 23 58t70 36q-77 33 -77 104q0 35 22 62t60 40q-82 44 -82 137q0 81 64 125.5t180 44.5q54 0 100 -11q10 60 45 98t97 38l16 -1l19 -113
q-20 2 -28 2q-34 0 -56.5 -12t-32.5 -33q84 -44 84 -138q0 -81 -64 -125t-180 -44q-54 0 -96 9q-31 -8 -31 -35q0 -34 52 -34h170q87 0 134.5 -38zM229.5 393q-20.5 -20 -20.5 -53t20.5 -52.5t53.5 -19.5t53.5 19.5t20.5 52.5t-20.5 53t-53.5 20t-53.5 -20zM391.5 -91.5
q34.5 13.5 34.5 35.5q0 16 -14 24t-47 8h-137q-41 0 -58.5 -8.5t-17.5 -26.5q0 -46 139 -46q66 0 100.5 13.5z" />
    <glyph glyph-name="uni0137" unicode="&#x137;" horiz-adv-x="622" 
d="M312 205l-81 -90v-115h-170v712h170v-422l191 210h188l-184 -196l195 -304h-188zM335 -241h-110l32 181h149z" />
    <glyph glyph-name="uni013C" unicode="&#x13c;" horiz-adv-x="327" 
d="M229 173q0 -34 10 -48t36 -14q24 0 51 9l-11 -105q-18 -11 -47 -18t-57 -7q-80 0 -116 37.5t-36 120.5v564h170v-539zM197 -241h-110l32 181h149z" />
    <glyph glyph-name="uni0146" unicode="&#x146;" horiz-adv-x="620" 
d="M515 464q47 -46 47 -131v-333h-170v286q0 51 -18.5 72.5t-52.5 21.5q-40 0 -65 -28.5t-25 -87.5v-264h-170v500h152l5 -96q24 53 68 79.5t103 26.5q79 0 126 -46zM325 -241h-110l32 181h149z" />
    <glyph glyph-name="uni0157" unicode="&#x157;" horiz-adv-x="430" 
d="M424 499l-18 -144q-10 6 -27 10.5t-36 4.5q-48 0 -80 -30.5t-32 -87.5v-252h-170v500h150l7 -108q18 57 56.5 87.5t95.5 30.5q34 0 54 -11zM153 -241h-110l32 181h149z" />
    <glyph glyph-name="uni015F" unicode="&#x15f;" horiz-adv-x="533" 
d="M457.5 256.5q48.5 -37.5 48.5 -102.5q0 -58 -40 -100t-118 -57q54 -38 54 -94q0 -57 -39 -87.5t-104 -30.5q-81 0 -124 40l39 79q28 -28 72 -28q25 0 40 13t15 36q0 22 -15 37.5t-53 28.5q-145 8 -209 87l88 96q43 -71 148 -71q35 0 55 9.5t20 25.5q0 14 -20.5 24.5
t-70.5 20.5q-112 22 -159.5 60t-47.5 101q0 43 27 81t81.5 61.5t132.5 23.5q86 0 140.5 -23.5t88.5 -70.5l-88 -86q-24 35 -57 51t-79 16q-36 0 -56 -11t-20 -27q0 -15 20.5 -25.5t71.5 -20.5q110 -19 158.5 -56.5z" />
    <glyph glyph-name="uni0163" unicode="&#x163;" horiz-adv-x="443" 
d="M385 -97q0 -57 -39.5 -87.5t-103.5 -30.5q-45 0 -74.5 10.5t-50.5 29.5l40 79q26 -28 69 -28q27 0 42 13t15 37q0 25 -15.5 41t-56.5 31q-111 25 -112 152v229h-86v121h86v112l170 47v-159h150v-121h-150v-201q0 -67 66 -67q41 0 72 22l17 -105q-33 -24 -90 -34
q51 -38 51 -91z" />
    <glyph glyph-name="uni0219" unicode="&#x219;" horiz-adv-x="533" 
d="M24 78l88 96q43 -71 148 -71q35 0 55 9.5t20 25.5q0 14 -20.5 24.5t-70.5 20.5q-112 22 -159.5 60t-47.5 101q0 43 27 81t81.5 61.5t132.5 23.5q86 0 140.5 -23.5t88.5 -70.5l-88 -86q-24 35 -57 51t-79 16q-36 0 -56 -11t-20 -27q0 -15 20.5 -25.5t71.5 -20.5
q110 -19 158.5 -56.5t48.5 -102.5q0 -73 -61 -118.5t-177 -45.5q-172 0 -244 88zM282 -241h-110l32 181h149z" />
    <glyph glyph-name="uni021B" unicode="&#x21b;" horiz-adv-x="435" 
d="M424 28q-25 -17 -63.5 -27.5t-77.5 -10.5q-89 0 -136 38t-48 122v229h-86v121h86v112l170 47v-159h150v-121h-150v-201q0 -67 66 -67q41 0 72 22zM260 -241h-110l32 181h149z" />
    <glyph glyph-name="uogonek" unicode="&#x173;" horiz-adv-x="620" 
d="M565 -191q-38 -24 -103 -24q-61 0 -97.5 28t-36.5 81q0 72 81 109l-8 96q-24 -53 -69 -81t-103 -28q-80 0 -125.5 42.5t-45.5 133.5v334h170v-291q0 -49 17 -69t50 -20q41 0 67.5 31t26.5 87v262h170v-500q-113 -27 -113 -78q0 -20 13 -31t38 -11q27 0 46 10z" />
    <glyph glyph-name="uring" unicode="&#x16f;" horiz-adv-x="620" 
d="M559 500v-500h-152l-5 93q-47 -103 -173 -103q-80 0 -125.5 42.5t-45.5 133.5v334h170v-291q0 -49 17 -69t52 -20q42 0 67 28.5t25 86.5v265h170zM404.5 760.5q35.5 -32.5 35.5 -88.5t-35.5 -88.5t-98.5 -32.5t-99 32.5t-36 88.5t36 88.5t99 32.5t98.5 -32.5zM267.5 709
q-14.5 -14 -14.5 -37t14.5 -37t38.5 -14q23 0 37.5 14t14.5 37t-14.5 37t-37.5 14q-24 0 -38.5 -14z" />
    <glyph glyph-name="v" unicode="v" horiz-adv-x="561" 
d="M562 500l-180 -500h-203l-180 500h179l103 -392l105 392h176z" />
    <glyph glyph-name="w" unicode="w" horiz-adv-x="908" 
d="M898 500l-151 -500h-204l-90 321l-89 -321h-203l-152 500h179l84 -377l98 377h168l97 -377l85 377h178z" />
    <glyph glyph-name="x" unicode="x" horiz-adv-x="589" 
d="M391 0l-98 174l-100 -174h-188l180 253l-173 247h193l92 -167l94 167h188l-174 -248l178 -252h-192z" />
    <glyph glyph-name="y" unicode="y" horiz-adv-x="570" 
d="M387 0q-28 -80 -61 -127t-78 -67.5t-109 -20.5q-85 0 -136 37l36 114q16 -15 35.5 -20.5t50.5 -5.5t49 10.5t29 37.5l12 31l-58 136l-149 375h187l77 -285l24 -106l27 110l77 281h170z" />
    <glyph glyph-name="yacute" unicode="&#xfd;" horiz-adv-x="570" 
d="M387 0q-28 -80 -61 -127t-78 -67.5t-109 -20.5q-85 0 -136 37l36 114q16 -15 35.5 -20.5t50.5 -5.5t49 10.5t29 37.5l12 31l-58 136l-149 375h187l77 -285l24 -106l27 110l77 281h170zM451 738l-101 -173h-124l67 173h158z" />
    <glyph glyph-name="ydieresis" unicode="&#xff;" horiz-adv-x="570" 
d="M387 0q-28 -80 -61 -127t-78 -67.5t-109 -20.5q-85 0 -136 37l36 114q16 -15 35.5 -20.5t50.5 -5.5t49 10.5t29 37.5l12 31l-58 136l-149 375h187l77 -285l24 -106l27 110l77 281h170zM255 689.5q23 -20.5 23 -56.5t-23 -56.5t-63 -20.5q-39 0 -61.5 20.5t-22.5 56.5
t22.5 56.5t61.5 20.5q40 0 63 -20.5zM475 689.5q23 -20.5 23 -56.5t-23 -56.5t-63 -20.5q-39 0 -61.5 20.5t-22.5 56.5t22.5 56.5t61.5 20.5q40 0 63 -20.5z" />
    <glyph glyph-name="z" unicode="z" horiz-adv-x="515" 
d="M36 104l198 226l54 53l-80 -2h-171v119h439v-104l-197 -224l-54 -55l88 2h172v-119h-449v104z" />
    <glyph glyph-name="zacute" unicode="&#x17a;" horiz-adv-x="515" 
d="M36 104l198 226l54 53l-80 -2h-171v119h439v-104l-197 -224l-54 -55l88 2h172v-119h-449v104zM400 738l-101 -173h-124l67 173h158z" />
    <glyph glyph-name="zcaron" unicode="&#x17e;" horiz-adv-x="515" 
d="M36 104l198 226l54 53l-80 -2h-171v119h439v-104l-197 -224l-54 -55l88 2h172v-119h-449v104zM331 565h-166l-108 173h123l68 -87l68 87h123z" />
    <glyph glyph-name="zdotaccent" unicode="&#x17c;" horiz-adv-x="515" 
d="M36 104l198 226l54 53l-80 -2h-171v119h439v-104l-197 -224l-54 -55l88 2h172v-119h-449v104zM321.5 701.5q23.5 -20.5 23.5 -59.5q0 -40 -23.5 -60.5t-69.5 -20.5q-44 0 -67.5 20.5t-23.5 60.5q0 39 23.5 59.5t67.5 20.5q46 0 69.5 -20.5z" />
    <glyph glyph-name="germandbls.calt" horiz-adv-x="719" 
d="M645 313.5q51 -43.5 51 -126.5q0 -91 -59.5 -141.5t-155.5 -50.5q-130 0 -183 58l46 100q38 -35 102 -35q40 0 64.5 20.5t24.5 54.5q0 36 -26.5 55t-73.5 19h-88v96l147 167h-119q-60 0 -95 -36.5t-35 -99.5v-394h-172v419q0 74 33 128.5t94.5 83.5t144.5 29h313v-128
l-150 -169q86 -6 137 -49.5z" />
    <glyph glyph-name="longs.component" horiz-adv-x="288" 
d="M59 546q0 92 45.5 136t129.5 44q43 0 69 -16l-6 -112q-12 9 -30 9q-43 0 -43 -60v-547h-165v546z" />
    <glyph glyph-name="iacute_j.loclNLD" horiz-adv-x="581" 
d="M298 738l-101 -173h-124l67 173h158zM594 738l-101 -173h-124l67 173h158zM231 0h-170v500h170v-500zM522 -28q0 -98 -50 -142.5t-144 -44.5q-79 0 -131 32l24 110q23 -20 63 -20q34 0 51 18.5t17 61.5v513h170v-528z" />
    <glyph glyph-name="g.ss01" horiz-adv-x="628" 
d="M568 500v-460q0 -255 -281 -255q-98 0 -158.5 33t-73.5 113l163 43q4 -82 86 -82q43 0 68 28t25 79v92q-24 -36 -62.5 -56.5t-88.5 -20.5q-97 0 -151.5 65t-54.5 181q0 118 54.5 184t151.5 66q62 0 103.5 -30.5t60.5 -82.5l6 103h152zM372.5 168.5q24.5 30.5 24.5 88.5v9
q0 57 -24 88t-68 31q-45 0 -69.5 -30.5t-24.5 -92.5t24.5 -93t69.5 -31q43 0 67.5 30.5z" />
    <glyph glyph-name="gbreve.ss01" horiz-adv-x="628" 
d="M568 500v-460q0 -255 -281 -255q-98 0 -158.5 33t-73.5 113l163 43q4 -82 86 -82q43 0 68 28t25 79v92q-24 -36 -62.5 -56.5t-88.5 -20.5q-97 0 -151.5 65t-54.5 181q0 118 54.5 184t151.5 66q62 0 103.5 -30.5t60.5 -82.5l6 103h152zM372.5 168.5q24.5 30.5 24.5 88.5v9
q0 57 -24 88t-68 31q-45 0 -69.5 -30.5t-24.5 -92.5t24.5 -93t69.5 -31q43 0 67.5 30.5zM434 598.5q-45 -43.5 -124 -43.5t-124 43.5t-45 119.5h110q0 -31 16 -49.5t43 -18.5t43 18.5t16 49.5h110q0 -76 -45 -119.5z" />
    <glyph glyph-name="gcommaaccent.ss01" horiz-adv-x="628" 
d="M393 563h-142l70 209h108zM568 500v-460q0 -255 -281 -255q-98 0 -158.5 33t-73.5 113l163 43q4 -82 86 -82q43 0 68 28t25 79v92q-24 -36 -62.5 -56.5t-88.5 -20.5q-97 0 -151.5 65t-54.5 181q0 118 54.5 184t151.5 66q62 0 103.5 -30.5t60.5 -82.5l6 103h152z
M372.5 168.5q24.5 30.5 24.5 88.5v9q0 57 -24 88t-68 31q-45 0 -69.5 -30.5t-24.5 -92.5t24.5 -93t69.5 -31q43 0 67.5 30.5z" />
    <glyph glyph-name="l.ss02" horiz-adv-x="293" 
d="M231 0h-170v712h170v-712z" />
    <glyph glyph-name="lacute.ss02" horiz-adv-x="293" 
d="M273 920l-79 -152h-123l50 152h152zM231 0h-170v712h170v-712z" />
    <glyph glyph-name="lcaron.ss02" horiz-adv-x="376" 
d="M231 0h-170v712h170v-712zM370 473h-97l21 239h129z" />
    <glyph glyph-name="lcommaaccent.ss02" horiz-adv-x="293" 
d="M231 0h-170v712h170v-712zM150 -241h-110l32 181h149z" />
    <glyph glyph-name="ldot.ss02" horiz-adv-x="507" 
d="M231 0h-170v712h170v-712zM473.5 419.5q26.5 -23.5 26.5 -66.5q0 -42 -26.5 -66t-73.5 -24t-73.5 24t-26.5 66q0 43 26.5 66.5t73.5 23.5t73.5 -23.5z" />
    <glyph glyph-name="lslash.ss02" horiz-adv-x="350" 
d="M335 379l-74 -40v-339h-170v236l-76 -50v119l76 41v366h170v-263l74 49v-119z" />
    <glyph glyph-name="n.swsh" horiz-adv-x="650" 
d="M631 15q10 2 22 8l-12 -102q-28 -13 -48 -18t-53 -5q-68 0 -108 35.5t-40 103.5v249q0 51 -18.5 72.5t-52.5 21.5q-40 0 -65 -28.5t-25 -87.5v-264h-170v500h152l5 -96q24 53 68 79.5t103 26.5q79 0 126 -46t47 -131v-274q0 -46 43 -46q16 0 26 2z" />
    <glyph glyph-name="nacute.swsh" horiz-adv-x="650" 
d="M631 15q10 2 22 8l-12 -102q-28 -13 -48 -18t-53 -5q-68 0 -108 35.5t-40 103.5v249q0 51 -18.5 72.5t-52.5 21.5q-40 0 -65 -28.5t-25 -87.5v-264h-170v500h152l5 -96q24 53 68 79.5t103 26.5q79 0 126 -46t47 -131v-274q0 -46 43 -46q16 0 26 2zM461 738l-101 -173
h-124l67 173h158z" />
    <glyph glyph-name="ncaron.swsh" horiz-adv-x="650" 
d="M631 15q10 2 22 8l-12 -102q-28 -13 -48 -18t-53 -5q-68 0 -108 35.5t-40 103.5v249q0 51 -18.5 72.5t-52.5 21.5q-40 0 -65 -28.5t-25 -87.5v-264h-170v500h152l5 -96q24 53 68 79.5t103 26.5q79 0 126 -46t47 -131v-274q0 -46 43 -46q16 0 26 2zM392 565h-166l-108 173
h123l68 -87l68 87h123z" />
    <glyph glyph-name="ncommaaccent.swsh" horiz-adv-x="650" 
d="M631 15q10 2 22 8l-12 -102q-28 -13 -48 -18t-53 -5q-68 0 -108 35.5t-40 103.5v249q0 51 -18.5 72.5t-52.5 21.5q-40 0 -65 -28.5t-25 -87.5v-264h-170v500h152l5 -96q24 53 68 79.5t103 26.5q79 0 126 -46t47 -131v-274q0 -46 43 -46q16 0 26 2zM295 -241h-110l32 181
h149z" />
    <glyph glyph-name="ntilde.swsh" horiz-adv-x="650" 
d="M631 15q10 2 22 8l-12 -102q-28 -13 -48 -18t-53 -5q-68 0 -108 35.5t-40 103.5v249q0 51 -18.5 72.5t-52.5 21.5q-40 0 -65 -28.5t-25 -87.5v-264h-170v500h152l5 -96q24 53 68 79.5t103 26.5q79 0 126 -46t47 -131v-274q0 -46 43 -46q16 0 26 2zM378 559q-30 0 -48.5 9
t-39.5 26q-13 11 -22.5 16.5t-20.5 5.5q-16 0 -25 -14t-12 -42h-96q6 159 132 159q30 0 48.5 -9.5t40.5 -26.5q15 -12 22.5 -16.5t18.5 -4.5q17 0 26 14t12 42h96q-6 -159 -132 -159z" />
    <glyph glyph-name="r.swsh" horiz-adv-x="608" 
d="M445 499.5q27 -10.5 61 -31.5q31 -19 52.5 -28.5t53.5 -14.5l-79 -121q-26 5 -46 14t-45 23q-27 15 -46 22.5t-43 7.5q-58 0 -90 -37t-32 -94v-240h-170v500h150l7 -109q21 62 61.5 90.5t95.5 28.5q43 0 70 -10.5z" />
    <glyph glyph-name="racute.swsh" horiz-adv-x="608" 
d="M445 499.5q27 -10.5 61 -31.5q31 -19 52.5 -28.5t53.5 -14.5l-79 -121q-26 5 -46 14t-45 23q-27 15 -46 22.5t-43 7.5q-58 0 -90 -37t-32 -94v-240h-170v500h150l7 -109q21 62 61.5 90.5t95.5 28.5q43 0 70 -10.5zM417 738l-101 -173h-124l67 173h158z" />
    <glyph glyph-name="rcaron.swsh" horiz-adv-x="608" 
d="M445 499.5q27 -10.5 61 -31.5q31 -19 52.5 -28.5t53.5 -14.5l-79 -121q-26 5 -46 14t-45 23q-27 15 -46 22.5t-43 7.5q-58 0 -90 -37t-32 -94v-240h-170v500h150l7 -109q21 62 61.5 90.5t95.5 28.5q43 0 70 -10.5zM349 565h-166l-108 173h123l68 -87l68 87h123z" />
    <glyph glyph-name="rcommaaccent.swsh" horiz-adv-x="608" 
d="M445 499.5q27 -10.5 61 -31.5q31 -19 52.5 -28.5t53.5 -14.5l-79 -121q-26 5 -46 14t-45 23q-27 15 -46 22.5t-43 7.5q-58 0 -90 -37t-32 -94v-240h-170v500h150l7 -109q21 62 61.5 90.5t95.5 28.5q43 0 70 -10.5zM153 -241h-110l32 181h149z" />
    <glyph glyph-name="t.swsh" horiz-adv-x="515" 
d="M269 379v-201q0 -67 66 -67q41 0 72 22l17 -105q-25 -17 -63.5 -27.5t-77.5 -10.5q-89 0 -136 38t-48 122v229h-86v121h86v112l170 47v-159h133q57 0 91.5 10t65.5 36l51 -96q-33 -38 -81.5 -54.5t-120.5 -16.5h-139z" />
    <glyph glyph-name="tcaron.swsh" horiz-adv-x="515" 
d="M413 549h-97l21 218h129zM269 379v-201q0 -67 66 -67q41 0 72 22l17 -105q-25 -17 -63.5 -27.5t-77.5 -10.5q-89 0 -136 38t-48 122v229h-86v121h86v112l170 47v-159h133q57 0 91.5 10t65.5 36l51 -96q-33 -38 -81.5 -54.5t-120.5 -16.5h-139z" />
    <glyph glyph-name="uni0163.swsh" horiz-adv-x="541" 
d="M269 379v-201q0 -67 66 -67q41 0 72 22l17 -105q-25 -18 -67 -29q57 -40 57 -96q0 -57 -39.5 -87.5t-103.5 -30.5q-45 0 -74.5 10.5t-50.5 29.5l40 79q26 -28 69 -28q27 0 42.5 13t15.5 37q0 22 -12.5 37t-43.5 28q-76 5 -116.5 43t-41.5 116v229h-86v121h86v112l170 47
v-159h133q57 0 91.5 10t65.5 36l51 -96q-33 -38 -81.5 -54.5t-120.5 -16.5h-139z" />
    <glyph glyph-name="uni021B.swsh" horiz-adv-x="515" 
d="M269 379v-201q0 -67 66 -67q41 0 72 22l17 -105q-25 -17 -63.5 -27.5t-77.5 -10.5q-89 0 -136 38t-48 122v229h-86v121h86v112l170 47v-159h133q57 0 91.5 10t65.5 36l51 -96q-33 -38 -81.5 -54.5t-120.5 -16.5h-139zM260 -241h-110l32 181h149z" />
    <glyph glyph-name="y.swsh" horiz-adv-x="614" 
d="M3 -178l36 114q16 -15 35.5 -20.5t50.5 -5.5t49 10.5t29 37.5l12 31l-58 136l-149 375h187l77 -285l24 -106l27 110l70 223q42 148 181 148q39 0 64.5 -8.5t48.5 -28.5l-31 -105q-11 7 -22 10t-28 3q-30 0 -49 -16t-32 -54l-138 -391q-26 -80 -59 -127t-78.5 -67.5
t-110.5 -20.5q-85 0 -136 37z" />
    <glyph glyph-name="yacute.swsh" horiz-adv-x="614" 
d="M3 -178l36 114q16 -15 35.5 -20.5t50.5 -5.5t49 10.5t29 37.5l12 31l-58 136l-149 375h187l77 -285l24 -106l27 110l70 223q42 148 181 148q39 0 64.5 -8.5t48.5 -28.5l-31 -105q-11 7 -22 10t-28 3q-30 0 -49 -16t-32 -54l-138 -391q-26 -80 -59 -127t-78.5 -67.5
t-110.5 -20.5q-85 0 -136 37zM451 738l-101 -173h-124l67 173h158z" />
    <glyph glyph-name="ydieresis.swsh" horiz-adv-x="614" 
d="M3 -178l36 114q16 -15 35.5 -20.5t50.5 -5.5t49 10.5t29 37.5l12 31l-58 136l-149 375h187l77 -285l24 -106l27 110l70 223q42 148 181 148q39 0 64.5 -8.5t48.5 -28.5l-31 -105q-11 7 -22 10t-28 3q-30 0 -49 -16t-32 -54l-138 -391q-26 -80 -59 -127t-78.5 -67.5
t-110.5 -20.5q-85 0 -136 37zM255 689.5q23 -20.5 23 -56.5t-23 -56.5t-63 -20.5q-39 0 -61.5 20.5t-22.5 56.5t22.5 56.5t61.5 20.5q40 0 63 -20.5zM475 689.5q23 -20.5 23 -56.5t-23 -56.5t-63 -20.5q-39 0 -61.5 20.5t-22.5 56.5t22.5 56.5t61.5 20.5q40 0 63 -20.5z" />
    <glyph glyph-name="c_t" horiz-adv-x="951" 
d="M941 28q-25 -17 -63.5 -27.5t-77.5 -10.5q-89 0 -136.5 38t-47.5 122v361q0 48 -17.5 70.5t-44.5 22.5q-60 0 -60 -83q0 -67 46 -166l-157 -52q-12 86 -77 86q-99 0 -99 -141q0 -137 99 -137q67 0 83 81l152 -49q-10 -68 -71 -110.5t-163 -42.5q-130 0 -200 68t-70 192
q0 123 69.5 191.5t193.5 68.5q40 0 79 -13q-11 25 -11 58q0 81 54.5 125t146.5 44q56 0 105.5 -19t80.5 -60t31 -104v-41h150v-121h-150v-201q0 -67 66 -67q41 0 72 22z" />
    <glyph glyph-name="s_t" horiz-adv-x="916" 
d="M906 28q-25 -17 -63.5 -27.5t-77.5 -10.5q-89 0 -136.5 38t-47.5 122v355q0 48 -19 70.5t-47 22.5t-43 -17.5t-15 -48.5q0 -30 9.5 -55.5t35.5 -57.5l-84 -81q-38 61 -134 61q-36 0 -56.5 -12t-20.5 -28q0 -17 20 -26.5t77 -19.5q107 -17 154.5 -53t47.5 -103
q0 -47 -26.5 -85t-80 -60t-131.5 -22q-174 0 -245 90l86 91q24 -33 64 -51.5t88 -18.5q34 0 54.5 10.5t20.5 27.5t-22 29t-76 21q-107 20 -154.5 57.5t-47.5 99.5q0 42 27.5 79.5t82 61t132.5 23.5q37 0 67 -6q-15 25 -15 50q0 83 59 126.5t151 43.5q95 0 153 -45.5
t58 -143.5v-35h150v-121h-150v-201q0 -67 66 -67q41 0 72 22z" />
    <glyph glyph-name="longs_i" horiz-adv-x="579" 
d="M59 546q0 92 45.5 136t129.5 44q43 0 69 -16l-6 -112q-12 9 -30 9q-43 0 -43 -60v-547h-165v546zM358.5 577.5q-23.5 19.5 -23.5 61.5q0 43 23.5 62.5t75.5 19.5t75.5 -19.5t23.5 -62.5q0 -42 -23.5 -61.5t-75.5 -19.5t-75.5 19.5zM519 0h-170v500h170v-500z" />
    <glyph glyph-name="longs_l" horiz-adv-x="652" 
d="M59 546q0 90 52 135t139 45q35 0 58 -6t39 -19l-10 -106q-17 12 -43 12q-33 0 -51.5 -18t-18.5 -56v-533h-165v546zM554 173q0 -33 10.5 -47.5t36.5 -14.5q23 0 50 9l-11 -105q-17 -11 -46 -18t-58 -7q-80 0 -116 37.5t-36 120.5v564h170v-539z" />
    <glyph glyph-name="longs_s" horiz-adv-x="819" 
d="M59 546q0 90 52 135t139 45q35 0 58 -6t39 -19l-10 -106q-17 12 -43 12q-33 0 -51.5 -18t-18.5 -56v-533h-165v546zM309 78l88 96q43 -71 148 -71q35 0 55 9.5t20 25.5q0 14 -20.5 24.5t-70.5 20.5q-112 22 -159.5 60t-47.5 101q0 43 27 81t81.5 61.5t132.5 23.5
q86 0 140.5 -23.5t88.5 -70.5l-88 -86q-24 35 -57 51t-79 16q-36 0 -56 -11t-20 -27q0 -15 20.5 -25.5t71.5 -20.5q110 -19 158.5 -56.5t48.5 -102.5q0 -73 -61 -118.5t-177 -45.5q-172 0 -244 88z" />
    <glyph glyph-name="g.ss01_j" horiz-adv-x="909" 
d="M698.5 578q-23.5 20 -23.5 61q0 42 23.5 62t74.5 20t75.5 -20t24.5 -62q0 -41 -24 -61t-76 -20q-51 0 -74.5 20zM416 500h152v-460q0 -255 -281 -255q-98 0 -158.5 33t-73.5 113l163 43q4 -82 86 -82q43 0 68 28t25 79v92q-24 -36 -62.5 -56.5t-88.5 -20.5
q-97 0 -151.5 65t-54.5 181q0 118 54.5 184t151.5 66q62 0 103.5 -30.5t60.5 -82.5zM689 500h170v-534q0 -181 -197 -181q-52 0 -93 22l24 121q21 -19 50 -19q46 0 46 66v525zM372.5 168.5q24.5 30.5 24.5 88.5v9q0 57 -24 88t-68 31q-45 0 -69.5 -30.5t-24.5 -92.5
t24.5 -93t69.5 -31q43 0 67.5 30.5z" />
    <glyph glyph-name="fl.ss02" horiz-adv-x="708" 
d="M255 500h152v-121h-142v-379h-170v379h-80v121h80v46q0 90 56 135t146 45q78 0 115 -29l-17 -106q-22 16 -57 16q-83 0 -83 -72v-35zM646 0h-170v712h170v-712z" />
    <glyph glyph-name="longs_l.ss02" horiz-adv-x="616" 
d="M59 546q0 90 52 135t139 45q35 0 58 -6t39 -19l-10 -106q-17 12 -43 12q-33 0 -51.5 -18t-18.5 -56v-533h-165v546zM554 0h-170v712h170v-712z" />
    <glyph glyph-name="Gcommaaccent.sc" horiz-adv-x="640" 
d="M328 305h262v-305h-107l-6 86q-48 -94 -166 -94q-82 0 -143 34t-94.5 99t-33.5 155q0 137 78 212.5t216 75.5q99 0 166 -41.5t91 -119.5l-145 -48q-12 45 -38.5 64.5t-67.5 19.5q-61 0 -95.5 -42t-34.5 -121q0 -167 137 -167q48 0 73.5 24.5t26.5 68.5v1h-119v98z
M348 -241h-110l32 181h149z" />
    <glyph glyph-name="Kcommaaccent.sc" horiz-adv-x="656" 
d="M315 225l-76 -80v-145h-170v560h170v-243l221 243h182l-210 -233l217 -327h-193zM353 -241h-110l32 181h149z" />
    <glyph glyph-name="Lcommaaccent.sc" horiz-adv-x="580" 
d="M533 128v-128h-464v560h170v-432h294zM326 -241h-110l32 181h149z" />
    <glyph glyph-name="Ncommaaccent.sc" horiz-adv-x="690" 
d="M621 0h-191l-165 294l-43 88h-2l6 -124v-258h-157v560h191l165 -293l43 -89h3l-6 124v258h156v-560zM358 -241h-110l32 181h149z" />
    <glyph glyph-name="Rcommaaccent.sc" horiz-adv-x="624" 
d="M322 194h-85v-194h-168v560h284q109 0 169.5 -48t60.5 -135q0 -60 -29 -101.5t-83 -62.5l139 -213h-182zM237 300h95q85 0 85 71q0 35 -21.5 53t-63.5 18h-95v-142zM341 -241h-110l32 181h149z" />
    <glyph glyph-name="Scedilla.sc" horiz-adv-x="574" 
d="M499.5 60q-46.5 -46 -129.5 -61q28 -19 42.5 -43.5t14.5 -52.5q0 -57 -39 -87.5t-104 -30.5q-81 0 -124 40l39 79q28 -28 72 -28q25 0 40 13t15 36t-16 39t-58 29q-74 4 -129.5 25t-100.5 62l74 116q41 -44 84 -61.5t106 -17.5q88 0 88 44q0 22 -26.5 30.5t-83.5 16.5
q-69 10 -115.5 23.5t-81 49.5t-34.5 102q0 56 31.5 97.5t89.5 64.5t136 23q89 0 146.5 -21t109.5 -68l-78 -113q-40 43 -78.5 60t-97.5 17q-43 0 -65 -13t-22 -35q0 -21 26.5 -30.5t83.5 -17.5q70 -11 116 -24.5t80.5 -49t34.5 -99.5q0 -68 -46.5 -114z" />
    <glyph glyph-name="Scommaaccent.sc" horiz-adv-x="574" 
d="M436.5 547q57.5 -21 109.5 -68l-78 -113q-40 43 -78.5 60t-97.5 17q-43 0 -65 -13t-22 -35q0 -21 26.5 -30.5t83.5 -17.5q70 -11 116 -24.5t80.5 -49t34.5 -99.5q0 -85 -70 -133.5t-189 -48.5q-88 0 -151.5 21.5t-113.5 66.5l74 116q41 -44 84 -61.5t106 -17.5
q88 0 88 44q0 22 -26.5 30.5t-83.5 16.5q-69 10 -115.5 23.5t-81 49.5t-34.5 102q0 56 31.5 97.5t89.5 64.5t136 23q89 0 146.5 -21zM317 -241h-110l32 181h149z" />
    <glyph glyph-name="uni0162.sc" horiz-adv-x="607" 
d="M389 432v-431q47 -32 47 -94q0 -60 -39.5 -91t-103.5 -31q-84 0 -128 41l46 82q26 -31 67 -31q24 0 40.5 14t16.5 40q0 25 -18.5 40.5t-58.5 28.5h-39v432h-191v128h551v-128h-190z" />
    <glyph glyph-name="uni021A.sc" horiz-adv-x="607" 
d="M579 432h-190v-432h-170v432h-191v128h551v-128zM306 -241h-110l32 181h149z" />
    <glyph glyph-name="a.sc" horiz-adv-x="629" 
d="M414 116h-206l-40 -116h-161l206 560h203l206 -560h-168zM376 230l-12 35l-51 171h-3l-51 -171l-12 -35h129z" />
    <glyph glyph-name="aacute.sc" horiz-adv-x="629" 
d="M367 623h-124l55 159h161zM414 116h-206l-40 -116h-161l206 560h203l206 -560h-168zM376 230l-12 35l-51 171h-3l-51 -171l-12 -35h129z" />
    <glyph glyph-name="abreve.sc" horiz-adv-x="629" 
d="M414 116h-206l-40 -116h-161l206 560h203l206 -560h-168zM376 230l-12 35l-51 171h-3l-51 -171l-12 -35h129zM438 658.5q-45 -43.5 -124 -43.5t-124 43.5t-45 119.5h110q0 -31 16 -49.5t43 -18.5t43 18.5t16 49.5h110q0 -76 -45 -119.5z" />
    <glyph glyph-name="acircumflex.sc" horiz-adv-x="629" 
d="M247 619h-126l111 167h164l111 -167h-126l-67 88zM414 116h-206l-40 -116h-161l206 560h203l206 -560h-168zM376 230l-12 35l-51 171h-3l-51 -171l-12 -35h129z" />
    <glyph glyph-name="adieresis.sc" horiz-adv-x="629" 
d="M414 116h-206l-40 -116h-161l206 560h203l206 -560h-168zM376 230l-12 35l-51 171h-3l-51 -171l-12 -35h129zM266 749.5q23 -20.5 23 -56.5t-23 -56.5t-63 -20.5q-39 0 -61.5 20.5t-22.5 56.5t22.5 56.5t61.5 20.5q40 0 63 -20.5zM486 749.5q23 -20.5 23 -56.5t-23 -56.5
t-63 -20.5q-39 0 -61.5 20.5t-22.5 56.5t22.5 56.5t61.5 20.5q40 0 63 -20.5z" />
    <glyph glyph-name="agrave.sc" horiz-adv-x="629" 
d="M246 623l-92 159h161l55 -159h-124zM414 116h-206l-40 -116h-161l206 560h203l206 -560h-168zM376 230l-12 35l-51 171h-3l-51 -171l-12 -35h129z" />
    <glyph glyph-name="amacron.sc" horiz-adv-x="629" 
d="M414 116h-206l-40 -116h-161l206 560h203l206 -560h-168zM376 230l-12 35l-51 171h-3l-51 -171l-12 -35h129zM500 629h-372v105h372v-105z" />
    <glyph glyph-name="aogonek.sc" horiz-adv-x="629" 
d="M629 -192q-37 -23 -104 -23q-62 0 -100 29t-38 84q0 68 66 104l-39 114h-206l-40 -116h-161l206 560h203l206 -560q-65 -11 -91 -30t-26 -46q0 -21 14.5 -32.5t40.5 -11.5q31 0 46 10zM376 230l-12 35l-51 171h-3l-51 -171l-12 -35h129z" />
    <glyph glyph-name="aring.sc" horiz-adv-x="629" 
d="M415 116h-205l-40 -116h-163l202 538q-44 33 -44 94q0 58 40 93.5t110 35.5q69 0 109 -35.5t40 -93.5q0 -60 -45 -93l203 -539h-166zM272 666.5q-16 -15.5 -16 -40.5t16 -40.5t42 -15.5q27 0 43 15t16 41t-16 41t-43 15q-26 0 -42 -15.5zM375 230l-12 35l-48 165h-4
l-50 -165l-12 -35h126z" />
    <glyph glyph-name="atilde.sc" horiz-adv-x="629" 
d="M414 116h-206l-40 -116h-161l206 560h203l206 -560h-168zM376 230l-12 35l-51 171h-3l-51 -171l-12 -35h129zM380 619q-30 0 -48.5 9t-39.5 26q-13 11 -22.5 16.5t-20.5 5.5q-16 0 -25 -14t-12 -42h-96q6 159 132 159q30 0 48.5 -9.5t40.5 -26.5q15 -12 22.5 -16.5
t18.5 -4.5q17 0 26 14t12 42h96q-6 -159 -132 -159z" />
    <glyph glyph-name="ae.sc" horiz-adv-x="856" 
d="M823 117v-117h-451v158h-157l-61 -158h-160l240 560h577v-117h-283v-106h213v-114h-213v-106h295zM372 272v174h-46l-67 -174h113z" />
    <glyph glyph-name="b.sc" horiz-adv-x="627" 
d="M69 560h302q205 -1 205 -151q0 -49 -29.5 -83t-85.5 -44v-3q64 -7 97 -41t33 -88q0 -73 -52.5 -111.5t-154.5 -38.5h-315v560zM336 332q39 0 57.5 13.5t18.5 42.5t-18.5 43t-57.5 14h-103v-113h103zM354 111q35 0 54 14t19 41q0 28 -19 42t-54 14h-121v-111h121z" />
    <glyph glyph-name="c.sc" horiz-adv-x="607" 
d="M507 39.5q-70 -47.5 -180 -47.5q-135 0 -211 76t-76 212q0 137 77.5 212.5t215.5 75.5q98 0 167 -45.5t85 -129.5l-153 -45q-6 48 -32 69t-69 21q-56 0 -88.5 -40t-32.5 -118t32 -118t90 -40q49 0 75.5 21t31.5 66l151 -41q-13 -81 -83 -128.5z" />
    <glyph glyph-name="cacute.sc" horiz-adv-x="607" 
d="M480 782l-92 -159h-124l55 159h161zM507 39.5q-70 -47.5 -180 -47.5q-135 0 -211 76t-76 212q0 137 77.5 212.5t215.5 75.5q98 0 167 -45.5t85 -129.5l-153 -45q-6 48 -32 69t-69 21q-56 0 -88.5 -40t-32.5 -118t32 -118t90 -40q49 0 75.5 21t31.5 66l151 -41
q-13 -81 -83 -128.5z" />
    <glyph glyph-name="ccaron.sc" horiz-adv-x="607" 
d="M414 621h-164l-111 167h126l67 -88l67 88h126zM507 39.5q-70 -47.5 -180 -47.5q-135 0 -211 76t-76 212q0 137 77.5 212.5t215.5 75.5q98 0 167 -45.5t85 -129.5l-153 -45q-6 48 -32 69t-69 21q-56 0 -88.5 -40t-32.5 -118t32 -118t90 -40q49 0 75.5 21t31.5 66l151 -41
q-13 -81 -83 -128.5z" />
    <glyph glyph-name="ccedilla.sc" horiz-adv-x="607" 
d="M531.5 59.5q-47.5 -44.5 -123.5 -59.5q28 -18 42.5 -43.5t14.5 -53.5q0 -57 -39 -87.5t-104 -30.5q-81 0 -124 40l39 79q28 -28 72 -28q25 0 40 13t15 36q0 24 -17 40t-60 29q-117 11 -182 86t-65 200q0 137 77.5 212.5t215.5 75.5q98 0 167 -45.5t85 -129.5l-153 -45
q-6 48 -32 69t-69 21q-56 0 -88.5 -40t-32.5 -118t32 -118t90 -40q49 0 75.5 21t31.5 66l151 -41q-11 -64 -58.5 -108.5z" />
    <glyph glyph-name="d.sc" horiz-adv-x="660" 
d="M537.5 487q76.5 -73 76.5 -207t-76.5 -207t-217.5 -73h-251v560h251q141 0 217.5 -73zM413 165.5q30 38.5 30 114.5t-30 114.5t-93 38.5h-81v-306h81q63 0 93 38.5z" />
    <glyph glyph-name="eth.sc" horiz-adv-x="678" 
d="M556.5 487q76.5 -73 76.5 -207t-76.5 -207t-217.5 -73h-251v243h-78v73h78v244h251q141 0 217.5 -73zM432 165.5q30 38.5 30 114.5t-30 114.5t-93 38.5h-81v-117h110v-73h-110v-116h81q63 0 93 38.5z" />
    <glyph glyph-name="dcaron.sc" horiz-adv-x="660" 
d="M215 621l-111 167h126l67 -88l67 88h126l-111 -167h-164zM537.5 487q76.5 -73 76.5 -207t-76.5 -207t-217.5 -73h-251v560h251q141 0 217.5 -73zM413 165.5q30 38.5 30 114.5t-30 114.5t-93 38.5h-81v-306h81q63 0 93 38.5z" />
    <glyph glyph-name="dcroat.sc" horiz-adv-x="678" 
d="M556.5 487q76.5 -73 76.5 -207t-76.5 -207t-217.5 -73h-251v243h-78v73h78v244h251q141 0 217.5 -73zM432 165.5q30 38.5 30 114.5t-30 114.5t-93 38.5h-81v-117h110v-73h-110v-116h81q63 0 93 38.5z" />
    <glyph glyph-name="e.sc" horiz-adv-x="582" 
d="M549 119v-119h-480v560h474v-119h-304v-102h236v-114h-236v-106h310z" />
    <glyph glyph-name="eacute.sc" horiz-adv-x="582" 
d="M359 623h-124l54 159h162zM549 119v-119h-480v560h474v-119h-304v-102h236v-114h-236v-106h310z" />
    <glyph glyph-name="ecaron.sc" horiz-adv-x="582" 
d="M215 621l-111 167h126l67 -88l67 88h126l-111 -167h-164zM549 119v-119h-480v560h474v-119h-304v-102h236v-114h-236v-106h310z" />
    <glyph glyph-name="ecircumflex.sc" horiz-adv-x="582" 
d="M233 619h-126l111 167h164l111 -167h-126l-67 88zM549 119v-119h-480v560h474v-119h-304v-102h236v-114h-236v-106h310z" />
    <glyph glyph-name="edieresis.sc" horiz-adv-x="582" 
d="M549 119v-119h-480v560h474v-119h-304v-102h236v-114h-236v-106h310zM252 749.5q23 -20.5 23 -56.5t-23 -56.5t-63 -20.5q-39 0 -61.5 20.5t-22.5 56.5t22.5 56.5t61.5 20.5q40 0 63 -20.5zM472 749.5q23 -20.5 23 -56.5t-23 -56.5t-63 -20.5q-39 0 -61.5 20.5
t-22.5 56.5t22.5 56.5t61.5 20.5q40 0 63 -20.5z" />
    <glyph glyph-name="edotaccent.sc" horiz-adv-x="582" 
d="M549 119v-119h-480v560h474v-119h-304v-102h236v-114h-236v-106h310zM369.5 761.5q23.5 -20.5 23.5 -59.5q0 -40 -23.5 -60.5t-69.5 -20.5q-44 0 -67.5 20.5t-23.5 60.5q0 39 23.5 59.5t67.5 20.5q46 0 69.5 -20.5z" />
    <glyph glyph-name="egrave.sc" horiz-adv-x="582" 
d="M240 623l-92 159h161l55 -159h-124zM549 119v-119h-480v560h474v-119h-304v-102h236v-114h-236v-106h310z" />
    <glyph glyph-name="emacron.sc" horiz-adv-x="582" 
d="M549 119v-119h-480v560h474v-119h-304v-102h236v-114h-236v-106h310zM486 629h-372v105h372v-105z" />
    <glyph glyph-name="eogonek.sc" horiz-adv-x="582" 
d="M556 -192q-37 -23 -104 -23q-62 0 -100.5 28.5t-38.5 82.5q0 69 79 104h-323v560h474v-119h-304v-102h236v-114h-236v-106h310v-119q-65 -12 -91 -30.5t-26 -45.5q0 -21 14.5 -32.5t40.5 -11.5q31 0 46 10z" />
    <glyph glyph-name="f.sc" horiz-adv-x="571" 
d="M239 441v-109h236v-119h-236v-213h-170v560h474v-119h-304z" />
    <glyph glyph-name="g.sc" horiz-adv-x="640" 
d="M328 305h262v-305h-107l-6 86q-48 -94 -166 -94q-82 0 -143 34t-94.5 99t-33.5 155q0 137 78 212.5t216 75.5q99 0 166 -41.5t91 -119.5l-145 -48q-12 45 -38.5 64.5t-67.5 19.5q-61 0 -95.5 -42t-34.5 -121q0 -167 137 -167q48 0 73.5 24.5t26.5 68.5v1h-119v98z" />
    <glyph glyph-name="gbreve.sc" horiz-adv-x="640" 
d="M328 305h262v-305h-107l-6 86q-48 -94 -166 -94q-82 0 -143 34t-94.5 99t-33.5 155q0 137 78 212.5t216 75.5q99 0 166 -41.5t91 -119.5l-145 -48q-12 45 -38.5 64.5t-67.5 19.5q-61 0 -95.5 -42t-34.5 -121q0 -167 137 -167q48 0 73.5 24.5t26.5 68.5v1h-119v98z
M462 658.5q-45 -43.5 -124 -43.5t-124 43.5t-45 119.5h110q0 -31 16 -49.5t43 -18.5t43 18.5t16 49.5h110q0 -76 -45 -119.5z" />
    <glyph glyph-name="h.sc" horiz-adv-x="681" 
d="M611 560v-560h-170v220h-202v-220h-170v560h170v-212h202v212h170z" />
    <glyph glyph-name="i.sc" horiz-adv-x="309" 
d="M239 0h-170v560h170v-560z" />
    <glyph glyph-name="iacute.sc" horiz-adv-x="309" 
d="M300 782l-92 -159h-123l54 159h161zM239 0h-170v560h170v-560z" />
    <glyph glyph-name="iacute_j.loclNLD.sc" horiz-adv-x="880" 
d="M300 782l-92 -159h-124l54 159h162zM887 782l-92 -159h-123l54 159h161zM239 0h-170v560h170v-560zM821 215q0 -223 -248 -223q-114 0 -174 50.5t-60 136.5q0 26 6 54l159 27q-4 -27 -4 -52q0 -47 18 -66.5t53 -19.5q43 0 61.5 25.5t18.5 81.5v331h170v-345z" />
    <glyph glyph-name="icircumflex.sc" horiz-adv-x="309" 
d="M221 619l-67 88l-67 -88h-126l111 167h164l111 -167h-126zM239 0h-170v560h170v-560z" />
    <glyph glyph-name="idieresis.sc" horiz-adv-x="309" 
d="M114.5 749.5q22.5 -20.5 22.5 -56.5t-22.5 -56.5t-61.5 -20.5q-38 0 -60 20.5t-22 56.5t22 56.5t60 20.5q39 0 61.5 -20.5zM314.5 749.5q22.5 -20.5 22.5 -56.5t-22.5 -56.5t-61.5 -20.5q-38 0 -59.5 20.5t-21.5 56.5t21.5 56.5t59.5 20.5q39 0 61.5 -20.5zM239 0h-170
v560h170v-560z" />
    <glyph glyph-name="i.sc.loclTRK" horiz-adv-x="309" 
d="M239 0h-170v560h170v-560zM223.5 743.5q23.5 -20.5 23.5 -59.5q0 -40 -23.5 -60.5t-69.5 -20.5q-44 0 -67.5 20.5t-23.5 60.5q0 39 23.5 59.5t67.5 20.5q46 0 69.5 -20.5z" />
    <glyph glyph-name="igrave.sc" horiz-adv-x="309" 
d="M210 623h-124l-92 159h161zM239 0h-170v560h170v-560z" />
    <glyph glyph-name="ij.sc" horiz-adv-x="880" 
d="M239 0h-170v560h170v-560zM821 215q0 -223 -248 -223q-114 0 -174 50.5t-60 136.5q0 26 6 54l159 27q-4 -25 -4 -51q0 -48 17.5 -67.5t53.5 -19.5q44 0 62 25.5t18 81.5v331h170v-345z" />
    <glyph glyph-name="imacron.sc" horiz-adv-x="309" 
d="M287 629h-266v105h266v-105zM239 0h-170v560h170v-560z" />
    <glyph glyph-name="iogonek.sc" horiz-adv-x="309" 
d="M254 -191q-20 -13 -45 -18.5t-60 -5.5q-61 0 -99.5 28.5t-38.5 82.5q0 66 68 104h-10v560h170v-560h1q-61 -13 -86 -32t-25 -43q0 -21 14 -32.5t39 -11.5q30 0 48 11z" />
    <glyph glyph-name="j.sc" horiz-adv-x="571" 
d="M512 215q0 -223 -248 -223q-114 0 -174 50.5t-60 136.5q0 26 6 54l159 27q-4 -25 -4 -51q0 -48 17.5 -67.5t53.5 -19.5q44 0 62 25.5t18 81.5v331h170v-345z" />
    <glyph glyph-name="k.sc" horiz-adv-x="656" 
d="M315 225l-76 -80v-145h-170v560h170v-243l221 243h182l-210 -233l217 -327h-193z" />
    <glyph glyph-name="l.sc" horiz-adv-x="580" 
d="M533 128v-128h-464v560h170v-432h294z" />
    <glyph glyph-name="lacute.sc" horiz-adv-x="580" 
d="M209 623h-124l55 159h161zM533 128v-128h-464v560h170v-432h294z" />
    <glyph glyph-name="lcaron.sc" horiz-adv-x="580" 
d="M533 128v-128h-464v560h170v-432h294zM418 321h-109l24 239h145z" />
    <glyph glyph-name="ldot.sc" horiz-adv-x="629" 
d="M533 128v-128h-464v560h170v-432h294zM575.5 383q26.5 -24 26.5 -67q0 -42 -26.5 -66t-73.5 -24t-73.5 24t-26.5 66q0 43 26.5 67t73.5 24t73.5 -24z" />
    <glyph glyph-name="lslash.sc" horiz-adv-x="597" 
d="M563 128v-128h-463v183l-96 -47v109l96 47v268h170v-185l150 73v-109l-150 -73v-138h293z" />
    <glyph glyph-name="m.sc" horiz-adv-x="841" 
d="M69 560h232l86 -264l33 -112h3l32 112l85 264h231v-560h-154v210l10 199h-2l-141 -409h-127l-142 409h-1l9 -199v-210h-154v560z" />
    <glyph glyph-name="n.sc" horiz-adv-x="690" 
d="M621 0h-191l-165 294l-43 88h-2l6 -124v-258h-157v560h191l165 -293l43 -89h3l-6 124v258h156v-560z" />
    <glyph glyph-name="nacute.sc" horiz-adv-x="690" 
d="M494 782l-92 -159h-124l55 159h161zM621 0h-191l-165 294l-43 88h-2l6 -124v-258h-157v560h191l165 -293l43 -89h3l-6 124v258h156v-560z" />
    <glyph glyph-name="ncaron.sc" horiz-adv-x="690" 
d="M428 621h-164l-111 167h126l67 -88l67 88h126zM621 0h-191l-165 294l-43 88h-2l6 -124v-258h-157v560h191l165 -293l43 -89h3l-6 124v258h156v-560z" />
    <glyph glyph-name="ntilde.sc" horiz-adv-x="690" 
d="M621 0h-191l-165 294l-43 88h-2l6 -124v-258h-157v560h191l165 -293l43 -89h3l-6 124v258h156v-560zM415 619q-30 0 -48.5 9t-39.5 26q-13 11 -22.5 16.5t-20.5 5.5q-16 0 -25 -14t-12 -42h-96q6 159 132 159q30 0 48.5 -9.5t40.5 -26.5q15 -12 22.5 -16.5t18.5 -4.5
q17 0 26 14t12 42h96q-6 -159 -132 -159z" />
    <glyph glyph-name="o.sc" horiz-adv-x="665" 
d="M547 491.5q78 -76.5 78 -211.5t-78 -211.5t-215 -76.5t-214.5 76.5t-77.5 211.5t77.5 211.5t214.5 76.5t215 -76.5zM210 280q0 -158 122 -158q123 0 123 158t-123 158q-122 0 -122 -158z" />
    <glyph glyph-name="oacute.sc" horiz-adv-x="665" 
d="M477 782l-92 -159h-124l55 159h161zM547 491.5q78 -76.5 78 -211.5t-78 -211.5t-215 -76.5t-214.5 76.5t-77.5 211.5t77.5 211.5t214.5 76.5t215 -76.5zM210 280q0 -158 122 -158q123 0 123 158t-123 158q-122 0 -122 -158z" />
    <glyph glyph-name="ocircumflex.sc" horiz-adv-x="665" 
d="M399 619l-67 88l-67 -88h-126l111 167h164l111 -167h-126zM547 491.5q78 -76.5 78 -211.5t-78 -211.5t-215 -76.5t-214.5 76.5t-77.5 211.5t77.5 211.5t214.5 76.5t215 -76.5zM210 280q0 -158 122 -158q123 0 123 158t-123 158q-122 0 -122 -158z" />
    <glyph glyph-name="odieresis.sc" horiz-adv-x="665" 
d="M547 491.5q78 -76.5 78 -211.5t-78 -211.5t-215 -76.5t-214.5 76.5t-77.5 211.5t77.5 211.5t214.5 76.5t215 -76.5zM210 280q0 -158 122 -158q123 0 123 158t-123 158q-122 0 -122 -158zM284 749.5q23 -20.5 23 -56.5t-23 -56.5t-63 -20.5q-39 0 -61.5 20.5t-22.5 56.5
t22.5 56.5t61.5 20.5q40 0 63 -20.5zM504 749.5q23 -20.5 23 -56.5t-23 -56.5t-63 -20.5q-39 0 -61.5 20.5t-22.5 56.5t22.5 56.5t61.5 20.5q40 0 63 -20.5z" />
    <glyph glyph-name="ograve.sc" horiz-adv-x="665" 
d="M388 623h-124l-92 159h161zM547 491.5q78 -76.5 78 -211.5t-78 -211.5t-215 -76.5t-214.5 76.5t-77.5 211.5t77.5 211.5t214.5 76.5t215 -76.5zM210 280q0 -158 122 -158q123 0 123 158t-123 158q-122 0 -122 -158z" />
    <glyph glyph-name="ohungarumlaut.sc" horiz-adv-x="665" 
d="M360 782l-92 -159h-124l55 159h161zM580 782l-92 -159h-124l55 159h161zM547 491.5q78 -76.5 78 -211.5t-78 -211.5t-215 -76.5t-214.5 76.5t-77.5 211.5t77.5 211.5t214.5 76.5t215 -76.5zM210 280q0 -158 122 -158q123 0 123 158t-123 158q-122 0 -122 -158z" />
    <glyph glyph-name="omacron.sc" horiz-adv-x="665" 
d="M547 491.5q78 -76.5 78 -211.5t-78 -211.5t-215 -76.5t-214.5 76.5t-77.5 211.5t77.5 211.5t214.5 76.5t215 -76.5zM210 280q0 -158 122 -158q123 0 123 158t-123 158q-122 0 -122 -158zM518 629h-372v105h372v-105z" />
    <glyph glyph-name="oslash.sc" horiz-adv-x="665" 
d="M603.5 405q21.5 -55 21.5 -125q0 -135 -78 -211.5t-215 -76.5q-97 0 -166 40l-37 -50h-66l63 79q-42 37 -64 92.5t-22 126.5q0 135 77.5 211.5t214.5 76.5q99 0 169 -41l35 47h66l-61 -77q41 -37 62.5 -92zM210 280q0 -64 20 -102l176 239q-28 21 -74 21
q-122 0 -122 -158zM455 280q0 55 -16 93l-173 -235q26 -16 66 -16q123 0 123 158z" />
    <glyph glyph-name="otilde.sc" horiz-adv-x="665" 
d="M547 491.5q78 -76.5 78 -211.5t-78 -211.5t-215 -76.5t-214.5 76.5t-77.5 211.5t77.5 211.5t214.5 76.5t215 -76.5zM210 280q0 -158 122 -158q123 0 123 158t-123 158q-122 0 -122 -158zM398 619q-30 0 -48.5 9t-39.5 26q-13 11 -22.5 16.5t-20.5 5.5q-16 0 -25 -14
t-12 -42h-96q6 159 132 159q30 0 48.5 -9.5t40.5 -26.5q15 -12 22.5 -16.5t18.5 -4.5q17 0 26 14t12 42h96q-6 -159 -132 -159z" />
    <glyph glyph-name="oe.sc" horiz-adv-x="939" 
d="M906 119v-119h-414v87q-25 -50 -70 -72.5t-114 -22.5q-76 0 -137 35t-96 100t-35 153t35 153t96 100t138 35q68 0 113 -22.5t70 -71.5v86h408v-119h-293v-102h231v-114h-231v-106h299zM448 280q0 158 -118 158q-123 0 -123 -158t123 -158q118 0 118 158z" />
    <glyph glyph-name="p.sc" horiz-adv-x="608" 
d="M518.5 509.5q58.5 -50.5 58.5 -141.5q0 -89 -59 -139.5t-163 -50.5h-116v-178h-170v560h286q105 0 163.5 -50.5zM411 367q0 75 -85 75h-87v-149h87q85 0 85 74z" />
    <glyph glyph-name="thorn.sc" horiz-adv-x="617" 
d="M520.5 422q59.5 -50 59.5 -140t-60 -140t-170 -50h-111v-92h-170v560h170v-88h111q111 0 170.5 -50zM413 282q0 74 -86 74h-88v-147h88q86 0 86 73z" />
    <glyph glyph-name="q.sc" horiz-adv-x="665" 
d="M533.5 -46q23.5 9 41.5 29l41 -113q-25 -20 -61.5 -32t-77.5 -12q-93 0 -144 41.5t-47 127.5q-116 13 -181 87.5t-65 197.5q0 135 77.5 211.5t214.5 76.5t215 -76.5t78 -211.5q0 -123 -65 -198t-182 -88q7 -26 31.5 -37.5t65.5 -11.5q35 0 58.5 9zM332 122q123 0 123 158
t-123 158q-122 0 -122 -158t122 -158z" />
    <glyph glyph-name="r.sc" horiz-adv-x="624" 
d="M322 194h-85v-194h-168v560h284q109 0 169.5 -48t60.5 -135q0 -60 -29 -101.5t-83 -62.5l139 -213h-182zM237 300h95q85 0 85 71q0 35 -21.5 53t-63.5 18h-95v-142z" />
    <glyph glyph-name="racute.sc" horiz-adv-x="624" 
d="M358 623h-124l55 159h161zM322 194h-85v-194h-168v560h284q109 0 169.5 -48t60.5 -135q0 -60 -29 -101.5t-83 -62.5l139 -213h-182zM237 300h95q85 0 85 71q0 35 -21.5 53t-63.5 18h-95v-142z" />
    <glyph glyph-name="rcaron.sc" horiz-adv-x="624" 
d="M220 621l-111 167h126l67 -88l67 88h126l-111 -167h-164zM322 194h-85v-194h-168v560h284q109 0 169.5 -48t60.5 -135q0 -60 -29 -101.5t-83 -62.5l139 -213h-182zM237 300h95q85 0 85 71q0 35 -21.5 53t-63.5 18h-95v-142z" />
    <glyph glyph-name="s.sc" horiz-adv-x="574" 
d="M436.5 547q57.5 -21 109.5 -68l-78 -113q-40 43 -78.5 60t-97.5 17q-43 0 -65 -13t-22 -35q0 -21 26.5 -30.5t83.5 -17.5q70 -11 116 -24.5t80.5 -49t34.5 -99.5q0 -85 -70 -133.5t-189 -48.5q-88 0 -151.5 21.5t-113.5 66.5l74 116q41 -44 84 -61.5t106 -17.5
q88 0 88 44q0 22 -26.5 30.5t-83.5 16.5q-69 10 -115.5 23.5t-81 49.5t-34.5 102q0 56 31.5 97.5t89.5 64.5t136 23q89 0 146.5 -21z" />
    <glyph glyph-name="sacute.sc" horiz-adv-x="574" 
d="M433 782l-92 -159h-124l55 159h161zM436.5 547q57.5 -21 109.5 -68l-78 -113q-40 43 -78.5 60t-97.5 17q-43 0 -65 -13t-22 -35q0 -21 26.5 -30.5t83.5 -17.5q70 -11 116 -24.5t80.5 -49t34.5 -99.5q0 -85 -70 -133.5t-189 -48.5q-88 0 -151.5 21.5t-113.5 66.5l74 116
q41 -44 84 -61.5t106 -17.5q88 0 88 44q0 22 -26.5 30.5t-83.5 16.5q-69 10 -115.5 23.5t-81 49.5t-34.5 102q0 56 31.5 97.5t89.5 64.5t136 23q89 0 146.5 -21z" />
    <glyph glyph-name="scaron.sc" horiz-adv-x="574" 
d="M367 621h-164l-111 167h126l67 -88l67 88h126zM436.5 547q57.5 -21 109.5 -68l-78 -113q-40 43 -78.5 60t-97.5 17q-43 0 -65 -13t-22 -35q0 -21 26.5 -30.5t83.5 -17.5q70 -11 116 -24.5t80.5 -49t34.5 -99.5q0 -85 -70 -133.5t-189 -48.5q-88 0 -151.5 21.5
t-113.5 66.5l74 116q41 -44 84 -61.5t106 -17.5q88 0 88 44q0 22 -26.5 30.5t-83.5 16.5q-69 10 -115.5 23.5t-81 49.5t-34.5 102q0 56 31.5 97.5t89.5 64.5t136 23q89 0 146.5 -21z" />
    <glyph glyph-name="germandbls.sc" horiz-adv-x="668" 
d="M595.5 270.5q45.5 -35.5 45.5 -109.5q0 -79 -52 -122t-139 -43q-56 0 -96.5 13t-63.5 36l37 93q42 -32 91 -32q35 0 54.5 15t19.5 42q0 29 -20 41t-61 12h-87v93l137 129h-118q-44 0 -74 -30t-30 -78v-330h-170v333q0 68 32 119.5t89.5 79.5t130.5 28h291v-119l-142 -132
q80 -3 125.5 -38.5z" />
    <glyph glyph-name="t.sc" horiz-adv-x="607" 
d="M579 432h-190v-432h-170v432h-191v128h551v-128z" />
    <glyph glyph-name="tcaron.sc" horiz-adv-x="607" 
d="M218 621l-111 167h126l67 -88l67 88h126l-111 -167h-164zM579 432h-190v-432h-170v432h-191v128h551v-128z" />
    <glyph glyph-name="u.sc" horiz-adv-x="657" 
d="M597 234q0 -242 -269 -242q-135 0 -202 61.5t-67 180.5v326h170v-330q0 -55 24.5 -81.5t74.5 -26.5q52 0 76 26t24 82v330h169v-326z" />
    <glyph glyph-name="uacute.sc" horiz-adv-x="657" 
d="M473 782l-92 -159h-124l55 159h161zM597 234q0 -242 -269 -242q-135 0 -202 61.5t-67 180.5v326h170v-330q0 -55 24.5 -81.5t74.5 -26.5q52 0 76 26t24 82v330h169v-326z" />
    <glyph glyph-name="ucircumflex.sc" horiz-adv-x="657" 
d="M395 619l-67 88l-67 -88h-126l111 167h164l111 -167h-126zM597 234q0 -242 -269 -242q-135 0 -202 61.5t-67 180.5v326h170v-330q0 -55 24.5 -81.5t74.5 -26.5q52 0 76 26t24 82v330h169v-326z" />
    <glyph glyph-name="udieresis.sc" horiz-adv-x="657" 
d="M597 234q0 -242 -269 -242q-135 0 -202 61.5t-67 180.5v326h170v-330q0 -55 24.5 -81.5t74.5 -26.5q52 0 76 26t24 82v330h169v-326zM280 749.5q23 -20.5 23 -56.5t-23 -56.5t-63 -20.5q-39 0 -61.5 20.5t-22.5 56.5t22.5 56.5t61.5 20.5q40 0 63 -20.5zM500 749.5
q23 -20.5 23 -56.5t-23 -56.5t-63 -20.5q-39 0 -61.5 20.5t-22.5 56.5t22.5 56.5t61.5 20.5q40 0 63 -20.5z" />
    <glyph glyph-name="ugrave.sc" horiz-adv-x="657" 
d="M384 623h-124l-92 159h161zM597 234q0 -242 -269 -242q-135 0 -202 61.5t-67 180.5v326h170v-330q0 -55 24.5 -81.5t74.5 -26.5q52 0 76 26t24 82v330h169v-326z" />
    <glyph glyph-name="uhungarumlaut.sc" horiz-adv-x="657" 
d="M360 782l-92 -159h-124l55 159h161zM579 782l-92 -159h-123l54 159h161zM597 234q0 -242 -269 -242q-135 0 -202 61.5t-67 180.5v326h170v-330q0 -55 24.5 -81.5t74.5 -26.5q52 0 76 26t24 82v330h169v-326z" />
    <glyph glyph-name="umacron.sc" horiz-adv-x="657" 
d="M597 234q0 -242 -269 -242q-135 0 -202 61.5t-67 180.5v326h170v-330q0 -55 24.5 -81.5t74.5 -26.5q52 0 76 26t24 82v330h169v-326zM514 629h-372v105h372v-105z" />
    <glyph glyph-name="uogonek.sc" horiz-adv-x="657" 
d="M597 560v-326q0 -193 -171 -232q-42 -17 -61 -35.5t-19 -40.5q0 -20 15 -32t40 -12q30 0 46 10l22 -82q-37 -23 -103 -23q-62 0 -100.5 28.5t-38.5 82.5q0 60 53 96q-111 10 -166 71t-55 169v326h170v-330q0 -55 24.5 -81.5t74.5 -26.5q52 0 76 26t24 82v330h169z" />
    <glyph glyph-name="uring.sc" horiz-adv-x="657" 
d="M597 234q0 -242 -269 -242q-135 0 -202 61.5t-67 180.5v326h170v-330q0 -55 24.5 -81.5t74.5 -26.5q52 0 76 26t24 82v330h169v-326zM427.5 766.5q35.5 -32.5 35.5 -88.5t-35.5 -88.5t-98.5 -32.5t-99 32.5t-36 88.5t36 88.5t99 32.5t98.5 -32.5zM290.5 715
q-14.5 -14 -14.5 -37t14.5 -37t38.5 -14q23 0 37.5 14t14.5 37t-14.5 37t-37.5 14q-24 0 -38.5 -14z" />
    <glyph glyph-name="v.sc" horiz-adv-x="635" 
d="M419 0h-202l-212 560h181l96 -287l39 -140h2l37 139l97 288h174z" />
    <glyph glyph-name="w.sc" horiz-adv-x="940" 
d="M434 207l-52 -207h-210l-164 560h181l69 -302l30 -134l95 436h176l98 -436l29 134l69 302h177l-164 -560h-204l-53 207l-39 202h-1z" />
    <glyph glyph-name="x.sc" horiz-adv-x="596" 
d="M393 0l-107 164l-110 -164h-177l203 284l-190 276h194l96 -160l100 160h176l-188 -273l201 -287h-198z" />
    <glyph glyph-name="y.sc" horiz-adv-x="594" 
d="M382 206v-206h-170v206l-209 354h175l81 -154l41 -84l40 84l82 154h169z" />
    <glyph glyph-name="yacute.sc" horiz-adv-x="594" 
d="M441 782l-92 -159h-124l55 159h161zM382 206v-206h-170v206l-209 354h175l81 -154l41 -84l40 84l82 154h169z" />
    <glyph glyph-name="ydieresis.sc" horiz-adv-x="594" 
d="M382 206v-206h-170v206l-209 354h175l81 -154l41 -84l40 84l82 154h169zM249 749.5q23 -20.5 23 -56.5t-23 -56.5t-63 -20.5q-39 0 -61.5 20.5t-22.5 56.5t22.5 56.5t61.5 20.5q40 0 63 -20.5zM469 749.5q23 -20.5 23 -56.5t-23 -56.5t-63 -20.5q-39 0 -61.5 20.5
t-22.5 56.5t22.5 56.5t61.5 20.5q40 0 63 -20.5z" />
    <glyph glyph-name="z.sc" horiz-adv-x="586" 
d="M550 125v-125h-507v111l250 267l65 57h-321v125h504v-113l-246 -257l-74 -65h329z" />
    <glyph glyph-name="zacute.sc" horiz-adv-x="586" 
d="M341 623h-124l55 159h161zM550 125v-125h-507v111l250 267l65 57h-321v125h504v-113l-246 -257l-74 -65h329z" />
    <glyph glyph-name="zcaron.sc" horiz-adv-x="574" 
d="M203 621l-110 167h126l66 -88l67 88h126l-110 -167h-165zM550 125v-125h-507v111l250 267l65 57h-321v125h504v-113l-246 -257l-74 -65h329z" />
    <glyph glyph-name="zdotaccent.sc" horiz-adv-x="586" 
d="M550 125v-125h-507v111l250 267l65 57h-321v125h504v-113l-246 -257l-74 -65h329zM357.5 761.5q23.5 -20.5 23.5 -59.5q0 -40 -23.5 -60.5t-69.5 -20.5q-44 0 -67.5 20.5t-23.5 60.5q0 39 23.5 59.5t67.5 20.5q46 0 69.5 -20.5z" />
    <glyph glyph-name="Rcommaaccent.sc.ss03" horiz-adv-x="628" 
d="M69 560h284q108 0 169 -46.5t61 -126.5q0 -61 -33 -98.5t-89 -48.5v-2q44 -9 67.5 -33.5t28.5 -58.5q10 -63 16.5 -91.5t18.5 -50.5v-4h-179q-6 15 -9.5 36t-6.5 43q-4 36 -7 51q-6 35 -27.5 49.5t-60.5 14.5h-65v-194h-168v560zM329 300q43 0 65.5 18t22.5 53t-22.5 53
t-65.5 18h-92v-142h92zM335 -241h-110l32 181h149z" />
    <glyph glyph-name="r.sc.ss03" horiz-adv-x="628" 
d="M69 560h284q108 0 169 -46.5t61 -126.5q0 -61 -33 -98.5t-89 -48.5v-2q44 -9 67.5 -33.5t28.5 -58.5q10 -63 16.5 -91.5t18.5 -50.5v-4h-179q-6 15 -9.5 36t-6.5 43q-4 36 -7 51q-6 35 -27.5 49.5t-60.5 14.5h-65v-194h-168v560zM329 300q43 0 65.5 18t22.5 53t-22.5 53
t-65.5 18h-92v-142h92z" />
    <glyph glyph-name="racute.sc.ss03" horiz-adv-x="628" 
d="M69 560h284q108 0 169 -46.5t61 -126.5q0 -61 -33 -98.5t-89 -48.5v-2q44 -9 67.5 -33.5t28.5 -58.5q10 -63 16.5 -91.5t18.5 -50.5v-4h-179q-6 15 -9.5 36t-6.5 43q-4 36 -7 51q-6 35 -27.5 49.5t-60.5 14.5h-65v-194h-168v560zM329 300q43 0 65.5 18t22.5 53t-22.5 53
t-65.5 18h-92v-142h92zM454 798l-101 -173h-124l67 173h158z" />
    <glyph glyph-name="rcaron.sc.ss03" horiz-adv-x="628" 
d="M69 560h284q108 0 169 -46.5t61 -126.5q0 -61 -33 -98.5t-89 -48.5v-2q44 -9 67.5 -33.5t28.5 -58.5q10 -63 16.5 -91.5t18.5 -50.5v-4h-179q-6 15 -9.5 36t-6.5 43q-4 36 -7 51q-6 35 -27.5 49.5t-60.5 14.5h-65v-194h-168v560zM329 300q43 0 65.5 18t22.5 53t-22.5 53
t-65.5 18h-92v-142h92zM385 625h-166l-108 173h123l68 -87l68 87h123z" />
    <glyph glyph-name="Gcommaaccent.sc.ss04" horiz-adv-x="641" 
d="M599 299v-61q0 -119 -67 -182.5t-194 -63.5q-139 0 -217 74.5t-78 212.5q0 136 78 212.5t218 76.5q96 0 164.5 -40t93.5 -121l-147 -43q-12 40 -37 59.5t-70 19.5q-61 0 -96 -42.5t-35 -120.5q0 -167 134 -167q56 0 84.5 27t28.5 63v5h-124v91h264zM381 -241h-110l32 181
h149z" />
    <glyph glyph-name="g.sc.ss04" horiz-adv-x="641" 
d="M599 299v-61q0 -119 -67 -182.5t-194 -63.5q-139 0 -217 74.5t-78 212.5q0 136 78 212.5t218 76.5q96 0 164.5 -40t93.5 -121l-147 -43q-12 40 -37 59.5t-70 19.5q-61 0 -96 -42.5t-35 -120.5q0 -167 134 -167q56 0 84.5 27t28.5 63v5h-124v91h264z" />
    <glyph glyph-name="gbreve.sc.ss04" horiz-adv-x="641" 
d="M599 299v-61q0 -119 -67 -182.5t-194 -63.5q-139 0 -217 74.5t-78 212.5q0 136 78 212.5t218 76.5q96 0 164.5 -40t93.5 -121l-147 -43q-12 40 -37 59.5t-70 19.5q-61 0 -96 -42.5t-35 -120.5q0 -167 134 -167q56 0 84.5 27t28.5 63v5h-124v91h264zM467 658.5
q-45 -43.5 -124 -43.5t-124 43.5t-45 119.5h110q0 -31 16 -49.5t43 -18.5t43 18.5t16 49.5h110q0 -76 -45 -119.5z" />
    <glyph glyph-name="iacute_j.loclNLD.sc.ss05" horiz-adv-x="605" 
d="M258 782h228l-92 -159h-191zM546 560v-339q0 -108 -68 -168.5t-182 -60.5t-175.5 45.5t-61.5 132.5q0 10 2 32h165q-1 -5 -1 -15q0 -65 74 -65q39 0 58 24t19 78v336h170zM229 258h-170v302h170v-302z" />
    <glyph glyph-name="ij.sc.ss05" horiz-adv-x="605" 
d="M546 221q0 -108 -68 -168.5t-182 -60.5t-175.5 45.5t-61.5 132.5q0 10 2 32h165q-1 -5 -1 -15q0 -65 74 -65q39 0 58 24t19 78v336h170v-339zM229 258h-170v302h170v-302z" />
    <glyph glyph-name="ordfeminine" unicode="&#xaa;" horiz-adv-x="438" 
d="M412 385l-9 -67q-26 -12 -56 -12q-33 0 -56 14.5t-31 41.5q-17 -26 -49.5 -41t-77.5 -15q-54 0 -82 21.5t-28 62.5q0 44 32 70t104 41l80 16v12q0 23 -12.5 35.5t-36.5 12.5t-39 -11.5t-21 -39.5l-102 24q8 53 51 82.5t118 29.5q168 0 168 -135v-115q0 -30 27 -30
q14 0 20 3zM222 393.5q17 12.5 17 35.5v36l-43 -10q-52 -12 -52 -44q0 -30 38 -30q23 0 40 12.5zM34 240h365v-89h-365v89z" />
    <glyph glyph-name="ordmasculine" unicode="&#xba;" horiz-adv-x="422" 
d="M78 353q-48 47 -48 131t48 131t133 47q86 0 134 -47t48 -131t-48 -131t-134 -47q-85 0 -133 47zM253 411q13 23 13 73t-13 73t-42 23t-42 -23t-13 -73t13 -73t42 -23t42 23zM36 240h350v-89h-350v89z" />
    <glyph glyph-name="pi" unicode="&#x3c0;" horiz-adv-x="789" 
d="M625 382v-198q0 -37 19.5 -55t60.5 -18l17 1l-16 -115q-38 -2 -52 -2q-111 0 -155 37t-44 117v233h-141v-382h-170v382h-123v118h736v-118h-132z" />
    <glyph glyph-name="zero" unicode="0" horiz-adv-x="644" 
d="M48 330q0 340 274 340t274 -340t-274 -340t-274 340zM401.5 172q24.5 48 24.5 158t-24.5 158t-79.5 48t-79.5 -48t-24.5 -158t24.5 -158t79.5 -48t79.5 48z" />
    <glyph glyph-name="one" unicode="1" horiz-adv-x="439" 
d="M365 660v-660h-166v491q-77 -70 -156 -84l-16 142q51 6 113.5 40.5t87.5 70.5h137z" />
    <glyph glyph-name="two" unicode="2" horiz-adv-x="596" 
d="M60 110q167 104 241.5 184.5t74.5 151.5q0 40 -23 64.5t-66 24.5q-47 0 -73.5 -34.5t-27.5 -100.5l-147 45q2 107 73.5 166t185.5 59q83 0 139 -30.5t83 -78.5t27 -103q0 -93 -69.5 -171t-210.5 -159v-1q66 4 133 4h155v-131h-495v110z" />
    <glyph glyph-name="three" unicode="3" horiz-adv-x="593" 
d="M472 620q62 -50 62 -135q0 -51 -21.5 -85.5t-51 -50.5t-51.5 -16v-3q28 0 59.5 -14.5t54.5 -48t23 -87.5q0 -56 -33 -99t-91 -67t-132 -24q-106 0 -169.5 39t-90.5 125l156 67q5 -52 30.5 -75t71.5 -23q43 0 67.5 20.5t24.5 57.5q0 39 -23.5 56t-74.5 17h-37v109h29
q48 0 70 19.5t22 59.5q0 36 -20.5 55.5t-57.5 19.5q-84 0 -92 -89l-151 51q16 88 83.5 129.5t169.5 41.5q111 0 173 -50z" />
    <glyph glyph-name="four" unicode="4" horiz-adv-x="646" 
d="M618 145h-101v-145h-152v145h-332v81l283 434h201v-397h101v-118zM193 263h172v176l4 108h-2q-18 -45 -58 -108z" />
    <glyph glyph-name="five" unicode="5" horiz-adv-x="583" 
d="M448.5 400.5q46.5 -25.5 71.5 -71t25 -103.5q0 -78 -34 -131t-92 -79t-131 -26q-90 0 -153 31t-105 101l151 86q10 -44 34 -66t74 -22q47 0 74 24t27 70q-1 45 -26 69t-75 24q-72 0 -105 -39l-130 19l42 373h412v-133h-287l-15 -124q-3 -17 -5 -24h1q20 22 56 34.5
t80 12.5q64 0 110.5 -25.5z" />
    <glyph glyph-name="six" unicode="6" horiz-adv-x="616" 
d="M570 524l-141 -66q-21 76 -100 76q-56 0 -91 -52.5t-35 -141.5v-16h2q17 42 59 64.5t101 22.5q61 0 110 -25.5t76.5 -72t27.5 -107.5q0 -100 -67 -158t-187 -58q-133 0 -204 87t-71 253q0 113 37.5 189.5t102.5 113.5t150 37q180 0 230 -146zM259.5 271.5
q-25.5 -23.5 -25.5 -64.5t25.5 -64.5t68.5 -23.5q45 0 69.5 23t24.5 65t-24.5 65t-69.5 23q-43 0 -68.5 -23.5z" />
    <glyph glyph-name="seven" unicode="7" horiz-adv-x="614" 
d="M585 660v-122q-118 -114 -167 -245t-49 -293h-170q0 151 52.5 280.5t165.5 244.5h-375v135h543z" />
    <glyph glyph-name="eight" unicode="8" horiz-adv-x="627" 
d="M494.5 618.5q66.5 -49.5 66.5 -135.5q0 -51 -27.5 -88.5t-77.5 -56.5v-1q61 -20 93.5 -61t32.5 -101q0 -86 -71.5 -135.5t-197.5 -49.5q-124 0 -196 49.5t-72 135.5q0 60 32.5 101t93.5 61v1q-50 19 -77.5 56.5t-27.5 88.5q0 86 66.5 135.5t180.5 49.5q115 0 181.5 -49.5
zM249 523q-23 -20 -23 -56q0 -35 23.5 -55.5t63.5 -20.5q41 0 64.5 20.5t23.5 55.5q0 36 -23.5 56t-64.5 20t-64 -20zM388 137q27 22 27 60q0 39 -27 60.5t-75 21.5q-47 0 -74 -21.5t-27 -60.5q0 -38 27 -60t74 -22q48 0 75 22z" />
    <glyph glyph-name="nine" unicode="9" horiz-adv-x="615" 
d="M500.5 582q70.5 -88 70.5 -256q0 -172 -72.5 -254t-207.5 -82q-91 0 -151.5 35t-90.5 109l154 61q9 -37 29.5 -56t61.5 -19q122 0 122 187v16h-3q-13 -42 -57 -64.5t-101 -22.5q-59 0 -108 26t-77.5 74t-28.5 110q0 105 67.5 164.5t189.5 59.5q132 0 202.5 -88z
M223.5 512q-24.5 -23 -24.5 -65t24.5 -65t69.5 -23q44 0 69 23.5t25 64.5t-25 64.5t-69 23.5q-45 0 -69.5 -23z" />
    <glyph glyph-name="zero.osf" horiz-adv-x="616" 
d="M576 280q0 -290 -268 -290t-268 290t268 290t268 -290zM231.5 409.5q-24.5 -40.5 -24.5 -129.5t24.5 -129.5t76.5 -40.5t76.5 40.5t24.5 129.5t-24.5 129.5t-76.5 40.5t-76.5 -40.5z" />
    <glyph glyph-name="one.osf" horiz-adv-x="427" 
d="M356 560v-560h-166v390v1q-34 -32 -73.5 -53t-78.5 -26l-16 139q55 8 114.5 40.5t83.5 68.5h136z" />
    <glyph glyph-name="two.osf" horiz-adv-x="570" 
d="M465.5 517.5q60.5 -52.5 60.5 -136.5q0 -64 -30.5 -109.5t-76.5 -75.5t-112 -61q-29 -12 -55 -20v-2q83 5 104 5h184v-118h-495v106q132 64 195 100.5t93.5 74.5t30.5 90q0 41 -23.5 60t-61.5 19q-43 0 -68 -26.5t-25 -77.5q0 -14 1 -21l-153 39q-2 90 58 148t190 58
q123 0 183.5 -52.5z" />
    <glyph glyph-name="three.osf" horiz-adv-x="559" 
d="M444 519.5q60 -50.5 60 -135.5q0 -50 -18.5 -83t-44.5 -49t-51 -19v-3q28 -1 57.5 -16.5t50 -48t20.5 -81.5q0 -60 -31.5 -103.5t-87.5 -67t-128 -23.5q-106 0 -169.5 39t-90.5 125l146 63q12 -107 109 -107q44 0 69.5 24t25.5 64q0 42 -24 60t-74 18h-38v101h30
q44 0 68.5 22.5t24.5 64.5q0 86 -82 86q-43 0 -67.5 -24t-28.5 -76l-144 49q17 88 82.5 129.5t166.5 41.5q109 0 169 -50.5z" />
    <glyph glyph-name="four.osf" horiz-adv-x="644" 
d="M616 45h-101v-145h-152v145h-332v81l283 434h201v-397h101v-118zM191 163h172v176l4 108h-2q-18 -45 -58 -108z" />
    <glyph glyph-name="five.osf" horiz-adv-x="574" 
d="M479.5 270.5q51.5 -55.5 51.5 -147.5q0 -114 -68.5 -173.5t-177.5 -59.5q-94 0 -159 33.5t-99 111.5l144 73q9 -46 35.5 -72t72.5 -26q48 0 73.5 26t25.5 74q0 47 -25.5 73t-71.5 26q-36 0 -60.5 -11.5t-43.5 -32.5l-126 22l43 373h411v-127h-289l-17 -136q-1 -15 -4 -21
h1q19 23 55.5 36.5t81.5 13.5q95 0 146.5 -55.5z" />
    <glyph glyph-name="six.osf" horiz-adv-x="596" 
d="M555 515l-139 -53q-10 40 -31.5 61t-60.5 21q-61 0 -96 -53t-35 -155v-14h3q16 43 61 66t98 23q60 0 107.5 -25t74.5 -71t27 -109q0 -102 -66 -159t-182 -57q-131 0 -203.5 88t-72.5 252q0 111 36 187.5t100.5 114.5t149.5 38q186 0 229 -155zM248 272.5
q-26 -25.5 -26 -68.5t26 -68.5t70 -25.5q45 0 69.5 24.5t24.5 70.5q0 45 -24.5 69t-69.5 24q-44 0 -70 -25.5z" />
    <glyph glyph-name="seven.osf" horiz-adv-x="590" 
d="M561 560v-122q-116 -116 -166 -248.5t-50 -289.5h-169q0 305 224 530h-382v130h543z" />
    <glyph glyph-name="eight.osf" horiz-adv-x="620" 
d="M488.5 619q65.5 -49 65.5 -135q0 -50 -27 -87.5t-78 -58.5v-1q60 -20 94 -61t34 -98q0 -89 -71 -138.5t-196 -49.5q-124 0 -195.5 49.5t-71.5 138.5q0 56 34 97.5t94 61.5v1q-51 20 -78 57.5t-27 88.5q0 86 65 135t179 49q113 0 178.5 -49zM245 530.5
q-24 -20.5 -24 -57.5t24 -57.5t65 -20.5t65 20.5t24 57.5t-24 57.5t-65 20.5t-65 -20.5zM384 129.5q27 22.5 27 62.5t-27 62.5t-74 22.5t-74 -22.5t-27 -62.5t27 -62.5t74 -22.5t74 22.5z" />
    <glyph glyph-name="nine.osf" horiz-adv-x="612" 
d="M500 481.5q72 -88.5 72 -255.5q0 -158 -72.5 -247t-202.5 -89q-93 0 -153.5 35t-91.5 120l146 55q7 -46 30.5 -68t72.5 -22q58 0 90 48.5t32 141.5v30h-4q-12 -43 -51.5 -66.5t-104.5 -23.5q-62 0 -111 26t-76.5 74.5t-27.5 111.5q0 100 67.5 159t183.5 59
q129 0 201 -88.5zM226 421q-25 -25 -25 -70t25 -69.5t71 -24.5q44 0 69.5 25t25.5 69t-25.5 69.5t-69.5 25.5q-46 0 -71 -25z" />
    <glyph glyph-name="zero.tf" 
d="M103.5 75.5q-66.5 85.5 -66.5 254.5t66.5 254.5t198.5 85.5t198.5 -85.5t66.5 -254.5t-66.5 -254.5t-198.5 -85.5t-198.5 85.5zM377 171.5q23 47.5 23 158.5t-23 158.5t-75 47.5t-75 -47.5t-23 -158.5t23 -158.5t75 -47.5t75 47.5z" />
    <glyph glyph-name="one.tf" 
d="M571 130v-130h-493v130h179v362v9q-38 -35 -81.5 -57.5t-88.5 -28.5l-16 134q54 6 118 40t89 71h137v-530h156z" />
    <glyph glyph-name="two.tf" 
d="M58 110q167 104 241.5 184.5t74.5 151.5q0 40 -23 64.5t-66 24.5q-47 0 -73.5 -34.5t-27.5 -100.5l-147 45q2 107 73.5 166t185.5 59q83 0 139 -30.5t83 -78.5t27 -103q0 -93 -69.5 -171t-210.5 -159v-1q66 4 133 4h155v-131h-495v110z" />
    <glyph glyph-name="three.tf" 
d="M479.5 620q61.5 -50 61.5 -135q0 -51 -21.5 -85.5t-51 -50.5t-51.5 -16v-3q28 0 59.5 -14.5t54.5 -48t23 -87.5q0 -56 -32.5 -99t-90 -67t-130.5 -24q-106 0 -170 39t-91 125l155 67q4 -53 29.5 -75.5t72.5 -22.5q41 0 65.5 21.5t24.5 57.5q0 39 -23 55.5t-72 16.5h-37
v109h30q88 0 89 76q0 38 -20.5 58t-56.5 20q-40 0 -64.5 -21.5t-27.5 -67.5l-149 51q16 88 83 129.5t169 41.5q110 0 171.5 -50z" />
    <glyph glyph-name="four.tf" 
d="M324 141h-296v85l245 434h203v-397h109v-122h-109v-141h-152v141zM329 263v123q0 79 3 158h-3q-7 -19 -18.5 -43.5t-21.5 -39.5l-115 -198h155z" />
    <glyph glyph-name="five.tf" 
d="M459.5 400.5q46.5 -25.5 71.5 -71t25 -103.5q0 -78 -34 -131t-92 -79t-131 -26q-90 0 -153 31t-105 101l151 86q10 -44 34 -66t74 -22q47 0 74 24t27 70q-1 45 -26 69t-75 24q-72 0 -105 -39l-130 19l42 373h412v-133h-287l-15 -124q-3 -17 -5 -24h1q20 22 56 34.5
t80 12.5q64 0 110.5 -25.5z" />
    <glyph glyph-name="six.tf" 
d="M563 524l-141 -66q-19 76 -100 76q-53 0 -85.5 -52t-32.5 -141v-17h3q15 41 58.5 64t101.5 23q61 0 107.5 -25t72 -71.5t25.5 -108.5q0 -99 -65.5 -157.5t-178.5 -58.5q-134 0 -206 88.5t-72 251.5q0 113 36.5 189.5t100 113.5t145.5 37q176 0 231 -146zM258.5 271.5
q-24.5 -23.5 -24.5 -64.5t24.5 -64.5t66.5 -23.5q43 0 67 23t24 65t-24 65t-67 23q-42 0 -66.5 -23.5z" />
    <glyph glyph-name="seven.tf" 
d="M569 660v-122q-80 -84 -125.5 -162t-65.5 -167t-20 -209h-172q0 157 55 284t168 241h-371v135h531z" />
    <glyph glyph-name="eight.tf" 
d="M475.5 618.5q63.5 -49.5 63.5 -135.5q0 -50 -26.5 -87.5t-74.5 -57.5v-1q56 -20 88 -59.5t32 -96.5q0 -90 -68 -140.5t-188 -50.5t-188 50.5t-68 140.5q0 56 31.5 96t88.5 60v1q-47 19 -74 56.5t-27 88.5q0 86 63.5 135.5t173.5 49.5t173.5 -49.5zM240.5 524
q-22.5 -20 -22.5 -56q0 -35 22.5 -55t61.5 -20t61.5 20t22.5 55q0 36 -22.5 56t-61.5 20t-61.5 -20zM373.5 135.5q25.5 21.5 25.5 60.5t-25.5 60.5t-70.5 21.5t-70.5 -21.5t-25.5 -60.5t25 -60.5t71 -21.5q45 0 70.5 21.5z" />
    <glyph glyph-name="nine.tf" 
d="M489.5 582q70.5 -88 70.5 -256q0 -173 -69.5 -254.5t-204.5 -81.5q-94 0 -154.5 35.5t-89.5 108.5l157 61q10 -38 30.5 -56.5t62.5 -18.5q61 0 88.5 47t27.5 140v16h-4q-15 -44 -56 -65.5t-103 -21.5q-61 0 -108 25t-73.5 72.5t-26.5 112.5q0 103 67 163.5t185 60.5
q130 0 200.5 -88zM219 512q-24 -23 -24 -65t24 -65t67 -23t67 23.5t24 64.5t-24 64.5t-67 23.5t-67 -23z" />
    <glyph glyph-name="zero.tosf" 
d="M498 497q66 -73 66 -217t-66 -217t-196 -73t-196 73t-66 217t66 217t196 73t196 -73zM230 409.5q-23 -40.5 -23 -129.5t23 -129.5t72 -40.5t72 40.5t23 129.5t-23 129.5t-72 40.5t-72 -40.5z" />
    <glyph glyph-name="one.tosf" 
d="M578 125v-125h-495v125h184v257v21q-81 -68 -166 -79l-16 125q53 6 119.5 40.5t91.5 70.5h125v-435h157z" />
    <glyph glyph-name="two.tosf" 
d="M475.5 517.5q60.5 -52.5 60.5 -136.5q0 -64 -30.5 -109.5t-76.5 -75.5t-112 -61q-29 -12 -55 -20v-2q83 5 104 5h184v-118h-495v106q132 64 195 100.5t93.5 74.5t30.5 90q0 41 -23.5 60t-61.5 19q-43 0 -68 -26.5t-25 -77.5q0 -14 1 -21l-153 39q-2 90 58 148t190 58
q123 0 183.5 -52.5z" />
    <glyph glyph-name="three.tosf" 
d="M471 519.5q60 -50.5 60 -135.5q0 -50 -18.5 -83t-44.5 -49t-51 -19v-3q28 -1 57.5 -16.5t50 -48t20.5 -81.5q0 -60 -31.5 -103.5t-87.5 -67t-128 -23.5q-106 0 -169.5 39t-90.5 125l146 63q12 -107 109 -107q44 0 69.5 24t25.5 64q0 42 -24 60t-74 18h-38v101h30
q44 0 68.5 22.5t24.5 64.5q0 86 -82 86q-43 0 -67.5 -24t-28.5 -76l-144 49q17 88 82.5 129.5t166.5 41.5q109 0 169 -50.5z" />
    <glyph glyph-name="four.tosf" 
d="M330 45h-300v81l252 434h200v-397h100v-118h-100v-145h-152v145zM335 163v123q0 52 4 160h-2q-17 -42 -43 -84l-122 -199h163z" />
    <glyph glyph-name="five.tosf" 
d="M501.5 270.5q51.5 -55.5 51.5 -147.5q0 -114 -68.5 -173.5t-177.5 -59.5q-94 0 -159 33.5t-99 111.5l144 73q9 -46 35.5 -72t72.5 -26q48 0 73.5 26t25.5 74q0 47 -25.5 73t-71.5 26q-36 0 -60.5 -11.5t-43.5 -32.5l-126 22l43 373h411v-127h-289l-17 -136q-1 -15 -4 -21
h1q19 23 55.5 36.5t81.5 13.5q95 0 146.5 -55.5z" />
    <glyph glyph-name="six.tosf" 
d="M561 515l-139 -53q-10 40 -31.5 61t-60.5 21q-61 0 -96 -53t-35 -155v-14h3q16 43 61 66t98 23q60 0 107.5 -25t74.5 -71t27 -109q0 -102 -66 -159t-182 -57q-131 0 -203.5 88t-72.5 252q0 111 36 187.5t100.5 114.5t149.5 38q186 0 229 -155zM254 272.5
q-26 -25.5 -26 -68.5t26 -68.5t70 -25.5q45 0 69.5 24.5t24.5 70.5q0 45 -24.5 69t-69.5 24q-44 0 -70 -25.5z" />
    <glyph glyph-name="seven.tosf" 
d="M568 560v-122q-118 -115 -167.5 -245.5t-49.5 -292.5h-169q0 151 54.5 283t168.5 247h-363v130h526z" />
    <glyph glyph-name="eight.tosf" 
d="M479.5 619q65.5 -49 65.5 -135q0 -50 -27 -87.5t-78 -58.5v-1q60 -20 94 -61t34 -98q0 -89 -71 -138.5t-196 -49.5q-124 0 -195.5 49.5t-71.5 138.5q0 56 34 97.5t94 61.5v1q-51 20 -78 57.5t-27 88.5q0 86 65 135t179 49q113 0 178.5 -49zM236 530.5
q-24 -20.5 -24 -57.5t24 -57.5t65 -20.5t65 20.5t24 57.5t-24 57.5t-65 20.5t-65 -20.5zM375 129.5q27 22.5 27 62.5t-27 62.5t-74 22.5t-74 -22.5t-27 -62.5t27 -62.5t74 -22.5t74 22.5z" />
    <glyph glyph-name="nine.tosf" 
d="M490 481.5q72 -88.5 72 -255.5q0 -158 -72.5 -247t-202.5 -89q-93 0 -153.5 35t-91.5 120l146 55q7 -46 30.5 -68t72.5 -22q58 0 90 48.5t32 141.5v30h-4q-12 -43 -51.5 -66.5t-104.5 -23.5q-62 0 -111 26t-76.5 74.5t-27.5 111.5q0 100 67.5 159t183.5 59
q129 0 201 -88.5zM216 421q-25 -25 -25 -70t25 -69.5t71 -24.5q44 0 69.5 25t25.5 69t-25.5 69.5t-69.5 25.5q-46 0 -71 -25z" />
    <glyph glyph-name="zero.zero" horiz-adv-x="644" 
d="M596 330q0 -340 -274 -340t-274 340t274 340t274 -340zM242.5 488q-24.5 -48 -24.5 -158q0 -78 12 -125l135 322q-18 9 -43 9q-55 0 -79.5 -48zM401.5 172q24.5 48 24.5 158q0 67 -9 112l-130 -312q15 -6 35 -6q55 0 79.5 48z" />
    <glyph glyph-name="zero.osf.zero" horiz-adv-x="616" 
d="M576 280q0 -290 -268 -290t-268 290t268 290t268 -290zM231.5 409.5q-24.5 -40.5 -24.5 -129.5q0 -58 11 -97l129 260q-15 7 -39 7q-52 0 -76.5 -40.5zM384.5 150.5q24.5 40.5 24.5 129.5q0 52 -9 88l-125 -254q13 -4 33 -4q52 0 76.5 40.5z" />
    <glyph glyph-name="zero.tf.zero" 
d="M500.5 584.5q66.5 -85.5 66.5 -254.5t-66.5 -254.5t-198.5 -85.5t-198.5 85.5t-66.5 254.5t66.5 254.5t198.5 85.5t198.5 -85.5zM227 488.5q-23 -47.5 -23 -158.5q0 -69 10 -119l127 317q-18 8 -39 8q-52 0 -75 -47.5zM377 171.5q23 47.5 23 158.5q0 69 -9 113l-124 -312
q14 -7 35 -7q52 0 75 47.5z" />
    <glyph glyph-name="zero.tosf.zero" 
d="M498 497q66 -73 66 -217t-66 -217t-196 -73t-196 73t-66 217t66 217t196 73t196 -73zM230 409.5q-23 -40.5 -23 -129.5q0 -54 10 -96l127 257q-18 9 -42 9q-49 0 -72 -40.5zM374 150.5q23 40.5 23 129.5q0 43 -6 74l-118 -240q12 -4 29 -4q49 0 72 40.5z" />
    <glyph glyph-name="fraction" unicode="&#x2044;" horiz-adv-x="263" 
d="M310 661h120l-477 -661h-120z" />
    <glyph glyph-name="onehalf" unicode="&#xbd;" horiz-adv-x="953" 
d="M256 665v-397h-123v216q0 27 3 64q-60 -44 -117 -48v101q33 5 75 24.5t58 39.5h104zM608 661h120l-477 -661h-120zM590 73q65 37 89 52q62 42 89.5 74t27.5 59q0 21 -12 33t-35 12q-26 0 -40 -19.5t-14 -56.5l-119 32q1 66 48.5 102.5t127.5 36.5q88 0 131 -38.5
t43 -91.5q0 -74 -97 -139q-36 -23 -77 -38v-2q42 4 91 4h88v-97h-341v77z" />
    <glyph glyph-name="onequarter" unicode="&#xbc;" horiz-adv-x="885" 
d="M256 665v-397h-123v216q0 27 3 64q-60 -44 -117 -48v101q33 5 75 24.5t58 39.5h104zM608 661h120l-477 -661h-120zM868 81h-60v-85h-107v85h-201v56l161 257h147v-232h60v-81zM701 162v78q0 44 3 80h-3q-16 -35 -31 -59l-64 -99h95z" />
    <glyph glyph-name="threequarters" unicode="&#xbe;" horiz-adv-x="966" 
d="M306 640.5q41 -29.5 41 -83.5q0 -40 -23 -63.5t-61 -25.5v-3q43 -1 67.5 -23t24.5 -62q0 -54 -44 -86t-119 -32q-74 0 -119.5 24t-63.5 77l115 42q4 -54 59 -54q23 0 36.5 11.5t13.5 31.5q0 36 -50 36h-23v65h19q47 0 47 40q0 20 -11.5 30.5t-32.5 10.5q-47 0 -53 -52
l-110 37q9 55 55 82t114 27q77 0 118 -29.5zM689 661h120l-477 -661h-120zM950 81h-60v-85h-107v85h-201v56l161 257h147v-232h60v-81zM783 162v78q0 44 3 80h-3q-16 -35 -31 -59l-64 -99h95z" />
    <glyph glyph-name="zero.dnom" horiz-adv-x="413" 
d="M69 40.5q-45 50.5 -45 153.5t45 153.5t137 50.5t137 -50.5t45 -153.5t-45 -153.5t-137 -50.5t-137 50.5zM252 104.5q14 26.5 14 89.5t-14 89.5t-46 26.5t-45.5 -26.5t-13.5 -89.5t13.5 -89.5t45.5 -26.5t46 26.5z" />
    <glyph glyph-name="one.dnom" horiz-adv-x="298" 
d="M256 393v-397h-123v216q0 26 3 65q-59 -45 -117 -49v101q33 5 75 24.5t58 39.5h104z" />
    <glyph glyph-name="two.dnom" horiz-adv-x="392" 
d="M29 73q65 37 89 52q62 42 89.5 74t27.5 59q0 21 -12 33t-35 12q-26 0 -40 -19.5t-14 -56.5l-119 32q1 66 48.5 102.5t127.5 36.5q88 0 131 -38.5t43 -91.5q0 -74 -97 -139q-36 -23 -77 -38v-2q42 4 91 4h88v-97h-341v77z" />
    <glyph glyph-name="three.dnom" horiz-adv-x="379" 
d="M306 368.5q41 -29.5 41 -83.5q0 -40 -23 -63.5t-61 -25.5v-3q43 -1 67.5 -23t24.5 -62q0 -54 -44 -86t-119 -32q-74 0 -119.5 24t-63.5 77l115 42q4 -54 59 -54q23 0 36.5 11.5t13.5 31.5q0 36 -50 36h-23v65h19q47 0 47 40q0 20 -11.5 30.5t-32.5 10.5q-47 0 -53 -52
l-110 37q9 55 55 82t114 27q77 0 118 -29.5z" />
    <glyph glyph-name="four.dnom" horiz-adv-x="395" 
d="M379 81h-60v-85h-107v85h-201v56l161 257h147v-232h60v-81zM212 162v78q0 44 3 80h-3q-16 -35 -31 -59l-64 -99h95z" />
    <glyph glyph-name="five.dnom" horiz-adv-x="385" 
d="M323.5 218.5q33.5 -32.5 33.5 -89.5q0 -69 -47 -104t-122 -35q-64 0 -107 18t-67 63l111 49q6 -21 20 -31.5t40 -10.5q25 0 40 13.5t15 35.5q0 46 -53 46q-21 0 -34 -5.5t-23 -17.5l-100 10l24 233h286v-92h-193l-5 -48q-1 -14 -6 -25h1q25 23 89 23t97.5 -32.5z" />
    <glyph glyph-name="six.dnom" horiz-adv-x="406" 
d="M75 41q-48 51 -48 153q0 100 54 152t143 52q59 0 98 -20t59 -66l-95 -46q-5 19 -20.5 29.5t-39.5 10.5q-37 0 -58 -27.5t-21 -71.5q0 -8 1 -11h1q17 25 41.5 36.5t61.5 11.5q59 0 96 -32t37 -94q0 -61 -44.5 -94.5t-126.5 -33.5q-91 0 -139 51zM255.5 91.5
q13.5 10.5 13.5 29.5q0 20 -13.5 31t-39.5 11t-39.5 -11t-13.5 -31q0 -19 13.5 -29.5t39.5 -10.5t39.5 10.5z" />
    <glyph glyph-name="seven.dnom" horiz-adv-x="355" 
d="M347 393v-80q-67 -63 -94 -142t-27 -175h-125q0 82 30.5 160t88.5 139h-210v98h337z" />
    <glyph glyph-name="eight.dnom" horiz-adv-x="417" 
d="M330 367q45 -31 45 -84q0 -31 -17.5 -53.5t-52.5 -33.5v-1q81 -21 81 -90q0 -55 -47 -85t-131 -30q-83 0 -130.5 30.5t-47.5 84.5q0 34 20.5 56.5t59.5 33.5v1q-33 10 -51 33t-18 54q0 53 45 84t122 31t122 -31zM157 278q0 -19 13.5 -30t37.5 -11q25 0 38 10.5t13 30.5
q0 41 -51 41t-51 -41zM250 80.5q15 11.5 15 31.5q0 21 -15 32.5t-42 11.5q-26 0 -41 -11.5t-15 -32.5q0 -20 15 -31.5t41 -11.5q27 0 42 11.5z" />
    <glyph glyph-name="nine.dnom" horiz-adv-x="411" 
d="M335 346.5q49 -51.5 49 -152.5q0 -103 -53 -153.5t-144 -50.5q-62 0 -102 21.5t-55 72.5l106 36q3 -21 15.5 -29.5t39.5 -8.5q38 0 55 24.5t17 64.5q0 9 -1 14h-1q-10 -19 -35 -31t-57 -12q-66 0 -106 34.5t-40 90.5q0 63 46 97t126 34q91 0 140 -51.5zM160.5 297
q-13.5 -11 -13.5 -31q0 -19 13.5 -29.5t39.5 -10.5q25 0 39 10.5t14 29.5q0 20 -14 31t-39 11q-26 0 -39.5 -11z" />
    <glyph glyph-name="zero.numr" horiz-adv-x="413" 
d="M69 312.5q-45 50.5 -45 153.5t45 153.5t137 50.5t137 -50.5t45 -153.5t-45 -153.5t-137 -50.5t-137 50.5zM252 376.5q14 26.5 14 89.5t-14 89.5t-46 26.5t-45.5 -26.5t-13.5 -89.5t13.5 -89.5t45.5 -26.5t46 26.5z" />
    <glyph glyph-name="one.numr" horiz-adv-x="298" 
d="M256 665v-397h-123v216q0 27 3 64q-60 -44 -117 -48v101q33 5 75 24.5t58 39.5h104z" />
    <glyph glyph-name="two.numr" horiz-adv-x="392" 
d="M29 345q65 37 89 52q62 42 89.5 74t27.5 59q0 21 -12 33t-35 12q-26 0 -40 -19.5t-14 -56.5l-119 32q1 66 48.5 102.5t127.5 36.5q88 0 131 -38.5t43 -91.5q0 -74 -97 -139q-36 -23 -77 -38v-2q42 4 91 4h88v-97h-341v77z" />
    <glyph glyph-name="three.numr" horiz-adv-x="379" 
d="M306 640.5q41 -29.5 41 -83.5q0 -40 -23 -63.5t-61 -25.5v-3q43 -1 67.5 -23t24.5 -62q0 -54 -44 -86t-119 -32q-74 0 -119.5 24t-63.5 77l115 42q4 -54 59 -54q23 0 36.5 11.5t13.5 31.5q0 36 -50 36h-23v65h19q47 0 47 40q0 20 -11.5 30.5t-32.5 10.5q-47 0 -53 -52
l-110 37q9 55 55 82t114 27q77 0 118 -29.5z" />
    <glyph glyph-name="four.numr" horiz-adv-x="395" 
d="M379 353h-60v-85h-107v85h-201v56l161 257h147v-232h60v-81zM212 434v78q0 44 3 80h-3q-16 -35 -31 -59l-64 -99h95z" />
    <glyph glyph-name="five.numr" horiz-adv-x="385" 
d="M323.5 490.5q33.5 -32.5 33.5 -89.5q0 -69 -47 -104t-122 -35q-64 0 -107 18t-67 63l111 49q6 -21 20 -31.5t40 -10.5q25 0 40 13.5t15 35.5q0 46 -53 46q-21 0 -34 -5.5t-23 -17.5l-100 10l24 233h286v-92h-193l-5 -48q-1 -14 -6 -25h1q25 23 89 23t97.5 -32.5z" />
    <glyph glyph-name="six.numr" horiz-adv-x="406" 
d="M75 313q-48 51 -48 153q0 100 54 152t143 52q59 0 98 -20t59 -66l-95 -46q-5 19 -20.5 29.5t-39.5 10.5q-37 0 -58 -27.5t-21 -71.5q0 -8 1 -11h1q17 25 41.5 36.5t61.5 11.5q59 0 96 -32t37 -94q0 -61 -44.5 -94.5t-126.5 -33.5q-91 0 -139 51zM255.5 363.5
q13.5 10.5 13.5 29.5q0 20 -13.5 31t-39.5 11t-39.5 -11t-13.5 -31q0 -19 13.5 -29.5t39.5 -10.5t39.5 10.5z" />
    <glyph glyph-name="seven.numr" horiz-adv-x="355" 
d="M347 665v-80q-67 -63 -94 -142t-27 -175h-125q0 82 30.5 160t88.5 139h-210v98h337z" />
    <glyph glyph-name="eight.numr" horiz-adv-x="417" 
d="M330 639q45 -31 45 -84q0 -31 -17.5 -53.5t-52.5 -33.5v-1q81 -21 81 -90q0 -55 -47 -85t-131 -30q-83 0 -130.5 30.5t-47.5 84.5q0 34 20.5 56.5t59.5 33.5v1q-33 10 -51 33t-18 54q0 53 45 84t122 31t122 -31zM157 550q0 -19 13.5 -30t37.5 -11q25 0 38 10.5t13 30.5
q0 41 -51 41t-51 -41zM250 352.5q15 11.5 15 31.5q0 21 -15 32.5t-42 11.5q-26 0 -41 -11.5t-15 -32.5q0 -20 15 -31.5t41 -11.5q27 0 42 11.5z" />
    <glyph glyph-name="nine.numr" horiz-adv-x="411" 
d="M335 618.5q49 -51.5 49 -152.5q0 -103 -53 -153.5t-144 -50.5q-62 0 -102 21.5t-55 72.5l106 36q3 -21 15.5 -29.5t39.5 -8.5q38 0 55 24.5t17 64.5q0 9 -1 14h-1q-10 -19 -35 -31t-57 -12q-66 0 -106 34.5t-40 90.5q0 63 46 97t126 34q91 0 140 -51.5zM160.5 569
q-13.5 -11 -13.5 -31q0 -19 13.5 -29.5t39.5 -10.5q25 0 39 10.5t14 29.5q0 20 -14 31t-39 11q-26 0 -39.5 -11z" />
    <glyph glyph-name="uni2780" unicode="&#x2780;" horiz-adv-x="910" 
d="M255.5 6.5q-86.5 46.5 -134 130.5t-47.5 193t47.5 193t134 130.5t199.5 46.5t199.5 -46.5t134 -130.5t47.5 -193t-47.5 -193t-134 -130.5t-199.5 -46.5t-199.5 46.5zM607.5 75.5q66.5 36.5 103 102.5t36.5 152t-36.5 152t-103 102.5t-152.5 36.5t-152.5 -36.5
t-103 -102.5t-36.5 -152t36.5 -152t103 -102.5t152.5 -36.5t152.5 36.5zM543 533v-397h-123v216q0 26 3 65q-59 -45 -117 -49v101q33 5 75 24.5t58 39.5h104z" />
    <glyph glyph-name="uni2781" unicode="&#x2781;" horiz-adv-x="910" 
d="M255.5 6.5q-86.5 46.5 -134 130.5t-47.5 193t47.5 193t134 130.5t199.5 46.5t199.5 -46.5t134 -130.5t47.5 -193t-47.5 -193t-134 -130.5t-199.5 -46.5t-199.5 46.5zM607.5 75.5q66.5 36.5 103 102.5t36.5 152t-36.5 152t-103 102.5t-152.5 36.5t-152.5 -36.5
t-103 -102.5t-36.5 -152t36.5 -152t103 -102.5t152.5 -36.5t152.5 36.5zM287 222q65 37 89 52q62 42 89.5 74t27.5 59q0 21 -12 33t-35 12q-26 0 -40 -19.5t-14 -56.5l-119 32q1 66 48.5 102.5t127.5 36.5q88 0 131 -38.5t43 -91.5q0 -74 -97 -139q-36 -23 -77 -38v-2
q42 4 91 4h88v-97h-341v77z" />
    <glyph glyph-name="uni2782" unicode="&#x2782;" horiz-adv-x="910" 
d="M255.5 6.5q-86.5 46.5 -134 130.5t-47.5 193t47.5 193t134 130.5t199.5 46.5t199.5 -46.5t134 -130.5t47.5 -193t-47.5 -193t-134 -130.5t-199.5 -46.5t-199.5 46.5zM607.5 75.5q66.5 36.5 103 102.5t36.5 152t-36.5 152t-103 102.5t-152.5 36.5t-152.5 -36.5
t-103 -102.5t-36.5 -152t36.5 -152t103 -102.5t152.5 -36.5t152.5 36.5zM578 505.5q41 -29.5 41 -83.5q0 -40 -23 -63.5t-61 -25.5v-3q43 -1 67.5 -23t24.5 -62q0 -54 -44 -86t-119 -32q-74 0 -119.5 24t-63.5 77l115 42q4 -54 59 -54q23 0 36.5 11.5t13.5 31.5q0 36 -50 36
h-23v65h19q47 0 47 40q0 20 -11.5 30.5t-32.5 10.5q-47 0 -53 -52l-110 37q9 55 55 82t114 27q77 0 118 -29.5z" />
    <glyph glyph-name="uni2783" unicode="&#x2783;" horiz-adv-x="910" 
d="M255.5 6.5q-86.5 46.5 -134 130.5t-47.5 193t47.5 193t134 130.5t199.5 46.5t199.5 -46.5t134 -130.5t47.5 -193t-47.5 -193t-134 -130.5t-199.5 -46.5t-199.5 46.5zM607.5 75.5q66.5 36.5 103 102.5t36.5 152t-36.5 152t-103 102.5t-152.5 36.5t-152.5 -36.5
t-103 -102.5t-36.5 -152t36.5 -152t103 -102.5t152.5 -36.5t152.5 36.5zM616 221h-60v-85h-107v85h-201v56l161 257h147v-232h60v-81zM449 302v78q0 44 3 80h-3q-16 -35 -31 -59l-64 -99h95z" />
    <glyph glyph-name="uni2784" unicode="&#x2784;" horiz-adv-x="910" 
d="M255.5 6.5q-86.5 46.5 -134 130.5t-47.5 193t47.5 193t134 130.5t199.5 46.5t199.5 -46.5t134 -130.5t47.5 -193t-47.5 -193t-134 -130.5t-199.5 -46.5t-199.5 46.5zM607.5 75.5q66.5 36.5 103 102.5t36.5 152t-36.5 152t-103 102.5t-152.5 36.5t-152.5 -36.5
t-103 -102.5t-36.5 -152t36.5 -152t103 -102.5t152.5 -36.5t152.5 36.5zM588.5 348.5q33.5 -32.5 33.5 -89.5q0 -69 -47 -104t-122 -35q-64 0 -107 18t-67 63l111 49q6 -21 20 -31.5t40 -10.5q25 0 40 13.5t15 35.5q0 46 -53 46q-21 0 -34 -5.5t-23 -17.5l-100 10l24 233
h286v-92h-193l-5 -48q-1 -14 -6 -25h1q25 23 89 23t97.5 -32.5z" />
    <glyph glyph-name="uni2785" unicode="&#x2785;" horiz-adv-x="910" 
d="M255.5 6.5q-86.5 46.5 -134 130.5t-47.5 193t47.5 193t134 130.5t199.5 46.5t199.5 -46.5t134 -130.5t47.5 -193t-47.5 -193t-134 -130.5t-199.5 -46.5t-199.5 46.5zM607.5 75.5q66.5 36.5 103 102.5t36.5 152t-36.5 152t-103 102.5t-152.5 36.5t-152.5 -36.5
t-103 -102.5t-36.5 -152t36.5 -152t103 -102.5t152.5 -36.5t152.5 36.5zM314 176q-48 51 -48 153q0 100 54 152t143 52q59 0 98 -20t59 -66l-95 -46q-5 19 -20.5 29.5t-39.5 10.5q-37 0 -58 -27.5t-21 -71.5q0 -8 1 -11h1q17 25 41.5 36.5t61.5 11.5q59 0 96 -32t37 -94
q0 -61 -44.5 -94.5t-126.5 -33.5q-91 0 -139 51zM494.5 226.5q13.5 10.5 13.5 29.5q0 20 -13.5 31t-39.5 11t-39.5 -11t-13.5 -31q0 -19 13.5 -29.5t39.5 -10.5t39.5 10.5z" />
    <glyph glyph-name="uni2786" unicode="&#x2786;" horiz-adv-x="910" 
d="M255.5 6.5q-86.5 46.5 -134 130.5t-47.5 193t47.5 193t134 130.5t199.5 46.5t199.5 -46.5t134 -130.5t47.5 -193t-47.5 -193t-134 -130.5t-199.5 -46.5t-199.5 46.5zM607.5 75.5q66.5 36.5 103 102.5t36.5 152t-36.5 152t-103 102.5t-152.5 36.5t-152.5 -36.5
t-103 -102.5t-36.5 -152t36.5 -152t103 -102.5t152.5 -36.5t152.5 36.5zM629 516v-80q-67 -63 -94 -142t-27 -175h-125q0 82 30.5 160t88.5 139h-210v98h337z" />
    <glyph glyph-name="uni2787" unicode="&#x2787;" horiz-adv-x="910" 
d="M255.5 6.5q-86.5 46.5 -134 130.5t-47.5 193t47.5 193t134 130.5t199.5 46.5t199.5 -46.5t134 -130.5t47.5 -193t-47.5 -193t-134 -130.5t-199.5 -46.5t-199.5 46.5zM607.5 75.5q66.5 36.5 103 102.5t36.5 152t-36.5 152t-103 102.5t-152.5 36.5t-152.5 -36.5
t-103 -102.5t-36.5 -152t36.5 -152t103 -102.5t152.5 -36.5t152.5 36.5zM577 505q45 -31 45 -84q0 -31 -17.5 -53.5t-52.5 -33.5v-1q81 -21 81 -90q0 -55 -47 -85t-131 -30q-83 0 -130.5 30.5t-47.5 84.5q0 34 20.5 56.5t59.5 33.5v1q-33 10 -51 33t-18 54q0 53 45 84
t122 31t122 -31zM404 416q0 -19 13.5 -30t37.5 -11q25 0 38 10.5t13 30.5q0 41 -51 41t-51 -41zM497 218.5q15 11.5 15 31.5q0 21 -15 32.5t-42 11.5q-26 0 -41 -11.5t-15 -32.5q0 -20 15 -31.5t41 -11.5q27 0 42 11.5z" />
    <glyph glyph-name="uni2788" unicode="&#x2788;" horiz-adv-x="910" 
d="M255.5 6.5q-86.5 46.5 -134 130.5t-47.5 193t47.5 193t134 130.5t199.5 46.5t199.5 -46.5t134 -130.5t47.5 -193t-47.5 -193t-134 -130.5t-199.5 -46.5t-199.5 46.5zM607.5 75.5q66.5 36.5 103 102.5t36.5 152t-36.5 152t-103 102.5t-152.5 36.5t-152.5 -36.5
t-103 -102.5t-36.5 -152t36.5 -152t103 -102.5t152.5 -36.5t152.5 36.5zM599 482.5q49 -51.5 49 -152.5q0 -103 -53 -153.5t-144 -50.5q-62 0 -102 21.5t-55 72.5l106 36q3 -21 15.5 -29.5t39.5 -8.5q38 0 55 24.5t17 64.5q0 9 -1 14h-1q-10 -19 -35 -31t-57 -12
q-66 0 -106 34.5t-40 90.5q0 63 46 97t126 34q91 0 140 -51.5zM424.5 433q-13.5 -11 -13.5 -31q0 -19 13.5 -29.5t39.5 -10.5q25 0 39 10.5t14 29.5q0 20 -14 31t-39 11q-26 0 -39.5 -11z" />
    <glyph glyph-name="uni2080" unicode="&#x2080;" horiz-adv-x="413" 
d="M69 -144.5q-45 50.5 -45 153.5t45 153.5t137 50.5t137 -50.5t45 -153.5t-45 -153.5t-137 -50.5t-137 50.5zM252 -80.5q14 26.5 14 89.5t-14 89.5t-46 26.5t-45.5 -26.5t-13.5 -89.5t13.5 -89.5t45.5 -26.5t46 26.5z" />
    <glyph glyph-name="uni2081" unicode="&#x2081;" horiz-adv-x="298" 
d="M256 208v-397h-123v216q0 26 3 65q-59 -45 -117 -49v101q33 5 75 24.5t58 39.5h104z" />
    <glyph glyph-name="uni2082" unicode="&#x2082;" horiz-adv-x="392" 
d="M29 -112q65 37 89 52q62 42 89.5 74t27.5 59q0 21 -12 33t-35 12q-26 0 -40 -19.5t-14 -56.5l-119 32q1 66 48.5 102.5t127.5 36.5q88 0 131 -38.5t43 -91.5q0 -74 -97 -139q-36 -23 -77 -38v-2q42 4 91 4h88v-97h-341v77z" />
    <glyph glyph-name="uni2083" unicode="&#x2083;" horiz-adv-x="379" 
d="M306 183.5q41 -29.5 41 -83.5q0 -40 -23 -63.5t-61 -25.5v-3q43 -1 67.5 -23t24.5 -62q0 -54 -44 -86t-119 -32q-74 0 -119.5 24t-63.5 77l115 42q4 -54 59 -54q23 0 36.5 11.5t13.5 31.5q0 36 -50 36h-23v65h19q47 0 47 40q0 20 -11.5 30.5t-32.5 10.5q-47 0 -53 -52
l-110 37q9 55 55 82t114 27q77 0 118 -29.5z" />
    <glyph glyph-name="uni2084" unicode="&#x2084;" horiz-adv-x="395" 
d="M379 -104h-60v-85h-107v85h-201v56l161 257h147v-232h60v-81zM212 -23v78q0 44 3 80h-3q-16 -35 -31 -59l-64 -99h95z" />
    <glyph glyph-name="uni2085" unicode="&#x2085;" horiz-adv-x="385" 
d="M323.5 33.5q33.5 -32.5 33.5 -89.5q0 -69 -47 -104t-122 -35q-64 0 -107 18t-67 63l111 49q6 -21 20 -31.5t40 -10.5q25 0 40 13.5t15 35.5q0 46 -53 46q-21 0 -34 -5.5t-23 -17.5l-100 10l24 233h286v-92h-193l-5 -48q-1 -14 -6 -25h1q25 23 89 23t97.5 -32.5z" />
    <glyph glyph-name="uni2086" unicode="&#x2086;" horiz-adv-x="406" 
d="M75 -144q-48 51 -48 153q0 100 54 152t143 52q59 0 98 -20t59 -66l-95 -46q-5 19 -20.5 29.5t-39.5 10.5q-37 0 -58 -27.5t-21 -71.5q0 -8 1 -11h1q17 25 41.5 36.5t61.5 11.5q59 0 96 -32t37 -94q0 -61 -44.5 -94.5t-126.5 -33.5q-91 0 -139 51zM255.5 -93.5
q13.5 10.5 13.5 29.5q0 20 -13.5 31t-39.5 11t-39.5 -11t-13.5 -31q0 -19 13.5 -29.5t39.5 -10.5t39.5 10.5z" />
    <glyph glyph-name="uni2087" unicode="&#x2087;" horiz-adv-x="355" 
d="M347 208v-80q-67 -63 -94 -142t-27 -175h-125q0 82 30.5 160t88.5 139h-210v98h337z" />
    <glyph glyph-name="uni2088" unicode="&#x2088;" horiz-adv-x="417" 
d="M330 182q45 -31 45 -84q0 -31 -17.5 -53.5t-52.5 -33.5v-1q81 -21 81 -90q0 -55 -47 -85t-131 -30q-83 0 -130.5 30.5t-47.5 84.5q0 34 20.5 56.5t59.5 33.5v1q-33 10 -51 33t-18 54q0 53 45 84t122 31t122 -31zM157 93q0 -19 13.5 -30t37.5 -11q25 0 38 10.5t13 30.5
q0 41 -51 41t-51 -41zM250 -104.5q15 11.5 15 31.5q0 21 -15 32.5t-42 11.5q-26 0 -41 -11.5t-15 -32.5q0 -20 15 -31.5t41 -11.5q27 0 42 11.5z" />
    <glyph glyph-name="uni2089" unicode="&#x2089;" horiz-adv-x="411" 
d="M335 161.5q49 -51.5 49 -152.5q0 -103 -53 -153.5t-144 -50.5q-62 0 -102 21.5t-55 72.5l106 36q3 -21 15.5 -29.5t39.5 -8.5q38 0 55 24.5t17 64.5q0 9 -1 14h-1q-10 -19 -35 -31t-57 -12q-66 0 -106 34.5t-40 90.5q0 63 46 97t126 34q91 0 140 -51.5zM160.5 112
q-13.5 -11 -13.5 -31q0 -19 13.5 -29.5t39.5 -10.5q25 0 39 10.5t14 29.5q0 20 -14 31t-39 11q-26 0 -39.5 -11z" />
    <glyph glyph-name="uni2070" unicode="&#x2070;" horiz-adv-x="413" 
d="M69 377.5q-45 50.5 -45 153.5t45 153.5t137 50.5t137 -50.5t45 -153.5t-45 -153.5t-137 -50.5t-137 50.5zM252 441.5q14 26.5 14 89.5t-14 89.5t-46 26.5t-45.5 -26.5t-13.5 -89.5t13.5 -89.5t45.5 -26.5t46 26.5z" />
    <glyph glyph-name="uni00B9" unicode="&#xb9;" horiz-adv-x="298" 
d="M256 730v-397h-123v216q0 26 3 65q-59 -45 -117 -49v101q33 5 75 24.5t58 39.5h104z" />
    <glyph glyph-name="uni00B2" unicode="&#xb2;" horiz-adv-x="392" 
d="M29 410q65 37 89 52q62 42 89.5 74t27.5 59q0 21 -12 33t-35 12q-26 0 -40 -19.5t-14 -56.5l-119 32q1 66 48.5 102.5t127.5 36.5q88 0 131 -38.5t43 -91.5q0 -74 -97 -139q-36 -23 -77 -38v-2q42 4 91 4h88v-97h-341v77z" />
    <glyph glyph-name="uni00B3" unicode="&#xb3;" horiz-adv-x="379" 
d="M306 705.5q41 -29.5 41 -83.5q0 -40 -23 -63.5t-61 -25.5v-3q43 -1 67.5 -23t24.5 -62q0 -54 -44 -86t-119 -32q-74 0 -119.5 24t-63.5 77l115 42q4 -54 59 -54q23 0 36.5 11.5t13.5 31.5q0 36 -50 36h-23v65h19q47 0 47 40q0 20 -11.5 30.5t-32.5 10.5q-47 0 -53 -52
l-110 37q9 55 55 82t114 27q77 0 118 -29.5z" />
    <glyph glyph-name="uni2074" unicode="&#x2074;" horiz-adv-x="395" 
d="M379 418h-60v-85h-107v85h-201v56l161 257h147v-232h60v-81zM212 499v78q0 44 3 80h-3q-16 -35 -31 -59l-64 -99h95z" />
    <glyph glyph-name="uni2075" unicode="&#x2075;" horiz-adv-x="385" 
d="M323.5 555.5q33.5 -32.5 33.5 -89.5q0 -69 -47 -104t-122 -35q-64 0 -107 18t-67 63l111 49q6 -21 20 -31.5t40 -10.5q25 0 40 13.5t15 35.5q0 46 -53 46q-21 0 -34 -5.5t-23 -17.5l-100 10l24 233h286v-92h-193l-5 -48q-1 -14 -6 -25h1q25 23 89 23t97.5 -32.5z" />
    <glyph glyph-name="uni2076" unicode="&#x2076;" horiz-adv-x="406" 
d="M75 378q-48 51 -48 153q0 100 54 152t143 52q59 0 98 -20t59 -66l-95 -46q-5 19 -20.5 29.5t-39.5 10.5q-37 0 -58 -27.5t-21 -71.5q0 -8 1 -11h1q17 25 41.5 36.5t61.5 11.5q59 0 96 -32t37 -94q0 -61 -44.5 -94.5t-126.5 -33.5q-91 0 -139 51zM255.5 428.5
q13.5 10.5 13.5 29.5q0 20 -13.5 31t-39.5 11t-39.5 -11t-13.5 -31q0 -19 13.5 -29.5t39.5 -10.5t39.5 10.5z" />
    <glyph glyph-name="uni2077" unicode="&#x2077;" horiz-adv-x="355" 
d="M347 730v-80q-67 -63 -94 -142t-27 -175h-125q0 82 30.5 160t88.5 139h-210v98h337z" />
    <glyph glyph-name="uni2078" unicode="&#x2078;" horiz-adv-x="417" 
d="M330 704q45 -31 45 -84q0 -31 -17.5 -53.5t-52.5 -33.5v-1q81 -21 81 -90q0 -55 -47 -85t-131 -30q-83 0 -130.5 30.5t-47.5 84.5q0 34 20.5 56.5t59.5 33.5v1q-33 10 -51 33t-18 54q0 53 45 84t122 31t122 -31zM157 615q0 -19 13.5 -30t37.5 -11q25 0 38 10.5t13 30.5
q0 41 -51 41t-51 -41zM250 417.5q15 11.5 15 31.5q0 21 -15 32.5t-42 11.5q-26 0 -41 -11.5t-15 -32.5q0 -20 15 -31.5t41 -11.5q27 0 42 11.5z" />
    <glyph glyph-name="uni2079" unicode="&#x2079;" horiz-adv-x="411" 
d="M335 683.5q49 -51.5 49 -152.5q0 -103 -53 -153.5t-144 -50.5q-62 0 -102 21.5t-55 72.5l106 36q3 -21 15.5 -29.5t39.5 -8.5q38 0 55 24.5t17 64.5q0 9 -1 14h-1q-10 -19 -35 -31t-57 -12q-66 0 -106 34.5t-40 90.5q0 63 46 97t126 34q91 0 140 -51.5zM160.5 634
q-13.5 -11 -13.5 -31q0 -19 13.5 -29.5t39.5 -10.5q25 0 39 10.5t14 29.5q0 20 -14 31t-39 11q-26 0 -39.5 -11z" />
    <glyph glyph-name="zero.sc" horiz-adv-x="594" 
d="M488.5 494.5q66.5 -74.5 66.5 -214.5t-66.5 -214.5t-191.5 -74.5t-191.5 74.5t-66.5 214.5t66.5 214.5t191.5 74.5t191.5 -74.5zM227.5 402.5q-21.5 -36.5 -21.5 -122.5t21.5 -122.5t69.5 -36.5t69.5 36.5t21.5 122.5t-21.5 122.5t-69.5 36.5t-69.5 -36.5z" />
    <glyph glyph-name="one.sc" horiz-adv-x="415" 
d="M344 560v-560h-170v302q0 45 6 99q-68 -52 -144 -62l-18 132q49 6 102.5 31.5t83.5 57.5h140z" />
    <glyph glyph-name="two.sc" horiz-adv-x="557" 
d="M408 543q52 -25 76.5 -64.5t24.5 -84.5q0 -97 -64.5 -159t-174.5 -114v-2q48 5 103 5h143v-124h-465v104q164 87 229.5 147t65.5 115q0 33 -20 52.5t-57 19.5q-44 0 -67 -30.5t-19 -80.5l-146 41q-1 54 24 99.5t79.5 73t137.5 27.5q78 0 130 -25z" />
    <glyph glyph-name="three.sc" horiz-adv-x="552" 
d="M396 547q49 -21 74.5 -56.5t25.5 -78.5q0 -46 -18 -74.5t-43.5 -41t-50.5 -13.5v-2q27 1 55.5 -11t48.5 -39t20 -70q0 -50 -30 -88.5t-82.5 -59.5t-118.5 -21q-102 0 -163 33t-87 108l152 59q5 -41 25.5 -59.5t64.5 -18.5q36 0 57 17t21 46t-18.5 41.5t-58.5 12.5h-43v96
h32q76 0 76 63q0 26 -17.5 41t-50.5 15q-35 0 -55 -18t-22 -50l-146 44q11 70 76 108t158 38q69 0 118 -21z" />
    <glyph glyph-name="four.sc" horiz-adv-x="612" 
d="M337 115h-298v83l249 362h203v-330h91v-115h-91v-115h-154v115zM338 230l4 231h-3q-10 -23 -44 -79l-105 -152h148z" />
    <glyph glyph-name="five.sc" horiz-adv-x="546" 
d="M455 312q48 -47 48 -123q0 -92 -60 -144.5t-167 -52.5q-87 0 -146.5 26.5t-93.5 85.5l138 70q13 -30 34 -45t62 -15q38 0 60 20t22 53q0 34 -23 52t-61 18q-59 0 -87 -35l-127 15l37 323h388v-119h-265l-12 -94q-1 -13 -8 -34l2 -1q19 22 50 34.5t83 12.5q78 0 126 -47z
" />
    <glyph glyph-name="six.sc" horiz-adv-x="556" 
d="M104.5 66q-66.5 74 -66.5 216q0 138 70.5 212t189.5 74q84 0 134.5 -29t81.5 -94l-126 -59q-10 29 -31 43.5t-57 14.5q-50 0 -81 -41t-31 -115v-12h2q19 34 58 52.5t90 18.5q78 0 130.5 -44.5t52.5 -124.5q0 -84 -59 -135t-167 -51q-124 0 -190.5 74zM350.5 127
q20.5 16 20.5 45t-20.5 45t-56.5 16t-56.5 -16t-20.5 -45t20.5 -45t56.5 -16t56.5 16z" />
    <glyph glyph-name="seven.sc" horiz-adv-x="551" 
d="M518 560v-120q-101 -86 -139.5 -198.5t-39.5 -241.5h-165q0 121 42.5 232t132.5 200h-311v128h480z" />
    <glyph glyph-name="eight.sc" horiz-adv-x="573" 
d="M106.5 35q-65.5 43 -65.5 117q0 45 27 79.5t80 54.5v2q-47 18 -70.5 48.5t-23.5 69.5q0 76 62.5 119t169.5 43q108 0 170.5 -43t62.5 -119q0 -39 -23.5 -69.5t-70.5 -48.5v-2q53 -20 80 -54.5t27 -79.5q0 -74 -66 -117t-180 -43t-179.5 43zM341.5 350q20.5 16 20.5 44
t-20.5 43.5t-55.5 15.5t-55.5 -15.5t-20.5 -43.5t20.5 -44t55.5 -16t55.5 16zM348.5 123q22.5 17 22.5 47t-23 47.5t-62 17.5q-38 0 -61 -17.5t-23 -47.5t22.5 -47t61.5 -17q40 0 62.5 17z" />
    <glyph glyph-name="nine.sc" horiz-adv-x="561" 
d="M125.5 20.5q-54.5 28.5 -86.5 93.5l134 65q11 -68 90 -68q56 0 83.5 39t27.5 121v13h-3q-12 -37 -50.5 -56.5t-91.5 -19.5t-97 20t-70 59.5t-26 94.5q0 84 61.5 135t172.5 51q121 0 187 -75t66 -216q0 -140 -65.5 -212.5t-190.5 -72.5q-87 0 -141.5 28.5zM324 334.5
q21 16.5 21 45.5t-21 45.5t-57 16.5t-57 -16.5t-21 -45.5t21 -45.5t57 -16.5t57 16.5z" />
    <glyph glyph-name="asterisk" unicode="*" horiz-adv-x="588" 
d="M406 424l83 -109l-98 -71l-78 113l-19 42l-20 -42l-78 -113l-97 71l83 109l34 32l-47 5l-130 39l37 115l129 -45l41 -23l-9 46l-4 137h121l-3 -137l-9 -46l41 23l130 45l37 -115l-132 -39l-46 -5z" />
    <glyph glyph-name="backslash" unicode="\" horiz-adv-x="468" 
d="M173 712l280 -782h-158l-280 782h158z" />
    <glyph glyph-name="periodcentered" unicode="&#xb7;" horiz-adv-x="274" 
d="M210.5 419.5q26.5 -23.5 26.5 -66.5q0 -42 -26.5 -66t-73.5 -24t-73.5 24t-26.5 66q0 43 26.5 66.5t73.5 23.5t73.5 -23.5z" />
    <glyph glyph-name="bullet" unicode="&#x2022;" horiz-adv-x="430" 
d="M327.5 441q41.5 -40 41.5 -108q0 -69 -41.5 -109t-112.5 -40t-112.5 40t-41.5 109q0 68 41.5 108t112.5 40t112.5 -40z" />
    <glyph glyph-name="colon" unicode=":" horiz-adv-x="302" 
d="M224.5 486q26.5 -24 26.5 -67q0 -42 -26.5 -66t-73.5 -24t-73.5 24t-26.5 66q0 43 26.5 67t73.5 24t73.5 -24zM224.5 148q26.5 -24 26.5 -67q0 -42 -26.5 -66t-73.5 -24t-73.5 24t-26.5 66q0 43 26.5 67t73.5 24t73.5 -24z" />
    <glyph glyph-name="comma" unicode="," horiz-adv-x="290" 
d="M222.5 136q27.5 -36 27.5 -93q0 -66 -35.5 -119t-103.5 -82l-75 53q47 18 79.5 45t44.5 62l-4 3q-11 -11 -31 -11q-33 0 -58 22t-25 62q0 45 27.5 69.5t72.5 24.5q53 0 80.5 -36z" />
    <glyph glyph-name="ellipsis" unicode="&#x2026;" horiz-adv-x="918" 
d="M841.5 148q26.5 -24 26.5 -67q0 -42 -26.5 -66t-73.5 -24t-73.5 24t-26.5 66q0 43 26.5 67t73.5 24t73.5 -24zM532.5 148q26.5 -24 26.5 -67q0 -42 -26.5 -66t-73.5 -24t-73.5 24t-26.5 66q0 43 26.5 67t73.5 24t73.5 -24zM223.5 148q26.5 -24 26.5 -67q0 -42 -26.5 -66
t-73.5 -24t-73.5 24t-26.5 66q0 43 26.5 67t73.5 24t73.5 -24z" />
    <glyph glyph-name="exclam" unicode="!" horiz-adv-x="301" 
d="M239 447l-19 -232h-139l-19 232v213h177v-213zM221 137q26 -22 26 -62q0 -39 -26 -61t-71 -22t-70.5 22t-25.5 61q0 40 25.5 62t70.5 22t71 -22z" />
    <glyph glyph-name="exclamdown" unicode="&#xa1;" horiz-adv-x="298" 
d="M78.5 363q-25.5 22 -25.5 62q0 39 25.5 61t70.5 22t71 -22t26 -61q0 -40 -26 -62t-71 -22t-70.5 22zM61 53l19 232h139l19 -232v-213h-177v213z" />
    <glyph glyph-name="numbersign" unicode="#" horiz-adv-x="689" 
d="M530 400l-22 -138h111v-102h-128l-26 -160h-115l26 160h-130l-25 -160h-116l25 160h-104v102h121l22 138h-100v102h117l25 158h116l-25 -158h129l25 158h116l-25 -158h115v-102h-132zM415 400h-130l-22 -138h129z" />
    <glyph glyph-name="period" unicode="." horiz-adv-x="290" 
d="M218.5 148q26.5 -24 26.5 -67q0 -42 -26.5 -66t-73.5 -24t-73.5 24t-26.5 66q0 43 26.5 67t73.5 24t73.5 -24z" />
    <glyph glyph-name="question" unicode="?" horiz-adv-x="607" 
d="M495.5 625q69.5 -45 69.5 -136q0 -168 -190 -189l-10 -86h-146l-9 152q92 7 132 31.5t40 65.5q0 33 -21.5 51t-64.5 18q-44 0 -70 -25.5t-30 -75.5l-164 63q12 80 79.5 128t196.5 48q118 0 187.5 -45zM363.5 139q25.5 -22 25.5 -62t-25.5 -62.5t-70.5 -22.5
q-46 0 -71.5 22.5t-25.5 62.5t25.5 62t71.5 22q45 0 70.5 -22z" />
    <glyph glyph-name="questiondown" unicode="&#xbf;" horiz-adv-x="605" 
d="M242.5 362q-25.5 22 -25.5 62t25.5 62.5t70.5 22.5q46 0 71.5 -22.5t25.5 -62.5t-25.5 -62t-71.5 -22q-45 0 -70.5 22zM110.5 -124q-69.5 45 -69.5 136q0 168 190 189l11 86h145l10 -153q-93 -7 -132.5 -31t-39.5 -65q0 -69 85 -69q44 0 70 25.5t30 74.5l164 -62
q-11 -80 -79 -128t-197 -48q-118 0 -187.5 45z" />
    <glyph glyph-name="quotedbl" unicode="&#x22;" horiz-adv-x="447" 
d="M374 401h-113v277h142zM176 401h-113v277h142z" />
    <glyph glyph-name="quotesingle" unicode="'" horiz-adv-x="250" 
d="M176 401h-113v277h142z" />
    <glyph glyph-name="semicolon" unicode=";" horiz-adv-x="302" 
d="M78.5 353.5q-26.5 23.5 -26.5 66.5q0 42 26.5 66t73.5 24t73.5 -24t26.5 -66q0 -43 -26.5 -66.5t-73.5 -23.5t-73.5 23.5zM229.5 136q27.5 -36 27.5 -93q0 -66 -35.5 -119t-103.5 -82l-75 53q47 18 79.5 45t44.5 62l-4 3q-11 -11 -31 -11q-33 0 -58 22t-25 62
q0 45 27.5 69.5t72.5 24.5q53 0 80.5 -36z" />
    <glyph glyph-name="slash" unicode="/" horiz-adv-x="468" 
d="M173 -70h-158l280 782h158z" />
    <glyph glyph-name="underscore" unicode="_" horiz-adv-x="539" 
d="M539 -201h-539v135h539v-135z" />
    <glyph glyph-name="periodcentered.case" horiz-adv-x="274" 
d="M210.5 422q26.5 -24 26.5 -67q0 -42 -26.5 -66t-73.5 -24t-73.5 24t-26.5 66q0 43 26.5 67t73.5 24t73.5 -24z" />
    <glyph glyph-name="exclamdown.case" horiz-adv-x="298" 
d="M78.5 523q-25.5 22 -25.5 62q0 39 25.5 61t70.5 22t71 -22t26 -61q0 -40 -26 -62t-71 -22t-70.5 22zM61 213l19 232h139l19 -232v-213h-177v213z" />
    <glyph glyph-name="periodcentered.loclCAT.case" horiz-adv-x="42" 
d="M-0.5 422q26.5 -24 26.5 -67q0 -42 -26.5 -66t-73.5 -24t-73.5 24t-26.5 66q0 43 26.5 67t73.5 24t73.5 -24z" />
    <glyph glyph-name="questiondown.case" horiz-adv-x="605" 
d="M242.5 521q-25.5 22 -25.5 62t25.5 62.5t70.5 22.5q46 0 71.5 -22.5t25.5 -62.5t-25.5 -62t-71.5 -22q-45 0 -70.5 22zM110.5 35q-69.5 45 -69.5 136q0 168 190 189l11 86h145l10 -153q-93 -7 -132.5 -31t-39.5 -65q0 -69 85 -69q44 0 70 25.5t30 74.5l164 -62
q-11 -80 -79 -128t-197 -48q-118 0 -187.5 45z" />
    <glyph glyph-name="periodcentered.loclCAT" horiz-adv-x="170" 
d="M140.5 419.5q26.5 -23.5 26.5 -66.5q0 -42 -26.5 -66t-73.5 -24t-73.5 24t-26.5 66q0 43 26.5 66.5t73.5 23.5t73.5 -23.5z" />
    <glyph glyph-name="periodcentered.loclCAT.ss02" horiz-adv-x="274" 
d="M210.5 420q26.5 -24 26.5 -67q0 -42 -26.5 -66t-73.5 -24t-73.5 24t-26.5 66q0 43 26.5 67t73.5 24t73.5 -24z" />
    <glyph glyph-name="colon.tf" horiz-adv-x="302" 
d="M224.5 486q26.5 -24 26.5 -67q0 -42 -26.5 -66t-73.5 -24t-73.5 24t-26.5 66q0 43 26.5 67t73.5 24t73.5 -24zM224.5 148q26.5 -24 26.5 -67q0 -42 -26.5 -66t-73.5 -24t-73.5 24t-26.5 66q0 43 26.5 67t73.5 24t73.5 -24z" />
    <glyph glyph-name="comma.tf" horiz-adv-x="304" 
d="M231.5 136q27.5 -36 27.5 -93q0 -66 -35.5 -119t-103.5 -82l-75 53q47 18 79.5 45t44.5 62l-4 3q-11 -11 -31 -11q-33 0 -58 22t-25 62q0 45 27.5 69.5t72.5 24.5q53 0 80.5 -36z" />
    <glyph glyph-name="numbersign.tf" 
d="M482 400l-22 -138h96v-102h-111l-25 -160h-99l25 160h-134l-24 -160h-99l25 160h-100v102h115l22 138h-104v102h119l25 158h99l-25 -158h134l24 158h99l-24 -158h91v-102h-107zM383 400h-134l-21 -138h134z" />
    <glyph glyph-name="period.tf" horiz-adv-x="302" 
d="M224.5 148q26.5 -24 26.5 -67q0 -42 -26.5 -66t-73.5 -24t-73.5 24t-26.5 66q0 43 26.5 67t73.5 24t73.5 -24z" />
    <glyph glyph-name="semicolon.tf" horiz-adv-x="302" 
d="M80.5 353.5q-26.5 23.5 -26.5 66.5q0 42 26.5 66t73.5 24q46 0 72.5 -24t26.5 -66q0 -43 -26 -66.5t-73 -23.5t-73.5 23.5zM230.5 136q27.5 -36 27.5 -93q0 -66 -35.5 -119t-103.5 -82l-75 53q99 37 125 107l-5 3q-10 -11 -30 -11q-33 0 -58.5 21.5t-25.5 62.5
q0 45 27.5 69.5t72.5 24.5q53 0 80.5 -36z" />
    <glyph glyph-name="uni208D" unicode="&#x208d;" horiz-adv-x="257" 
d="M258 236q-47 -45 -66.5 -96t-19.5 -131t19.5 -131t66.5 -96l-64 -55q-137 96 -137 282t137 282z" />
    <glyph glyph-name="uni208E" unicode="&#x208e;" horiz-adv-x="257" 
d="M199 9q0 -186 -136 -282l-65 55q47 44 67 95.5t20 131.5t-20 131.5t-67 95.5l65 55q136 -96 136 -282z" />
    <glyph glyph-name="braceleft" unicode="{" horiz-adv-x="420" 
d="M314.5 -63.5q25.5 -19.5 81.5 -19.5l-5 -108q-87 0 -139 16.5t-75.5 53.5t-23.5 100v134q0 56 -25.5 80t-86.5 24v110q61 0 86.5 24t25.5 80v135q0 62 23.5 99t75.5 54t139 17l5 -108q-56 0 -81.5 -19t-25.5 -62v-151q0 -49 -25 -79t-75 -45q50 -14 75 -44t25 -79v-150
q0 -43 25.5 -62.5z" />
    <glyph glyph-name="braceright" unicode="}" horiz-adv-x="420" 
d="M292.5 351q25.5 -24 86.5 -24v-110q-61 0 -86.5 -24t-25.5 -80v-134q0 -63 -23.5 -100t-75.5 -53.5t-139 -16.5l-5 108q56 0 81.5 19.5t25.5 62.5v150q0 49 25.5 79t75.5 44q-51 15 -76 44.5t-25 79.5v151q0 43 -25.5 62t-81.5 19l5 108q87 0 139 -17t75.5 -54t23.5 -99
v-135q0 -56 25.5 -80z" />
    <glyph glyph-name="bracketleft" unicode="[" horiz-adv-x="391" 
d="M232 594v-643h133v-119h-280v881h280v-119h-133z" />
    <glyph glyph-name="bracketright" unicode="]" horiz-adv-x="391" 
d="M306 -168h-280v119h133v643h-133v119h280v-881z" />
    <glyph glyph-name="parenleft" unicode="(" horiz-adv-x="391" 
d="M381 658q-86 -77 -123.5 -166t-37.5 -219q0 -131 37.5 -220t123.5 -166l-80 -78q-234 156 -234 464q0 154 59 270t175 193z" />
    <glyph glyph-name="parenright" unicode=")" horiz-adv-x="391" 
d="M264.5 542.5q59.5 -116.5 59.5 -269.5q0 -307 -234 -464l-80 78q86 77 123 165.5t37 220.5q0 130 -37.5 219t-122.5 166l80 78q115 -77 174.5 -193.5z" />
    <glyph glyph-name="uni207D" unicode="&#x207d;" horiz-adv-x="257" 
d="M258 758q-47 -45 -66.5 -96t-19.5 -131t19.5 -131t66.5 -96l-64 -55q-137 96 -137 282t137 282z" />
    <glyph glyph-name="uni207E" unicode="&#x207e;" horiz-adv-x="257" 
d="M199 531q0 -186 -136 -282l-65 55q47 44 67 95.5t20 131.5t-20 131.5t-67 95.5l65 55q136 -96 136 -282z" />
    <glyph glyph-name="braceleft.case" horiz-adv-x="420" 
d="M314.5 8.5q25.5 -19.5 81.5 -19.5l-5 -108q-87 0 -139 17t-75.5 54t-23.5 99v119q0 56 -25.5 80t-86.5 24v110q61 0 86.5 24t25.5 80v119q0 62 23.5 99t75.5 54t139 17l5 -109q-56 0 -81.5 -19t-25.5 -62v-135q0 -49 -25 -78.5t-75 -44.5q50 -15 75 -44.5t25 -78.5v-135
q0 -43 25.5 -62.5z" />
    <glyph glyph-name="braceright.case" horiz-adv-x="420" 
d="M292.5 408q25.5 -24 86.5 -24v-110q-61 0 -86.5 -24t-25.5 -80v-119q0 -62 -23.5 -99t-75.5 -54t-139 -17l-5 108q56 0 81.5 19.5t25.5 62.5v135q0 49 25 78.5t74 44.5q-49 15 -74 44.5t-25 78.5v135q0 43 -25.5 62t-81.5 19l5 109q87 0 139 -17t75.5 -54t23.5 -99v-119
q0 -56 25.5 -80z" />
    <glyph glyph-name="bracketleft.case" horiz-adv-x="391" 
d="M232 633v-611h133v-119h-280v849h280v-119h-133z" />
    <glyph glyph-name="bracketright.case" horiz-adv-x="391" 
d="M306 -97h-280v119h133v611h-133v119h280v-849z" />
    <glyph glyph-name="parenleft.case" horiz-adv-x="391" 
d="M381 712q-86 -77 -123.5 -165.5t-37.5 -219.5t37.5 -220t123.5 -166l-80 -78q-234 158 -234 464q0 307 234 463z" />
    <glyph glyph-name="parenright.case" horiz-adv-x="391" 
d="M324 327q0 -306 -234 -464l-80 78q86 77 123.5 166t37.5 220t-37.5 219.5t-123.5 165.5l80 78q234 -156 234 -463z" />
    <glyph glyph-name="emdash" unicode="&#x2014;" horiz-adv-x="1006" 
d="M928 200h-850v135h850v-135z" />
    <glyph glyph-name="endash" unicode="&#x2013;" horiz-adv-x="692" 
d="M614 200h-536v135h536v-135z" />
    <glyph glyph-name="hyphen" unicode="-" horiz-adv-x="528" 
d="M447 198h-366v139h366v-139z" />
    <glyph glyph-name="uni00AD" unicode="&#xad;" horiz-adv-x="528" 
d="M447 198h-366v139h366v-139z" />
    <glyph glyph-name="emdash.case" horiz-adv-x="1006" 
d="M928 265h-850v135h850v-135z" />
    <glyph glyph-name="endash.case" horiz-adv-x="692" 
d="M614 265h-536v135h536v-135z" />
    <glyph glyph-name="hyphen.case" horiz-adv-x="528" 
d="M447 263h-366v139h366v-139z" />
    <glyph glyph-name="guillemotleft" unicode="&#xab;" horiz-adv-x="585" 
d="M187 265l121 -196h-148l-125 196l125 196h148zM429 265l121 -196h-148l-125 196l125 196h148z" />
    <glyph glyph-name="guillemotright" unicode="&#xbb;" horiz-adv-x="585" 
d="M183 461l125 -196l-125 -196h-148l121 196l-121 196h148zM425 461l125 -196l-125 -196h-148l121 196l-121 196h148z" />
    <glyph glyph-name="guilsinglleft" unicode="&#x2039;" horiz-adv-x="343" 
d="M187 265l121 -196h-148l-125 196l125 196h148z" />
    <glyph glyph-name="guilsinglright" unicode="&#x203a;" horiz-adv-x="343" 
d="M183 461l125 -196l-125 -196h-148l121 196l-121 196h148z" />
    <glyph glyph-name="quotedblbase" unicode="&#x201e;" horiz-adv-x="530" 
d="M221.5 136q27.5 -36 27.5 -93q0 -66 -35.5 -119t-103.5 -82l-75 53q47 18 79.5 45t44.5 62l-4 3q-11 -11 -31 -11q-33 0 -58 22t-25 62q0 45 27.5 69.5t72.5 24.5q53 0 80.5 -36zM461.5 136q27.5 -36 27.5 -93q0 -66 -35.5 -119t-103.5 -82l-75 53q47 18 79.5 45t44.5 62
l-4 3q-11 -11 -31 -11q-33 0 -58 22t-25 62q0 45 27.5 69.5t72.5 24.5q53 0 80.5 -36z" />
    <glyph glyph-name="quotedblleft" unicode="&#x201c;" horiz-adv-x="539" 
d="M69 398q-28 36 -28 92q0 66 35.5 119.5t103.5 82.5l75 -53q-100 -39 -124 -107l4 -3q13 11 31 11q33 0 58 -22t25 -63q0 -44 -27.5 -68.5t-72.5 -24.5q-52 0 -80 36zM314 398q-28 36 -28 92q0 66 35.5 119.5t103.5 82.5l75 -53q-100 -39 -124 -107l4 -3q13 11 31 11
q33 0 58 -22t25 -63q0 -44 -27.5 -68.5t-72.5 -24.5q-52 0 -80 36z" />
    <glyph glyph-name="quotedblright" unicode="&#x201d;" horiz-adv-x="534" 
d="M230.5 654q27.5 -36 27.5 -92q0 -66 -35.5 -119.5t-103.5 -82.5l-75 53q99 37 125 107l-5 3q-10 -11 -30 -11q-33 0 -58.5 21.5t-25.5 62.5q0 45 27.5 69.5t72.5 24.5q53 0 80.5 -36zM470.5 654q27.5 -36 27.5 -92q0 -66 -35.5 -119.5t-103.5 -82.5l-75 53q99 37 125 107
l-5 3q-10 -11 -30 -11q-33 0 -58.5 21.5t-25.5 62.5q0 45 27.5 69.5t72.5 24.5q53 0 80.5 -36z" />
    <glyph glyph-name="quoteleft" unicode="&#x2018;" horiz-adv-x="294" 
d="M69 398q-28 36 -28 92q0 66 35.5 119.5t103.5 82.5l75 -53q-100 -39 -124 -107l4 -3q13 11 31 11q33 0 58 -22t25 -63q0 -44 -27.5 -68.5t-72.5 -24.5q-52 0 -80 36z" />
    <glyph glyph-name="quoteright" unicode="&#x2019;" horiz-adv-x="294" 
d="M230.5 654q27.5 -36 27.5 -92q0 -66 -35.5 -119.5t-103.5 -82.5l-75 53q99 37 125 107l-5 3q-10 -11 -30 -11q-33 0 -58.5 21.5t-25.5 62.5q0 45 27.5 69.5t72.5 24.5q53 0 80.5 -36z" />
    <glyph glyph-name="quotesinglbase" unicode="&#x201a;" horiz-adv-x="290" 
d="M221.5 136q27.5 -36 27.5 -93q0 -66 -35.5 -119t-103.5 -82l-75 53q47 18 79.5 45t44.5 62l-4 3q-11 -11 -31 -11q-33 0 -58 22t-25 62q0 45 27.5 69.5t72.5 24.5q53 0 80.5 -36z" />
    <glyph glyph-name="guillemotleft.case" horiz-adv-x="586" 
d="M187 323l121 -196h-148l-125 196l125 196h148zM429 323l121 -196h-148l-125 196l125 196h148z" />
    <glyph glyph-name="guillemotright.case" horiz-adv-x="586" 
d="M183 519l125 -196l-125 -196h-148l121 196l-121 196h148zM425 519l125 -196l-125 -196h-148l121 196l-121 196h148z" />
    <glyph glyph-name="guilsinglleft.case" horiz-adv-x="343" 
d="M187 323l121 -196h-148l-125 196l125 196h148z" />
    <glyph glyph-name="guilsinglright.case" horiz-adv-x="343" 
d="M183 519l125 -196l-125 -196h-148l121 196l-121 196h148z" />
    <glyph glyph-name="periodcentered.sc" horiz-adv-x="274" 
d="M210.5 377q26.5 -24 26.5 -67q0 -42 -26.5 -66t-73.5 -24t-73.5 24t-26.5 66q0 43 26.5 67t73.5 24t73.5 -24z" />
    <glyph glyph-name="exclam.sc" horiz-adv-x="283" 
d="M228 414l-18 -220h-136l-18 220v146h172v-146zM209 130q24 -21 24 -59q0 -37 -24 -58t-67 -21t-67.5 21t-24.5 58q0 38 24.5 59t67.5 21t67 -21z" />
    <glyph glyph-name="exclamdown.sc" horiz-adv-x="283" 
d="M74 430q-24 21 -24 59q0 37 24 58t67 21t67.5 -21t24.5 -58q0 -38 -24.5 -59t-67.5 -21t-67 21zM55 146l19 220h135l19 -220v-146h-173v146z" />
    <glyph glyph-name="periodcentered.loclCAT.sc" horiz-adv-x="48" 
d="M-4.5 383q26.5 -24 26.5 -67q0 -42 -26.5 -66t-73.5 -24t-73.5 24t-26.5 66q0 43 26.5 67t73.5 24t73.5 -24z" />
    <glyph glyph-name="question.sc" horiz-adv-x="528" 
d="M443.5 529.5q65.5 -38.5 65.5 -114.5q0 -68 -50 -104t-121 -41l-7 -73h-151l-3 115q67 7 103 17t50 24.5t14 36.5q0 26 -20 40.5t-59 14.5q-44 0 -68 -19t-28 -58l-157 51q14 74 77 111.5t178 37.5q111 0 176.5 -38.5zM321.5 129.5q24.5 -21.5 24.5 -58.5t-24.5 -58
t-67.5 -21t-67 21t-24 58q0 38 24 59t67 21t67.5 -21.5z" />
    <glyph glyph-name="questiondown.sc" horiz-adv-x="522" 
d="M198.5 432.5q-24.5 21.5 -24.5 58.5t24.5 58t67.5 21t67 -21t24 -58q0 -38 -24 -59t-67 -21t-67.5 21.5zM76.5 32.5q-65.5 38.5 -65.5 114.5q0 67 50 103.5t121 41.5l7 72h151l3 -114q-67 -7 -103 -17t-50 -24.5t-14 -36.5q0 -27 20 -41t59 -14q87 0 96 76l157 -50
q-14 -75 -77 -112t-178 -37q-111 0 -176.5 38.5z" />
    <glyph glyph-name="quotedbl.sc" horiz-adv-x="449" 
d="M374 314h-113v277h142zM176 314h-113v277h142z" />
    <glyph glyph-name="quotedblleft.sc" horiz-adv-x="553" 
d="M73 312q-28 36 -28 92q0 66 35.5 119.5t103.5 82.5l75 -53q-47 -18 -79.5 -45t-44.5 -62l4 -3q11 11 31 11q33 0 58 -22t25 -62q0 -45 -27.5 -69.5t-72.5 -24.5q-52 0 -80 36zM324 312q-28 36 -28 92q0 66 35.5 119.5t103.5 82.5l75 -53q-47 -18 -79.5 -45t-44.5 -62
l4 -3q11 11 31 11q33 0 58 -22t25 -62q0 -45 -27.5 -69.5t-72.5 -24.5q-52 0 -80 36z" />
    <glyph glyph-name="quotedblright.sc" horiz-adv-x="548" 
d="M234.5 567.5q27.5 -35.5 27.5 -92.5q0 -66 -35.5 -119.5t-103.5 -81.5l-75 53q99 37 125 106l-5 4q-10 -12 -30 -12q-33 0 -58.5 22t-25.5 63q0 45 27.5 69t72.5 24q53 0 80.5 -35.5zM480.5 567.5q27.5 -35.5 27.5 -92.5q0 -66 -35.5 -119.5t-103.5 -81.5l-75 53
q99 37 125 106l-5 4q-10 -12 -30 -12q-33 0 -58.5 22t-25.5 63q0 45 27.5 69t72.5 24q53 0 80.5 -35.5z" />
    <glyph glyph-name="quoteleft.sc" horiz-adv-x="302" 
d="M73 312q-28 36 -28 92q0 66 35.5 119.5t103.5 82.5l75 -53q-47 -18 -79.5 -45t-44.5 -62l4 -3q11 11 31 11q33 0 58 -22t25 -62q0 -45 -27.5 -69.5t-72.5 -24.5q-52 0 -80 36z" />
    <glyph glyph-name="quoteright.sc" horiz-adv-x="302" 
d="M234.5 567.5q27.5 -35.5 27.5 -92.5q0 -66 -35.5 -119.5t-103.5 -81.5l-75 53q99 37 125 106l-5 4q-10 -12 -30 -12q-33 0 -58.5 22t-25.5 63q0 45 27.5 69t72.5 24q53 0 80.5 -35.5z" />
    <glyph glyph-name="quotesingle.sc" horiz-adv-x="251" 
d="M176 314h-113v277h142z" />
    <glyph glyph-name="uni00A0" unicode="&#xa0;" horiz-adv-x="286" 
 />
    <glyph glyph-name="space.tf" horiz-adv-x="302" 
 />
    <glyph glyph-name="Euro" unicode="&#x20ac;" horiz-adv-x="702" 
d="M677 174q-22 -90 -92.5 -137t-171.5 -47q-115 0 -192 57t-105 162h-91v78h78q-2 28 -2 43q0 12 1 18h-77v77h85q23 117 102 181t201 64q97 0 167.5 -41.5t92.5 -114.5l-126 -60q-8 48 -42.5 72t-82.5 24q-61 0 -99.5 -31.5t-54.5 -93.5h236l-26 -77h-220v-18q0 -30 1 -43
h205l-25 -78h-164q36 -99 143 -99q48 0 82.5 26t45.5 77z" />
    <glyph glyph-name="cent" unicode="&#xa2;" horiz-adv-x="575" 
d="M490.5 40q-50.5 -41 -137.5 -48v-92h-88v93q-107 13 -163.5 79.5t-56.5 177.5q0 112 57.5 179t162.5 79v92h88v-92q91 -8 137.5 -49.5t55.5 -103.5l-127 -46q-12 67 -66 88v-295q56 17 70 85l125 -43q-7 -63 -57.5 -104zM265 104v293q-36 -13 -54 -49t-18 -100
q0 -121 72 -144z" />
    <glyph glyph-name="currency" unicode="&#xa4;" horiz-adv-x="646" 
d="M512 227l98 -87l-98 -97l-89 99q-43 -21 -99 -21q-55 0 -102 22l-88 -100l-98 97l98 87q-24 45 -24 103q0 57 24 102l-98 86l98 98l89 -100q45 21 101 21q57 0 100 -21l88 100l98 -98l-97 -88q23 -44 23 -100q0 -59 -24 -103zM384 266q23 24 23 64q0 39 -23 63t-60 24
q-38 0 -61 -24t-23 -63q0 -40 23 -64t61 -24q37 0 60 24z" />
    <glyph glyph-name="dollar" unicode="$" horiz-adv-x="638" 
d="M279 2q-91 6 -152 37t-102 87l85 99q22 -44 66.5 -71.5t102.5 -35.5v152q-70 14 -118.5 32t-81 55.5t-32.5 100.5q0 80 61.5 135t170.5 65v90h97v-90q84 -6 137.5 -35.5t97.5 -83.5l-85 -96q-28 46 -64 69.5t-86 28.5v-157q68 -14 116 -33t80.5 -57.5t32.5 -102.5
q0 -80 -63 -130t-166 -59v-90h-97v90zM279 538q-37 -6 -57 -24t-20 -46q0 -25 20 -39.5t57 -24.5v134zM451 184q0 26 -19 40.5t-56 24.5v-129q75 11 75 64z" />
    <glyph glyph-name="florin" unicode="&#x192;" horiz-adv-x="516" 
d="M389 589.5q-21 -19.5 -28 -57.5l-19 -115h135v-118h-155l-43 -252q-15 -85 -65.5 -130t-131.5 -45q-38 0 -60.5 5.5t-47.5 21.5l22 107q22 -16 56 -16q33 0 54.5 19.5t27.5 56.5l40 233h-136v118h156l23 135q14 85 64.5 130t131.5 45q38 0 60.5 -5.5t47.5 -21.5l-22 -107
q-23 16 -55 16q-34 0 -55 -19.5z" />
    <glyph glyph-name="sterling" unicode="&#xa3;" horiz-adv-x="624" 
d="M596 140q0 -65 -37 -107.5t-103 -42.5q-46 0 -82 15.5t-78 44.5q-55 -60 -141 -60q-53 0 -87 25t-34 68t36.5 68t90.5 25q37 0 74 -7q-2 46 -22 87h-160v99h91q-24 35 -33.5 62t-9.5 57q0 54 27.5 98.5t81.5 71t129 26.5q197 0 236 -175l-138 -64q-14 63 -37.5 89.5
t-65.5 26.5q-38 0 -61 -20.5t-23 -54.5q0 -21 9.5 -44t33.5 -58q4 -5 10 -15h195v-99h-149q5 -27 5 -51q0 -43 -13 -78q23 -11 42.5 -16.5t41.5 -5.5q35 0 50.5 20t14.5 63l103 -12q3 -18 3 -36zM224 95q-32 16 -65 16q-40 0 -40 -28q0 -13 11 -21t29 -8q47 0 65 41z" />
    <glyph glyph-name="uni20BA" unicode="&#x20ba;" horiz-adv-x="709" 
d="M674 303q-2 -145 -75 -224t-212 -79h-245v261l-104 -29v62l104 30v78l-104 -29v62l104 30v195h170v-148l175 49v-62l-175 -49v-79l175 49v-62l-175 -49v-180h57q140 0 140 174h165z" />
    <glyph glyph-name="uni20BD" unicode="&#x20bd;" horiz-adv-x="687" 
d="M288 271v-64h181v-92h-181v-115h-170v115h-86v92h86v64h-86v96h86v293h279q124 0 189.5 -51t65.5 -144q0 -97 -65 -145.5t-190 -48.5h-109zM288 367h82q56 0 82.5 20t26.5 62q0 43 -26.5 62.5t-82.5 19.5h-82v-164z" />
    <glyph glyph-name="yen" unicode="&#xa5;" horiz-adv-x="678" 
d="M495 305h118v-60h-192v-66h192v-58h-192v-121h-164v121h-191v58h191v66h-191v60h117l60 -4l-224 359h176l100 -206l43 -102h2l44 103l99 205h176l-224 -359z" />
    <glyph glyph-name="cent.tf" 
d="M493.5 40q-50.5 -41 -137.5 -48v-92h-88v93q-107 13 -163.5 79.5t-56.5 177.5q0 112 57.5 179t162.5 79v92h88v-92q91 -8 137.5 -49.5t55.5 -103.5l-127 -46q-12 67 -66 88v-295q56 17 70 85l125 -43q-7 -63 -57.5 -104zM268 104v293q-36 -13 -54 -49t-18 -100
q0 -121 72 -144z" />
    <glyph glyph-name="currency.tf" 
d="M491 227l98 -87l-98 -97l-89 99q-43 -21 -99 -21q-55 0 -102 22l-88 -100l-98 97l98 87q-24 45 -24 103q0 57 24 102l-98 86l98 98l89 -100q45 21 101 21q57 0 100 -21l88 100l98 -98l-97 -88q23 -44 23 -100q0 -59 -24 -103zM363 266q23 24 23 64q0 39 -23 63t-60 24
q-38 0 -61 -24t-23 -63q0 -40 23 -64t61 -24q37 0 60 24z" />
    <glyph glyph-name="dollar.tf" 
d="M467 347q44 -19 73 -56.5t29 -99.5q0 -79 -57.5 -128.5t-151.5 -59.5v-91h-97v90q-84 7 -141 37.5t-96 86.5l92 99q16 -41 56 -68t89 -37v149q-63 14 -107 32.5t-73.5 56.5t-29.5 100q0 79 56 133.5t154 65.5v91h97v-90q74 -7 121 -35.5t96 -83.5l-87 -96q-40 82 -130 98
v-161q63 -14 107 -33zM209.5 429q18.5 -15 53.5 -26v136q-72 -15 -72 -71q0 -24 18.5 -39zM414.5 141q17.5 16 17.5 43q0 24 -18.5 38.5t-53.5 24.5v-128q37 6 54.5 22z" />
    <glyph glyph-name="Euro.tf" 
d="M586 170q-16 -83 -79.5 -131.5t-156.5 -48.5q-99 0 -164 56.5t-88 162.5h-84v78h73q-1 14 -1 43v18h-72v77h79q20 118 88.5 181.5t175.5 63.5q95 0 149 -36.5t73 -113.5l-126 -60q-5 45 -29 67.5t-63 22.5q-46 0 -78 -32t-46 -93h169l-19 -77h-159v-18q0 -17 2 -43h143
l-18 -78h-112q15 -48 42.5 -73.5t66.5 -25.5q96 0 106 96z" />
    <glyph glyph-name="florin.tf" 
d="M462.5 589q-22.5 -20 -29.5 -57l-21 -115h146v-118h-167l-45 -252q-15 -85 -67 -130t-135 -45q-39 0 -62 5.5t-48 21.5l22 107q22 -16 57 -16q36 0 58.5 19.5t29.5 56.5l42 233h-142v118h163l25 135q15 85 66.5 130t135.5 45q38 0 61.5 -5.5t47.5 -21.5l-21 -107
q-25 16 -58 16q-36 0 -58.5 -20z" />
    <glyph glyph-name="uni20BA.tf" 
d="M576 285q-2 -133 -67.5 -209t-189.5 -76h-212v263l-100 -28v62l100 28v79l-100 -28v62l100 28v194h164v-148l175 49v-62l-175 -49v-79l175 49v-62l-175 -49v-184h30q129 0 129 160h146z" />
    <glyph glyph-name="uni20BD.tf" 
d="M265 268v-61h166v-91h-166v-116h-161v116h-72v91h72v61h-72v97h72v295h239q118 0 182 -52.5t64 -143.5q0 -96 -63 -146t-183 -50h-78zM265 365h64q49 0 71.5 20t22.5 64t-22.5 64t-71.5 20h-64v-168z" />
    <glyph glyph-name="sterling.tf" 
d="M535.5 40.5q-33.5 -50.5 -105.5 -50.5q-40 0 -72.5 15t-70.5 42q-54 -57 -136 -57q-54 0 -87.5 25t-33.5 68t35.5 68t91.5 25q35 0 70 -7q-1 27 -7.5 50t-21.5 49h-149v93h86q-21 32 -29.5 58t-8.5 55q0 54 27 98.5t79 71t125 26.5q95 0 147.5 -42.5t72.5 -131.5
l-135 -54q-8 55 -30.5 80t-61.5 25q-36 0 -57 -20.5t-21 -57.5q0 -20 8.5 -40t32.5 -57l7 -11h191v-93h-145q8 -28 8 -67t-13 -78q36 -18 69 -18q32 0 46.5 20t13.5 63l104 -12q4 -85 -29.5 -135.5zM217 95q-30 16 -61 16q-38 0 -38 -28q0 -13 10.5 -21t27.5 -8q44 0 61 41z
" />
    <glyph glyph-name="yen.tf" 
d="M446 305h106v-60h-171v-66h171v-58h-171v-121h-158v121h-171v58h171v66h-171v60h106l47 -1l-187 356h160l89 -209l34 -103h2l34 104l89 208h160l-187 -356z" />
    <glyph glyph-name="approxequal" unicode="&#x2248;" 
d="M250.5 524q28.5 -9 66.5 -26q35 -15 55 -21.5t41 -6.5q39 0 69 11.5t64 41.5v-126q-30 -26 -61 -38.5t-67 -12.5q-30 0 -56.5 8t-64.5 24q-35 15 -59 22.5t-49 7.5q-42 0 -71 -12t-60 -41v126q34 28 62.5 40t68.5 12q33 0 61.5 -9zM249 290.5q28 -8.5 68 -25.5
q30 -14 52 -21t44 -7q39 0 69 11t64 41v-125q-30 -27 -61 -39.5t-67 -12.5q-30 0 -56.5 8t-64.5 24q-35 15 -59 22.5t-49 7.5q-43 0 -71.5 -12t-59.5 -41v126q33 29 61.5 40.5t69.5 11.5q32 0 60 -8.5z" />
    <glyph glyph-name="asciitilde" unicode="~" horiz-adv-x="597" 
d="M508.5 280q-40.5 -49 -115.5 -49q-36 0 -61 10.5t-52 29.5q-18 12 -30.5 18t-26.5 6q-21 0 -32 -14.5t-16 -44.5h-132q5 95 45.5 144.5t115.5 49.5q36 0 61 -10.5t53 -29.5q18 -12 30 -18t26 -6q21 0 32 14.5t16 44.5h132q-5 -96 -45.5 -145z" />
    <glyph glyph-name="divide" unicode="&#xf7;" 
d="M366 602q23 -22 23 -61t-23 -61t-63 -22t-63 22t-23 61t23 61t63 22t63 -22zM554 264h-504v122h504v-122zM366 172q23 -22 23 -61t-23 -61t-63 -22t-63 22t-23 61t23 61t63 22t63 -22z" />
    <glyph glyph-name="equal" unicode="=" 
d="M539 366h-474v117h474v-117zM539 150h-474v117h474v-117z" />
    <glyph glyph-name="uni208C" unicode="&#x208c;" horiz-adv-x="405" 
d="M55 133h296v-89h-296v89zM55 -21h296v-89h-296v89z" />
    <glyph glyph-name="uni207C" unicode="&#x207c;" horiz-adv-x="405" 
d="M55 655h296v-89h-296v89zM55 501h296v-89h-296v89z" />
    <glyph glyph-name="greater" unicode="&#x3e;" 
d="M541 370v-147l-490 -218v161l370 131l-370 130v161z" />
    <glyph glyph-name="greaterequal" unicode="&#x2265;" 
d="M543 503v-190l-489 -151v143l405 104l-405 103v143zM54 123h489v-123h-489v123z" />
    <glyph glyph-name="infinity" unicode="&#x221e;" horiz-adv-x="942" 
d="M849 470.5q54 -54.5 54 -173.5q0 -121 -56 -174.5t-151 -53.5q-63 0 -117 29t-127 101q-54 -58 -88 -85t-63.5 -36t-71.5 -9q-83 0 -136.5 54.5t-53.5 173.5t54 173.5t137 54.5q67 0 125.5 -26t134.5 -103q56 58 94 85.5t65 35.5t63 8q83 0 137 -54.5zM760.5 263.5
q19.5 23.5 19.5 68.5q0 44 -17.5 67t-50.5 23q-19 0 -36 -6.5t-43.5 -28.5t-70.5 -68q41 -43 73.5 -61t66.5 -18q39 0 58.5 23.5zM267.5 178.5q16.5 6.5 42 28.5t69.5 69q-46 46 -75.5 62t-65.5 16q-35 0 -55.5 -22.5t-20.5 -69.5q0 -45 19 -67.5t51 -22.5q19 0 35.5 6.5z
" />
    <glyph glyph-name="integral" unicode="&#x222b;" horiz-adv-x="478" 
d="M472 728l-14 -107q-24 19 -64 19q-36 0 -56.5 -17t-20.5 -55v-516q0 -89 -54.5 -134.5t-139.5 -45.5q-41 0 -68.5 8t-48.5 22l14 107q13 -10 27.5 -14.5t36.5 -4.5q77 0 77 72v516q0 89 55 134.5t140 45.5q74 0 116 -30z" />
    <glyph glyph-name="less" unicode="&#x3c;" 
d="M553 427l-371 -130l371 -131v-161l-490 218v147l490 218v-161z" />
    <glyph glyph-name="lessequal" unicode="&#x2264;" 
d="M550 512l-406 -104l406 -103v-143l-489 151v190l489 152v-143zM61 123h489v-123h-489v123z" />
    <glyph glyph-name="logicalnot" unicode="&#xac;" 
d="M544 386v-289h-137v167h-347v122h484z" />
    <glyph glyph-name="minus" unicode="&#x2212;" 
d="M544 260h-484v129h484v-129z" />
    <glyph glyph-name="uni208B" unicode="&#x208b;" horiz-adv-x="353" 
d="M32 55h289v-92h-289v92z" />
    <glyph glyph-name="uni207B" unicode="&#x207b;" horiz-adv-x="353" 
d="M32 577h289v-92h-289v92z" />
    <glyph glyph-name="multiply" unicode="&#xd7;" 
d="M394 326l156 -156l-92 -92l-156 156l-156 -156l-92 92l156 156l-156 156l92 92l156 -156l156 156l92 -92z" />
    <glyph glyph-name="notequal" unicode="&#x2260;" 
d="M381 375l-53 -117h220v-115h-272l-53 -116h-106l52 116h-113v115h165l53 117h-218v114h270l55 121h107l-55 -121h115v-114h-167z" />
    <glyph glyph-name="partialdiff" unicode="&#x2202;" horiz-adv-x="660" 
d="M527 585q74 -85 74 -244q0 -182 -75 -266.5t-223 -84.5q-65 0 -119.5 25t-87 74t-32.5 117q0 66 31 114.5t83.5 74.5t115.5 26q51 0 89.5 -21.5t61.5 -62.5q-5 106 -46 151t-111 45q-42 0 -74.5 -12.5t-64.5 -41.5l-71 107q54 44 106.5 64t127.5 20q141 0 215 -85z
M437 222q-11 34 -38 56.5t-69 22.5q-44 0 -68 -24t-24 -66q0 -43 23.5 -66.5t67.5 -23.5q86 0 108 101z" />
    <glyph glyph-name="percent" unicode="%" horiz-adv-x="938" 
d="M351 618.5q51 -51.5 51 -136.5t-51 -136.5t-135 -51.5t-135 51.5t-51 136.5t51 136.5t135 51.5t135 -51.5zM634 661h130l-459 -661h-130zM172.5 536.5q-15.5 -19.5 -15.5 -54.5t15.5 -54.5t43.5 -19.5q29 0 44.5 19.5t15.5 54.5t-15.5 54.5t-44.5 19.5q-28 0 -43.5 -19.5
zM856 314.5q51 -51.5 51 -136.5t-51 -136.5t-135 -51.5t-135 51.5t-51 136.5t51 136.5t135 51.5t135 -51.5zM676.5 232.5q-15.5 -19.5 -15.5 -54.5t15.5 -54.5t44.5 -19.5t44.5 19.5t15.5 54.5t-15.5 54.5t-44.5 19.5t-44.5 -19.5z" />
    <glyph glyph-name="perthousand" unicode="&#x2030;" horiz-adv-x="1356" 
d="M351 618.5q51 -51.5 51 -136.5t-51 -136.5t-135 -51.5t-135 51.5t-51 136.5t51 136.5t135 51.5t135 -51.5zM634 661h130l-459 -661h-130zM172.5 536.5q-15.5 -19.5 -15.5 -54.5t15.5 -54.5t43.5 -19.5q29 0 44.5 19.5t15.5 54.5t-15.5 54.5t-44.5 19.5q-28 0 -43.5 -19.5
zM856 314.5q51 -51.5 51 -136.5t-51 -136.5t-135 -51.5t-135 51.5t-51 136.5t51 136.5t135 51.5t135 -51.5zM1274 314.5q51 -51.5 51 -136.5t-51 -136.5t-135 -51.5t-135 51.5t-51 136.5t51 136.5t135 51.5t135 -51.5zM676.5 232.5q-15.5 -19.5 -15.5 -54.5t15.5 -54.5
t44.5 -19.5t44.5 19.5t15.5 54.5t-15.5 54.5t-44.5 19.5t-44.5 -19.5zM1094.5 232.5q-15.5 -19.5 -15.5 -54.5t15.5 -54.5t44.5 -19.5t44.5 19.5t15.5 54.5t-15.5 54.5t-44.5 19.5t-44.5 -19.5z" />
    <glyph glyph-name="plus" unicode="+" 
d="M553 264h-183v-204h-135v204h-184v122h184v203h135v-203h183v-122z" />
    <glyph glyph-name="uni208A" unicode="&#x208a;" horiz-adv-x="353" 
d="M330 -33h-107v-111h-91v111h-109v85h109v111h91v-111h107v-85z" />
    <glyph glyph-name="plusminus" unicode="&#xb1;" 
d="M553 477v-117h-189v-175h-123v175h-190v117h190v175h123v-175h189zM51 115h502v-114h-502v114z" />
    <glyph glyph-name="uni207A" unicode="&#x207a;" horiz-adv-x="353" 
d="M330 489h-107v-111h-91v111h-109v85h109v111h91v-111h107v-85z" />
    <glyph glyph-name="product" unicode="&#x220f;" horiz-adv-x="698" 
d="M631 -128h-160v655h-245v-655h-160v788h565v-788z" />
    <glyph glyph-name="radical" unicode="&#x221a;" horiz-adv-x="687" 
d="M729 818l-317 -818h-169l-126 319h-102v129h191l83 -216l39 -120l41 130l215 576h145z" />
    <glyph glyph-name="summation" unicode="&#x2211;" horiz-adv-x="673" 
d="M615 533h-375l257 -251v-31l-259 -258h377v-121h-559v121l268 274l-268 266v127h559v-127z" />
    <glyph glyph-name="uni00B5" unicode="&#xb5;" horiz-adv-x="617" 
d="M559 500v-500h-150l-6 92q-42 -102 -153 -102q-15 0 -22 1v-201h-170v710h170v-291q0 -49 17.5 -69t52.5 -20q40 0 63.5 24.5t27.5 72.5v283h170z" />
    <glyph glyph-name="uni2126" unicode="&#x2126;" horiz-adv-x="778" 
d="M719 116v-116h-291v116q110 18 110 210q0 101 -38.5 155t-110.5 54t-110.5 -53.5t-38.5 -155.5q0 -192 109 -210v-116h-290v116h147q-68 33 -104.5 93t-36.5 143q0 97 39 169t112 110.5t173 38.5q99 0 172 -38.5t112 -110.5t39 -169q0 -83 -36.5 -143t-104.5 -93h148z
" />
    <glyph glyph-name="uni2206" unicode="&#x2206;" horiz-adv-x="733" 
d="M693 104v-104h-653v104l239 556h175zM177 120h380l-191 441z" />
    <glyph glyph-name="uni2215" unicode="&#x2215;" horiz-adv-x="263" 
d="M310 661h120l-477 -661h-120z" />
    <glyph glyph-name="uni2219" unicode="&#x2219;" horiz-adv-x="274" 
d="M210.5 409q26.5 -24 26.5 -67q0 -42 -26.5 -66t-73.5 -24t-73.5 24t-26.5 66q0 43 26.5 67t73.5 24t73.5 -24z" />
    <glyph glyph-name="arrowup" unicode="&#x2191;" horiz-adv-x="750" 
d="M519.5 512.5q81.5 -69.5 200.5 -141.5l-88 -127q-116 76 -186 174q13 -93 13 -183v-235h-170v235q0 90 13 183q-70 -98 -186 -174l-88 127q119 72 200.5 141.5t142.5 153.5h6q61 -84 142.5 -153.5z" />
    <glyph glyph-name="uni2197" unicode="&#x2197;" horiz-adv-x="750" 
d="M628 364q0 -132 19 -242l-151 -7q-3 41 -3 80q0 97 20 192q-59 -72 -141 -152l-167 -167l-108 108l167 167q91 91 153 141q-95 -20 -193 -20q-39 0 -80 3l7 151q110 -19 242 -19q119 0 246 15l4 -4q-15 -127 -15 -246z" />
    <glyph glyph-name="arrowright" unicode="&#x2192;" horiz-adv-x="750" 
d="M567.5 476.5q69.5 -81.5 153.5 -142.5v-6q-84 -61 -153.5 -142.5t-141.5 -200.5l-127 88q75 114 174 186q-91 -13 -183 -13h-235v170h235q92 0 183 -13q-99 72 -174 186l127 88q72 -119 141.5 -200.5z" />
    <glyph glyph-name="uni2198" unicode="&#x2198;" horiz-adv-x="750" 
d="M623 332q0 -119 15 -246l-4 -4q-127 15 -246 15q-132 0 -242 -19l-7 151q41 3 79 3q98 0 193 -20q-62 51 -152 141l-167 167l108 108l167 -167q82 -80 141 -152q-20 95 -20 193q0 39 3 79l151 -7q-19 -110 -19 -242z" />
    <glyph glyph-name="arrowdown" unicode="&#x2193;" horiz-adv-x="750" 
d="M722 289q-119 -72 -200.5 -141.5t-142.5 -153.5h-6q-61 84 -142.5 153.5t-200.5 141.5l88 127q114 -75 186 -174q-13 91 -13 183v235h170v-235q0 -92 -13 -183q72 99 186 174z" />
    <glyph glyph-name="uni2199" unicode="&#x2199;" horiz-adv-x="750" 
d="M532 232q38 0 79 -3l-7 -151q-110 19 -242 19q-119 0 -246 -15l-4 4q15 127 15 246q0 132 -19 242l151 7q3 -40 3 -79q0 -98 -20 -193q59 72 141 152l167 167l108 -108l-167 -167q-90 -90 -152 -141q95 20 193 20z" />
    <glyph glyph-name="arrowleft" unicode="&#x2190;" horiz-adv-x="750" 
d="M695 416v-170h-235q-92 0 -183 13q99 -72 174 -186l-127 -88q-72 119 -141.5 200.5t-153.5 142.5v6q84 61 153.5 142.5t141.5 200.5l127 -88q-75 -114 -174 -186q91 13 183 13h235z" />
    <glyph glyph-name="uni2196" unicode="&#x2196;" horiz-adv-x="750" 
d="M653 176l-108 -108l-167 167q-82 80 -141 152q20 -95 20 -193q0 -38 -3 -79l-151 7q19 110 19 242q0 119 -15 246l4 4q127 -15 246 -15q132 0 242 19l7 -151q-40 -3 -79 -3q-98 0 -193 20q62 -51 152 -141z" />
    <glyph glyph-name="arrowboth" unicode="&#x2194;" horiz-adv-x="1098" 
d="M916 494.5q70 -81.5 153 -141.5v-6q-84 -61 -153.5 -142.5t-141.5 -200.5l-130 84q75 115 176 189q-89 -12 -166 -12h-210q-77 0 -166 12q101 -74 176 -189l-130 -84q-72 119 -141.5 200.5t-153.5 142.5v6q83 60 153 141.5t142 200.5l130 -84q-75 -114 -175 -188
q87 12 165 12h210q78 0 165 -12q-100 74 -175 188l130 84q72 -119 142 -200.5z" />
    <glyph glyph-name="arrowupdn" unicode="&#x2195;" horiz-adv-x="750" 
d="M636 235l84 -130q-119 -72 -200.5 -142t-141.5 -153h-6q-61 84 -142.5 153.5t-200.5 141.5l84 130q117 -77 189 -176q-12 78 -12 166v210q0 88 12 166q-72 -99 -189 -176l-84 130q119 72 200.5 141.5t142.5 153.5h6q60 -83 141.5 -153t200.5 -142l-84 -130
q-117 77 -189 176q13 -84 13 -166v-210q0 -81 -13 -166q72 99 189 176z" />
    <glyph glyph-name="uni25CF" unicode="&#x25cf;" horiz-adv-x="600" 
d="M167.5 24q-59.5 34 -93.5 93.5t-34 132.5t34 132.5t93.5 93.5t132.5 34t132.5 -34t93.5 -93.5t34 -132.5t-34 -132.5t-93.5 -93.5t-132.5 -34t-132.5 34z" />
    <glyph glyph-name="circle" unicode="&#x25cb;" horiz-adv-x="600" 
d="M163.5 24q-61.5 34 -96.5 93.5t-35 132.5t35 132.5t96.5 93.5t136.5 34t136.5 -34t96.5 -93.5t35 -132.5t-35 -132.5t-96.5 -93.5t-136.5 -34t-136.5 34zM402 146q41 42 41 104t-41 104t-102 42t-102 -42t-41 -104t41 -104t102 -42t102 42z" />
    <glyph glyph-name="uni25C6" unicode="&#x25c6;" horiz-adv-x="600" 
d="M35 259l265 265l265 -265l-265 -265z" />
    <glyph glyph-name="uni25C7" unicode="&#x25c7;" horiz-adv-x="600" 
d="M35 259l265 265l265 -265l-265 -265zM425 259l-125 125l-125 -125l125 -125z" />
    <glyph glyph-name="lozenge" unicode="&#x25ca;" horiz-adv-x="653" 
d="M606 330l-193 -330h-174l-192 330l192 330h174zM447 330l-121 236l-120 -236l120 -236z" />
    <glyph glyph-name="uni25AA" unicode="&#x25aa;" horiz-adv-x="600" 
d="M550 500v-500h-500v500h500z" />
    <glyph glyph-name="uni25AB" unicode="&#x25ab;" horiz-adv-x="600" 
d="M44 500h512v-500h-512v500zM435 110v280h-270v-280h270z" />
    <glyph glyph-name="uni25CF.case" horiz-adv-x="804" 
d="M228.5 34.5q-77.5 44.5 -122 122t-44.5 173.5t44.5 173.5t122 122t173.5 44.5t173.5 -44.5t122 -122t44.5 -173.5t-44.5 -173.5t-122 -122t-173.5 -44.5t-173.5 44.5z" />
    </font>
</defs>
</svg>
